<svg version="1.2" xmlns="http://www.w3.org/2000/svg" viewBox="0 0 279 270" width="279" height="270"><style>tspan{white-space:pre}.a{fill:#ea2e49}.b{fill:#05293d}.c{opacity:.2;fill:#05293d}.d{fill:#fff}.e{fill:#f2ebbf}.f{fill:#f06060}</style><path class="a" d="m200.9 9.6q5.7 0 12.2 0.6c26.2 2.6 56.5 26.6 60.1 72.5v15.3c-3.4 44-36.6 98.3-133.7 166.4-97-68.1-130.2-122.4-133.7-166.4v-15.3c3.7-45.9 34-69.9 60.2-72.5q6.5-0.6 12.1-0.6c30.3 0 44.8 13.1 61.4 32.9 16.7-19.8 31.2-32.9 61.4-32.9z"/><path fill-rule="evenodd" class="b" d="m139.5 267.4l-1.4-1c-86.6-60.7-130.7-115.7-134.8-168.2v-0.2-15.5c3.8-47.5 35.1-72.1 62.5-74.7 4.3-0.5 8.5-0.7 12.3-0.7 31 0 46.5 14.1 61.4 31.5 15.4-18 30.3-31.5 61.4-31.5 3.9 0 8.1 0.2 12.4 0.7 27.4 2.6 58.6 27.2 62.4 74.7v0.2 15.5c-4.1 52.5-48.1 107.5-134.7 168.2zm-131.2-169.5c1.8 23.3 12.3 47.8 31.2 72.8 21.7 28.7 55.4 59.2 100 90.6 44.6-31.4 78.2-61.9 99.9-90.6 18.9-25 29.4-49.5 31.3-72.8v-15.1c-3.6-44.6-32.6-67.6-57.9-70.1-4.2-0.4-8.2-0.6-11.9-0.6-30.3 0-44.3 13.9-59.5 32l-1.9 2.3-1.9-2.3c-15.3-18.1-29.3-32-59.5-32-3.8 0-7.7 0.2-11.9 0.6-25.4 2.5-54.3 25.5-57.9 70.1z"/><path class="c" d="m13.8 131.2c14.9 37.4 51.8 81.3 125.7 133.2 74.5-52.3 111.4-96.4 126.1-134-106.7 147.3-207.5 56.5-251.8 0.8z"/><g style="opacity:.1"><path class="d" d="m33.5 36.7c-0.2 0.3 0.5 0.3 0 0.4-0.2-0.3-0.3-0.5 0-0.4z"/><path class="d" d="m122.8 41.6c-2.1 0.4-1.8-2-3.6-2.1-0.1 0 0.8-0.7 0.4-0.7-2 0.2-2.8-1.7-3.2-3.6l0.2-0.2c-0.1-0.3-0.9 0.2-1.1-0.1 0.1-0.2 0.3-0.2 0.4-0.4-0.5 0.4-0.6-0.2-1 0.1 0-0.3 0.3-0.6 0.4-0.9l-0.6 0.4c-1.3 0.9-0.9-0.8-1.9-0.6 0.1-0.1 0.3-0.1 0.3-0.3-1.4 0.1-2.3-0.9-3.5-1.2 0.1-0.2 0.4-0.5 0.5-0.7-0.5 0.5-0.9 0.4-1.2 0.4 0.3-0.7-0.8 0.2-0.9-0.3l0.1-0.1c-0.6 0.4-0.1-0.6-0.7 0l0.1-0.6c-0.6 0.8 0-0.6-0.5-0.3l-0.1 0.2c-0.3 0.1-0.2-0.4-0.4-0.4v-0.1c-0.5 0-0.5-0.6-0.8 0.1 0.1-0.6 0.5 0 0.7-0.9-1.7-0.1-3-1.1-4.4-1.7 0-0.3-0.1-0.4 0-0.7-0.2 0-0.6-0.1-0.9 0.2 0.1 0 0.1-0.4 0.1-0.5-0.2-0.4-0.7 0.6-0.8 0.2q0.3-0.2 0.4-0.6c-0.5 0.4-0.8 0.2-1.1 0.2 0.1-0.1 0.2-0.1 0.3-0.4-0.6 0.5-0.6-0.3-1-0.1l0.3-0.3c-0.3-0.7-0.5 0.8-0.8 0.3 0.2-0.1 0.2-0.2 0.3-0.4-0.7 0.6-1.2 0.2-1.6 0.3 0-0.1 0.1-0.2 0.1-0.2-0.5 0-0.8-0.4-1.3-0.3-0.1-0.2 0.4-1-0.1-1-0.3 0.9-0.8 0.1-0.9 1.2-0.3-0.3-0.8-0.8-1.1-0.5 0.2-0.3 0.1-1.1 0.5-1.1l-0.1-0.6c0.1-0.3 0.2 0.2 0.2-0.3-0.1 0-0.7 0.2-0.8 0-0.4 0.5-0.9 1.4-1.4 1.4 0.3-0.3 0.1-1 0.3-1.1l-1.1 1.4c-0.1 0 0.2-0.7-0.1-0.5 0 0.3-0.2 0.4-0.3 0.6 0-0.2-0.7 0-0.5-0.8 0-0.4 0.3-0.2 0.2-0.5-0.3-0.1-0.4 0.2-0.7 0.2v-0.1c-0.1-0.2-0.6 0.2-0.5 0.7 0.1 0.1 0.1-0.5 0.2-0.2-0.2 0.5-0.6 0.5-0.9 0.5 0.2-0.1 0.2-0.4 0.3-0.6-0.5 0.6-1 0.7-1.4 0.9-0.1 0.4 0.3-0.7 0.3-0.5-0.5-0.7-1.3 0.7-1.6-0.2 0.1-0.1 0 0.6 0 0.4-0.3 0-0.2-0.6-0.4-0.4 0.1-0.4-0.2 0-0.4 0.1-0.1 0.3 0-0.2 0.2-0.2-0.3 0.3-1.3 0.7-1.8 0.1-0.1 0.2-0.5 0.8-0.6 0.8l0.1-0.6c-0.1-0.3-0.4 0.1-0.4-0.4-0.3 0.6 1.1-0.5 0.7 0-0.1-0.5-0.6 0.8-0.5 0.1-0.2 0-0.5 0.6-0.7 0.1 0 0.1 0.2-0.8 0-0.8-0.4 0.1-0.1 0.3-0.4 0.5l-0.2 0.2c-0.1 0.5-0.3-0.1-0.2 0.5-0.1-0.5-0.6 0.2-0.5-0.7l0.1-0.7c-0.2 0.1-0.3 0.8-0.5 1 0 0 0-0.2 0-0.3-0.1 1.1-0.4-0.1-0.6 0.7-0.3-0.4-0.8 0-1-0.7-0.2 0.3-0.5 0.7-0.8 0.5 0.1-0.1 0.2-0.1 0.2-0.4-0.2-0.3-0.2 0-0.4 0.2 0-0.2-0.4-0.7-0.6-1-0.2 0.3-0.1 0.9-0.2 1.2-0.2-1-0.7 0.7-1-0.2 0.1-0.2 0.4-0.6 0.2-0.8-0.3-1.1-0.5 0.8-0.9 0.3l0.1 0.8c-0.2-0.5-0.5 0.6-0.5-0.3-0.1 0.3-0.5-0.3-0.4 0.6-0.6-0.7-1.4 0.5-1.9-1-0.1 0.2-0.3 0.1-0.2 0.5 0.1 0.4 0.1-0.4 0.2-0.1-0.1 0.1-0.1 0.3-0.1 0.4-0.2-0.1-0.3-0.2-0.2-0.9-0.5-0.5-0.3 1.5-0.9 1.2q0-0.5-0.2-0.4l-0.2 0.6c-0.4-0.1-0.3-0.7-0.4-1.3-0.2 0.1-0.4 0.1-0.4 0.5l-0.4-0.7c0.3 0.5-0.1 0.4-0.2 0.6l0.1-0.2c-0.1-0.2-0.3-0.1-0.4 0 0.1 0.4 0.4 0.5 0.5 0.6-0.1 0.3-0.2 0.2-0.3 0.6 0-0.6-0.4-0.4-0.5-0.4-0.2-0.1-0.1 0.5-0.2 0.5 0-0.3-0.3 0-0.2-0.4 0.1-0.1 0.2 0.2 0.2-0.1-0.1-0.2-0.2-0.7-0.4-0.3-0.1 0.4 0.3 1.2-0.1 0.9 0.1-0.2 0-0.4 0.1-0.6l-0.4-0.3 0.1 0.5c-0.1-0.1-0.1-0.1-0.1-0.2 0 0.6-0.4 0.2-0.4 0.9-0.1 0.1-0.4-0.3-0.6-0.4h0.1c-0.3-0.3-0.5 0-0.6 0.3v-0.1c-0.1 0-0.3 0.1-0.4 0.5-0.3-0.4-0.5-2-0.6-1.3-0.3 0.1-0.2 1.1 0 1.4-0.6-0.3-0.9 0.7-1.5 0 0 0.2 0.1 0.3 0 0.5-0.7-0.1-1.2 1-2 0.1 0.1-0.3-0.2-0.5-0.3-0.8 0 0.5-0.3-0.4-0.1 0.4 0.1 0.4 0.2 0.7 0.4 0.8-0.3 0.3-0.9 0.5-1.2 0.1 0.1 0.2 0.1 0.4 0 0.6-0.2-0.8-0.5-0.8-0.6-0.5l0.1 0.5-0.3-0.5c0 0.2 0.2 1-0.1 0.7q-0.1-0.3-0.3-0.5c-0.1 0.4-0.2 1.2-0.5 0.9l-0.5-0.6c0 0.1-0.1 0.5 0.2 0.7-0.6-0.3-0.9-0.3-1.2-0.8-0.2 1.6-1.2 2.1-2.1 2.3l-0.1-0.4c-0.3-0.2 0.2 0.6-0.1 0.5 0-0.4-0.4-0.6-0.4-1.1-0.4-0.2-0.2 0.7-0.3 1 0.1 0.4 0-0.4 0.2 0.2 0 0.1-0.5-0.2-0.3 0.5-0.2-0.2-0.3-0.7-0.4-1l-0.1 0.4c-0.5-0.7 0-1.6-0.6-2.4l-0.1 0.2c-0.5-0.7 0.1-1-0.4-1.1-0.1 0.4 0.1 1.5 0.4 1.7-0.3 0.3 0.5 1.6 0 1.7-0.3-0.3 0.3-0.2 0-0.7-0.4-0.5-0.3 0.4-0.5 0.3 0.3 0.2 0.4 0.9 0.3 1.1-0.3-0.2-0.1-0.7-0.5-0.6 0.2 0.4 0 0.8 0.3 0.9 0.3 0.9-0.4-0.1-0.2 0.6-0.4-0.5-0.3-1.5-0.8-1.6 0.3 0.5-0.1 0.9 0.5 1.7-0.2-0.1-0.4-0.5-0.5-0.9-0.3-0.3 0 1.2-0.5 0.1l0.2 0.6c-0.2-0.1-0.3-0.2-0.6-0.5-0.1 0.1-0.1 1-0.5 0.1 0 0.1-0.4 0.3 0 0.8 0.4 0.3 0.1-0.5 0.6 0.2-0.5-0.6-0.3 0.2-0.4 0.5l-0.1-0.3c-0.1 0.2-0.3 0.2-0.1 0.6-0.1-0.3-0.2-0.5-0.3-0.5l0.1 0.5c-0.2 0.4-0.5-0.8-0.7-0.5v-0.5c0 0.1-0.3-0.4-0.4-0.1 0.2 0.5 0.4 1.1 0.5 1.5-0.1 0.2-0.3-0.5-0.3 0v-0.6c-0.1-0.2-0.6-0.7-0.8-0.6-0.1 0.3 0 1 0.4 1.2-0.1 0-0.4-0.2-0.5-0.6-0.2 0.3 0.3 0.5 0.2 0.9-0.2-0.2-0.8-0.5-1.2-0.9l-0.1-0.9-0.2 0.1c-0.1-0.7-0.3-0.4-0.5-1.1-0.2-0.1-0.2 0.2-0.2 0.5 0.8 0.8 0.3 1.6 0.9 2.4-0.3 0.5-1.4-2.1-1.1-0.4 0.2 0.2 0.4 1 0.5 0.6-0.3 0.1 0.3 1.1-0.2 0.8 0-0.5-0.8-0.8-0.7-1.5 0.1 0.3 0.3 0.1 0.3 0-0.3-0.3-0.5-0.9-0.8-0.8-0.1 0.2-0.3 0.3 0 0.8 0.3 0.5 0.2-0.2 0.4 0.4-0.2 0.4-0.7-0.4-0.4 0.6 0.2-0.2 0.6 0.3 0.8 0.7l-0.2 0.4-0.1-0.4c-0.5-0.1 0.2 0.7-0.2 0.8l-0.6-0.6c-0.2-0.6 0.7 0 0.1-1-0.2 0.1 0 0.7-0.4 0.5v-0.3c-0.1 0.1-0.9-1.2-0.8-0.2 0 0.4 0.2 0.4 0.4 0.7-0.4 0.4-0.3 0.8-0.5 1-0.3-0.8-0.5 0.2-0.6-0.7 0.4 0.3 0.9 0 0.6-0.8-0.6-0.7 0.4 0 0-0.9-0.3 0.1-0.8-0.7-1.1-1.2-0.1 0-0.1 0.3-0.1 0.4 0.3 0.5 0.4 0.4 0.7 1-0.5 0-0.6 0.5-0.5 1.1-0.3-0.2-0.6-0.7-0.5-0.8-0.3 0.4-0.8 0.6-1.3 0.7 0.8 0.6-0.3 0.4 0.3 1 0.3 0.1 0.9 0.5 1 1-0.2 0-0.2-0.4-0.4-0.5 0.1 0.5-0.7-0.6-0.4 0.2 0.2-0.5-0.6-1-0.9-1.7 0 0.5-0.3-0.5-0.5-0.3-0.1 0.5-0.2 1-0.4 1.3-0.8-0.3-1 0.7-1.3 0.9-0.4-0.2-0.8-1-1-1-0.2 0.2 0.7 0.7 0.1 0.6l-0.1-0.2c0.1 0.2-0.9 0-0.3 1l-0.4-0.8c-0.1 0-0.1 0.2 0 0.3-0.2-0.2-0.5-0.4-0.5-0.6-0.5-0.4-0.3 0.3-0.5 0.5l0.4 0.4c-0.1 0.6-0.7 0.3-0.9 0.7l-0.3-0.4v0.4c-0.3-0.4-0.7-0.6-0.5-0.1l-0.3-1.5c0.4 0.1 0.2 0.7 0.7 1 0.3 0.3 0.6-0.1 0.3-0.5-0.2 0-0.1 0.1-0.1 0.4-0.5-0.6-0.2-0.7-0.4-1.2-0.1 0.1-0.3 0-0.2 0.2-0.1-0.4 0-0.6 0.2-0.7 0.1 0.3 0.4 0.3 0.5 0.5-0.4-0.6-0.3-0.9 0.1-0.9 0.6 0.5 0.2-0.8 0.7-0.8 0.2 0.6 0.4 1.1 0.3 1.5 0.4 0.1 0.2-0.2 0.6 0-0.2-0.5-0.5-1.2-0.4-1.6l0.3 0.4c0.1-0.4-0.3-1 0.1-1.1 0.6-0.1 1.2-0.5 1.6-0.7l0.3 0.4c-0.3-1 0.6-0.8 0.6-1.4 0.8 0.1 0.9-1.1 1.7-0.5 0.7-0.9 1.4-1.7 2.5-2.1l0.1 0.7c0-0.5 0.4 0.3 0.5 0.1-0.5-0.4-0.1-0.8-0.2-1.2 0.7 0.2 1-0.6 1.2-1.2l0.2 0.4c0-1 0.9-0.6 1.5-0.7 0.1 0.2 0.4 0.5 0.5 0.4 0-0.8 0.1-0.9 0.3-1.5 0.3-0.1 0.9-0.2 1.4 0 0.6-1.6 2.1-1.4 3.1-2.5l0.3 0.5c0.7-1.6 2.6-1.2 3.4-2.1l0.2 1c0.5 0.2 0.7-0.5 0.4-1.1 0.4 0.1 0.7-0.8 1.1-0.1 0.4 0.1 0.3-0.5 0.5-0.7 0.8 0.1 1 0 1.6-0.4h-0.1c0 0.2 0.1 0.6 0.2 0.6 0.2-0.3 1 0.1 0.4-1 0.9 0.5 1.5-1 2.4-0.2-0.1-0.3 0-0.4 0.1-0.7 0.6-0.1 1.4 0.4 1.7-0.3 0.2 0.2 0 0.6 0.2 0.6 0.2-0.2 0-0.4 0.1-0.7 0.9-0.7 2.2 0.3 3 0 1.6-0.9 3.4-0.8 4.9-1v0.2c0.5-0.9 1.3 0.8 1.7-0.5 0.1 0.2 0.5 0 0.4 0.5 0.4-0.7 1.2 0.5 1.8-0.3q-0.1 0-0.2 0.1c0.6 0.5 1.2-0.2 1.8 0.3 0 0.1-0.1 0.2-0.2 0.4 0.3 0.5 0.6-1 0.8 0.2 0.1 0 0.1-0.6 0-0.6 1.4 0.4 2.9-0.1 4.5-0.3 1 0.8-0.2 1.9 0.8 1.1 0 0.3 0-0.4 0-0.1 0.4-0.3 0.4 1.3 0.7 0.7 0-0.7 0.2-0.3 0.2-0.8 0.6 0.6 0.7 1.2 1.2 0.8l-0.1 0.3c0.8-0.9 1.4-0.3 2.1-1.4 3.3 0.5 6.7 0.6 9.8 1.6 3 1.4 6.2 2.2 8.8 4.4 0.2 1.2 0.3 1.2 1.2 1.3-0.1 0.1-0.2 0.1-0.2 0.3 0.4-0.7 0.5 0.2 1-0.4 1 0.7 2 1.2 3 1.9-0.2-0.1-0.6 0.4-0.4 0.5l0.5-0.3-0.1 0.2c0.2 0 0.6-0.2 0.6-0.5 3 1.2 4.5 4.4 6.8 6.2 0.3 0.8 1.3 1.2 2 1.6 1 2.4 1.7 4.4 3.8 5.6 0 0-1.7 1.1-2.7 0.8z"/><path class="d" d="m33.8 36.3c0.3 0.3 0.6 0.3 0.8 0.8-0.3-0.2-0.6-0.5-0.8-0.8z"/><path class="d" d="m41.6 35.8c0-0.1 0.2 0.1 0.3 0.1-0.1 0.1 0 0.4-0.1 0.3 0-0.1-0.1-0.2-0.2-0.4z"/><path class="d" d="m43.2 35.1c0.2 0.3 0 0.8-0.2 0.9z"/><path class="d" d="m45.3 35.6q0.4 0.3 0.1 0.4c-0.1-0.1-0.1-0.2-0.1-0.4z"/><path class="d" d="m45 34.8c0.1 0 0.2 0.1 0.4 0.3-0.2-0.3-0.2 0.3-0.4-0.3z"/><path class="d" d="m48.4 34.1c0 0 0.1-0.4 0.3-0.1-0.2-0.2-0.1 0.6-0.3 0.1z"/><path class="d" d="m49.5 33c0.1 0 0.1 0 0.1-0.1 0.2 0.1 0.2 0.4 0.2 0.4z"/><path class="d" d="m76.3 24.3l-0.2 0.2 0.1-0.4z"/><path class="d" d="m88.6 25.2c0.2-0.1 0.1 0.4 0.1 0.4-0.2 0 0.1-0.4-0.1-0.4z"/><path class="d" d="m95.6 25.3l0.2-0.7z"/></g><g style="opacity:.1"><path class="d" d="m246.3 36.7c0.2 0.3-0.6 0.3 0 0.4 0.2-0.3 0.2-0.5 0-0.4z"/><path class="d" d="m156.9 41.6c2.2 0.4 1.9-2 3.6-2.1 0.2 0-0.7-0.7-0.3-0.7 1.9 0.2 2.8-1.7 3.2-3.6l-0.2-0.2c0-0.3 0.9 0.2 1.1-0.1-0.2-0.2-0.3-0.2-0.4-0.4 0.4 0.4 0.6-0.2 1 0.1-0.1-0.3-0.4-0.6-0.4-0.9l0.6 0.4c1.3 0.9 0.8-0.8 1.9-0.6-0.2-0.1-0.3-0.1-0.3-0.3 1.4 0.1 2.3-0.9 3.5-1.2-0.2-0.2-0.4-0.5-0.5-0.7 0.4 0.5 0.8 0.4 1.2 0.4-0.3-0.7 0.8 0.2 0.9-0.3l-0.2-0.1c0.7 0.4 0.2-0.6 0.8 0l-0.1-0.6c0.6 0.8 0-0.6 0.5-0.3l0.1 0.2c0.3 0.1 0.1-0.4 0.4-0.4l-0.1-0.1c0.6 0 0.5-0.6 0.9 0.1-0.2-0.6-0.5 0-0.8-0.9 1.8-0.1 3-1.1 4.5-1.7 0-0.3 0-0.4 0-0.7 0.2 0 0.5-0.1 0.8 0.2 0 0 0-0.4 0-0.5 0.2-0.4 0.6 0.6 0.8 0.2q-0.3-0.2-0.4-0.6c0.5 0.4 0.7 0.2 1.1 0.2-0.1-0.1-0.2-0.1-0.3-0.4 0.6 0.5 0.5-0.3 1-0.1l-0.3-0.3c0.2-0.7 0.5 0.8 0.7 0.3-0.1-0.1-0.1-0.2-0.2-0.4 0.7 0.6 1.1 0.2 1.6 0.3-0.1-0.1-0.1-0.2-0.1-0.2 0.4 0 0.8-0.4 1.3-0.3 0.1-0.2-0.4-1 0.1-1 0.2 0.9 0.8 0.1 0.9 1.2 0.3-0.3 0.8-0.8 1.1-0.5-0.3-0.3-0.2-1.1-0.5-1.1l0.1-0.6c-0.1-0.3-0.2 0.2-0.3-0.3 0.2 0 0.7 0.2 0.8 0 0.5 0.5 1 1.4 1.5 1.4-0.3-0.3-0.1-1-0.3-1.1l1 1.4c0.2 0-0.1-0.7 0.2-0.5 0 0.3 0.2 0.4 0.3 0.6 0-0.2 0.6 0 0.5-0.8 0-0.4-0.3-0.2-0.2-0.5 0.3-0.1 0.4 0.2 0.7 0.2l-0.1-0.1c0.2-0.2 0.7 0.2 0.6 0.7-0.2 0.1-0.1-0.5-0.2-0.2 0.2 0.5 0.6 0.5 0.8 0.5-0.1-0.1-0.1-0.4-0.2-0.6 0.5 0.6 0.9 0.7 1.4 0.9 0.1 0.4-0.3-0.7-0.3-0.5 0.4-0.7 1.2 0.7 1.5-0.2 0-0.1 0.1 0.6 0.1 0.4 0.2 0 0.1-0.6 0.3-0.4 0-0.4 0.3 0 0.4 0.1 0.2 0.3 0.1-0.2-0.1-0.2 0.3 0.3 1.3 0.7 1.8 0.1 0 0.2 0.4 0.8 0.6 0.8l-0.1-0.6c0.1-0.3 0.4 0.1 0.4-0.4 0.3 0.6-1.1-0.5-0.7 0 0-0.5 0.6 0.8 0.4 0.1 0.3 0 0.6 0.6 0.8 0.1-0.1 0.1-0.3-0.8-0.1-0.8 0.4 0.1 0.2 0.3 0.5 0.5l0.2 0.2c0 0.5 0.3-0.1 0.2 0.5 0-0.5 0.6 0.2 0.5-0.7l-0.1-0.7c0.1 0.1 0.3 0.8 0.4 1 0 0 0.1-0.2 0.1-0.3 0 1.1 0.3-0.1 0.6 0.7 0.3-0.4 0.8 0 0.9-0.7 0.3 0.3 0.5 0.7 0.8 0.5 0-0.1-0.1-0.1-0.1-0.4 0.2-0.3 0.2 0 0.4 0.2-0.1-0.2 0.3-0.7 0.6-1 0.2 0.3 0.1 0.9 0.1 1.2 0.3-1 0.7 0.7 1.1-0.2-0.1-0.2-0.4-0.6-0.2-0.8 0.3-1.1 0.5 0.8 0.9 0.3l-0.2 0.8c0.2-0.5 0.6 0.6 0.6-0.3 0.1 0.3 0.4-0.3 0.3 0.6 0.7-0.7 1.5 0.5 2-1 0.1 0.2 0.3 0.1 0.2 0.5-0.2 0.4-0.2-0.4-0.2-0.1 0 0.1 0 0.3 0 0.4 0.2-0.1 0.4-0.2 0.3-0.9 0.5-0.5 0.3 1.5 0.8 1.2q0.1-0.5 0.3-0.4l0.2 0.6c0.4-0.1 0.3-0.7 0.4-1.3 0.2 0.1 0.4 0.1 0.4 0.5l0.4-0.7c-0.3 0.5 0.1 0.4 0.1 0.6v-0.2c0-0.2 0.2-0.1 0.3 0-0.1 0.4-0.3 0.5-0.4 0.6 0 0.3 0.2 0.2 0.3 0.6 0-0.6 0.3-0.4 0.5-0.4 0.2-0.1 0.1 0.5 0.1 0.5 0.1-0.3 0.3 0 0.3-0.4-0.1-0.1-0.2 0.2-0.3-0.1 0.2-0.2 0.2-0.7 0.4-0.3 0.1 0.4-0.2 1.2 0.2 0.9-0.1-0.2-0.1-0.4-0.1-0.6l0.4-0.3-0.1 0.5c0.1-0.1 0-0.1 0.1-0.2 0 0.6 0.4 0.2 0.4 0.9 0.1 0.1 0.4-0.3 0.5-0.4 0.2-0.3 0.5 0 0.5 0.3v-0.1c0.2 0 0.4 0.1 0.4 0.5 0.4-0.4 0.5-2 0.7-1.3 0.2 0.1 0.2 1.1 0 1.4 0.5-0.3 0.8 0.7 1.4 0 0.1 0.2 0 0.3 0.1 0.5 0.7-0.1 1.2 1 2 0.1-0.1-0.3 0.1-0.5 0.2-0.8 0.1 0.5 0.4-0.4 0.2 0.4-0.2 0.4-0.2 0.7-0.4 0.8 0.3 0.3 0.9 0.5 1.2 0.1-0.2 0.2-0.1 0.4-0.1 0.6 0.2-0.8 0.6-0.8 0.7-0.5l-0.1 0.5 0.3-0.5c0 0.2-0.2 1 0.1 0.7q0.1-0.3 0.2-0.5c0.1 0.4 0.2 1.2 0.6 0.9l0.4-0.6c0.1 0.1 0.1 0.5-0.1 0.7 0.5-0.3 0.8-0.3 1.2-0.8 0.2 1.6 1.2 2.1 2 2.3l0.1-0.4c0.4-0.2-0.1 0.6 0.2 0.5 0-0.4 0.4-0.6 0.4-1.1 0.4-0.2 0.1 0.7 0.3 1-0.2 0.4-0.1-0.4-0.2 0.2-0.1 0.1 0.5-0.2 0.3 0.5 0.2-0.2 0.3-0.7 0.4-1v0.4c0.6-0.7 0.1-1.6 0.7-2.4l0.1 0.2c0.5-0.7-0.2-1 0.4-1.1 0.1 0.4-0.2 1.5-0.4 1.7 0.3 0.3-0.5 1.6 0 1.7 0.2-0.3-0.3-0.2 0-0.7 0.4-0.5 0.2 0.4 0.5 0.3-0.3 0.2-0.4 0.9-0.3 1.1 0.3-0.2 0.1-0.7 0.4-0.6-0.1 0.4 0.1 0.8-0.3 0.9-0.2 0.9 0.4-0.1 0.3 0.6 0.4-0.5 0.3-1.5 0.8-1.6-0.3 0.5 0 0.9-0.5 1.7 0.2-0.1 0.4-0.5 0.5-0.9 0.3-0.3-0.1 1.2 0.5 0.1l-0.2 0.6c0.2-0.1 0.3-0.2 0.5-0.5 0.2 0.1 0.2 1 0.6 0.1 0 0.1 0.4 0.3 0 0.8-0.4 0.3-0.1-0.5-0.6 0.2 0.5-0.6 0.3 0.2 0.3 0.5l0.2-0.3c0 0.2 0.2 0.2 0.1 0.6 0-0.3 0.2-0.5 0.3-0.5l-0.2 0.5c0.2 0.4 0.5-0.8 0.8-0.5l-0.1-0.5c0 0.1 0.4-0.4 0.4-0.1-0.1 0.5-0.3 1.1-0.4 1.5 0.1 0.2 0.3-0.5 0.3 0v-0.6c0-0.2 0.5-0.7 0.8-0.6 0 0.3-0.1 1-0.4 1.2 0.1 0 0.4-0.2 0.5-0.6 0.1 0.3-0.3 0.5-0.2 0.9 0.2-0.2 0.7-0.5 1.1-0.9l0.2-0.9 0.1 0.1c0.1-0.7 0.4-0.4 0.6-1.1 0.2-0.1 0.2 0.2 0.2 0.5-0.8 0.8-0.4 1.6-1 2.4 0.3 0.5 1.5-2.1 1.2-0.4-0.2 0.2-0.4 1-0.5 0.6 0.3 0.1-0.3 1.1 0.2 0.8 0-0.5 0.7-0.8 0.7-1.5-0.1 0.3-0.3 0.1-0.3 0 0.3-0.3 0.5-0.9 0.8-0.8 0.1 0.2 0.3 0.3 0 0.8-0.3 0.5-0.2-0.2-0.4 0.4 0.2 0.4 0.7-0.4 0.3 0.6-0.1-0.2-0.5 0.3-0.7 0.7l0.1 0.4 0.2-0.4c0.5-0.1-0.3 0.7 0.2 0.8l0.5-0.6c0.3-0.6-0.7 0-0.1-1 0.3 0.1 0.1 0.7 0.5 0.5l-0.1-0.3c0.1 0.1 0.9-1.2 0.9-0.2 0 0.4-0.2 0.4-0.4 0.7 0.3 0.4 0.2 0.8 0.5 1 0.3-0.8 0.4 0.2 0.6-0.7-0.4 0.3-0.9 0-0.7-0.8 0.7-0.7-0.3 0 0.1-0.9 0.3 0.1 0.7-0.7 1.1-1.2 0.1 0 0.1 0.3 0.1 0.4-0.3 0.5-0.4 0.4-0.7 1 0.4 0 0.6 0.5 0.5 1.1 0.3-0.2 0.5-0.7 0.4-0.8 0.4 0.4 0.8 0.6 1.3 0.7-0.7 0.6 0.3 0.4-0.2 1-0.4 0.1-0.9 0.5-1 1 0.1 0 0.2-0.4 0.4-0.5-0.2 0.5 0.7-0.6 0.4 0.2-0.2-0.5 0.5-1 0.9-1.7 0 0.5 0.2-0.5 0.5-0.3 0.1 0.5 0.2 1 0.4 1.3 0.8-0.3 1 0.7 1.3 0.9 0.4-0.2 0.7-1 1-1 0.2 0.2-0.7 0.7-0.1 0.6v-0.2c0 0.2 1 0 0.4 1l0.4-0.8c0.1 0 0 0.2 0 0.3 0.2-0.2 0.4-0.4 0.4-0.6 0.6-0.4 0.4 0.3 0.6 0.5l-0.4 0.4c0.1 0.6 0.6 0.3 0.9 0.7l0.3-0.4v0.4c0.3-0.4 0.7-0.6 0.5-0.1l0.2-1.5c-0.3 0.1-0.2 0.7-0.6 1-0.3 0.3-0.6-0.1-0.3-0.5 0.1 0 0.1 0.1 0 0.4 0.5-0.6 0.3-0.7 0.5-1.2 0.1 0.1 0.3 0 0.2 0.2 0-0.4-0.1-0.6-0.3-0.7 0 0.3-0.3 0.3-0.4 0.5 0.4-0.6 0.3-0.9-0.1-0.9-0.6 0.5-0.3-0.8-0.7-0.8-0.2 0.6-0.4 1.1-0.3 1.5-0.4 0.1-0.3-0.2-0.6 0 0.1-0.5 0.5-1.2 0.4-1.6l-0.3 0.4c-0.1-0.4 0.3-1-0.1-1.1-0.6-0.1-1.2-0.5-1.6-0.7l-0.3 0.4c0.3-1-0.6-0.8-0.7-1.4-0.7 0.1-0.9-1.1-1.6-0.5-0.7-0.9-1.4-1.7-2.5-2.1l-0.2 0.7c0.1-0.5-0.3 0.3-0.4 0.1 0.5-0.4 0.1-0.8 0.2-1.2-0.7 0.2-1-0.6-1.2-1.2l-0.3 0.4c0-1-0.8-0.6-1.4-0.7-0.1 0.2-0.4 0.5-0.6 0.4 0.1-0.8-0.1-0.9-0.3-1.5-0.3-0.1-0.8-0.2-1.3 0-0.7-1.6-2.2-1.4-3.1-2.5l-0.3 0.5c-0.8-1.6-2.6-1.2-3.5-2.1l-0.2 1c-0.4 0.2-0.6-0.5-0.3-1.1-0.4 0.1-0.7-0.8-1.2-0.1-0.3 0.1-0.2-0.5-0.5-0.7-0.8 0.1-1 0-1.6-0.4h0.2c0 0.2-0.1 0.6-0.3 0.6-0.1-0.3-0.9 0.1-0.4-1-0.8 0.5-1.4-1-2.3-0.2 0.1-0.3-0.1-0.4-0.1-0.7-0.6-0.1-1.4 0.4-1.8-0.3-0.1 0.2 0.1 0.6-0.2 0.6-0.1-0.2 0.1-0.4 0-0.7-0.9-0.7-2.2 0.3-3.1 0-1.5-0.9-3.3-0.8-4.8-1v0.2c-0.5-0.9-1.4 0.8-1.7-0.5-0.1 0.2-0.5 0-0.4 0.5-0.4-0.7-1.2 0.5-1.8-0.3q0.1 0 0.2 0.1c-0.7 0.5-1.2-0.2-1.9 0.3 0.1 0.1 0.2 0.2 0.2 0.4-0.2 0.5-0.6-1-0.7 0.2-0.1 0-0.1-0.6 0-0.6-1.4 0.4-3-0.1-4.5-0.3-1 0.8 0.1 1.9-0.8 1.1 0 0.3-0.1-0.4-0.1-0.1-0.3-0.3-0.3 1.3-0.6 0.7 0-0.7-0.2-0.3-0.3-0.8-0.5 0.6-0.6 1.2-1.2 0.8l0.1 0.3c-0.7-0.9-1.3-0.3-2-1.4-3.3 0.5-6.7 0.6-9.9 1.6-3 1.4-6.1 2.2-8.7 4.4-0.2 1.2-0.3 1.2-1.2 1.3 0.1 0.1 0.2 0.1 0.2 0.3-0.5-0.7-0.6 0.2-1-0.4-1 0.7-2 1.2-3.1 1.9 0.2-0.1 0.7 0.4 0.5 0.5l-0.5-0.3 0.1 0.2c-0.2 0-0.6-0.2-0.6-0.5-3 1.2-4.5 4.4-6.8 6.2-0.4 0.8-1.3 1.2-2 1.6-1 2.4-1.7 4.4-3.9 5.6 0 0 1.7 1.1 2.7 0.8z"/><path class="d" d="m246 36.3c-0.3 0.3-0.7 0.3-0.8 0.8 0.2-0.2 0.6-0.5 0.8-0.8z"/><path class="d" d="m238.1 35.8c0.1-0.1-0.1 0.1-0.2 0.1 0.1 0.1 0 0.4 0.1 0.3 0-0.1 0.1-0.2 0.1-0.4z"/><path class="d" d="m236.6 35.1c-0.2 0.3 0 0.8 0.1 0.9z"/><path class="d" d="m234.5 35.6q-0.4 0.3-0.1 0.4c0.1-0.1 0.1-0.2 0.1-0.4z"/><path class="d" d="m234.8 34.8c-0.1 0-0.3 0.1-0.4 0.3 0.1-0.3 0.2 0.3 0.4-0.3z"/><path class="d" d="m231.4 34.1c-0.1 0-0.1-0.4-0.3-0.1 0.2-0.2 0.1 0.6 0.3 0.1z"/><path class="d" d="m230.2 33c0 0-0.1 0-0.1-0.1-0.1 0.1-0.1 0.4-0.1 0.4z"/><path class="d" d="m203.5 24.3l0.1 0.2v-0.4z"/><path class="d" d="m191.1 25.2c-0.2-0.1 0 0.4 0 0.4 0.1 0-0.2-0.4 0-0.4z"/><path class="d" d="m184.1 25.3h0.1l-0.3-0.7z"/></g><path class="b" d="m128.4 96.7c0 0 10.3-13.8 22.3 0 0 0-9.4-19.8-22.3 0z"/><path class="b" d="m85.2 69c0 16.6 7.1 30 15.8 30 8.7 0 15.7-13.4 15.7-30 0-16.6-7-30.1-15.7-30.1-8.7 0-15.8 13.5-15.8 30.1z"/><path class="e" d="m90.6 59.6c0 3.6 2.9 6.4 6.5 6.4 3.5 0 6.4-2.8 6.4-6.4 0-3.5-2.9-6.4-6.4-6.4-3.6 0-6.5 2.9-6.5 6.4z"/><path class="e" d="m93.9 77.9c0 2.7 2.1 4.8 4.8 4.8 2.6 0 4.8-2.1 4.8-4.8 0-2.6-2.2-4.8-4.8-4.8-2.7 0-4.8 2.2-4.8 4.8z"/><path class="e" d="m103.5 69c0 1.4 1.2 2.6 2.6 2.6 1.5 0 2.7-1.2 2.7-2.6 0-1.5-1.2-2.7-2.7-2.7-1.4 0-2.6 1.2-2.6 2.7z"/><path class="b" d="m114.4 103.8c0 0-10.2-9.2-26.9 0 0 0 13.3-15.9 26.9 0z"/><path class="b" d="m193.9 69c0 16.6-7.1 30-15.8 30-8.7 0-15.8-13.4-15.8-30 0-16.6 7.1-30.1 15.8-30.1 8.7 0 15.8 13.5 15.8 30.1z"/><path class="e" d="m188.4 59.6c0 3.6-2.8 6.4-6.4 6.4-3.5 0-6.4-2.8-6.4-6.4 0-3.5 2.9-6.4 6.4-6.4 3.6 0 6.4 2.9 6.4 6.4z"/><path class="e" d="m185.2 77.9c0 2.7-2.2 4.8-4.8 4.8-2.7 0-4.8-2.1-4.8-4.8 0-2.6 2.1-4.8 4.8-4.8 2.6 0 4.8 2.2 4.8 4.8z"/><path class="e" d="m175.6 69c0 1.4-1.2 2.6-2.7 2.6-1.4 0-2.6-1.2-2.6-2.6 0-1.5 1.2-2.7 2.6-2.7 1.5 0 2.7 1.2 2.7 2.7z"/><path class="b" d="m164.6 103.8c0 0 10.2-9.2 26.9 0 0 0-13.2-15.9-26.9 0z"/><path class="b" d="m145.6 150.3c-2.9 0-5-0.1-5.6-0.2-3.1 0.2-42.3 1.6-53.8-14.7-3.9-5.5 1.5-19.4 1.5-19.4 0 0-0.3 12.4 2.6 16.6 10.1 14.3 49.2 12.6 49.6 12.5h0.1 0.2c0.3 0.1 37.6 2.1 48.4-12.1 3.3-4.3 3.9-17 3.9-17 0 0 4.4 14.4 0.1 20-9.7 12.8-35.4 14.3-47 14.3z"/><path class="b" d="m80.3 120.3c0 0 6.7-3.7 14 0 0 0-6.4-9.9-14 0z"/><path class="b" d="m199 120.3c0 0-6.7-3.7-14 0 0 0 6.4-9.9 14 0z"/><g style="opacity:.5"><path class="f" d="m228.4 104.3c-0.3 0.4 0.1-0.1 0.2 0.2 0.1-0.1 0-0.2-0.2-0.2z"/><path class="f" d="m199.1 107.2q0 0 0 0-0.1-0.1-0.1-0.2 0 0.1 0.1 0.2z"/><path class="f" d="m228.2 106q0 0 0 0.1 0-0.1 0-0.1z"/><path class="f" d="m208.9 118.9q0 0 0-0.1-0.1 0-0.2 0z"/><path fill-rule="evenodd" class="f" d="m228.3 107.1c-0.5 0.1 0.2 0.6-0.1 1-0.3-0.3-0.6-0.5-0.7-0.8-0.2 0.1-0.2 0.2-0.2 0.3q0 0.1-0.1 0.2c0.3 0.1 0.7 0.3 0.8 0.6l-0.3-0.1c0.1 0.3 0.5 0.5 0.3 0.8-0.3 0.5-0.5 1-0.8 1.3l-0.3-0.1c0.5 0.5-0.1 0.8 0 1.3-0.5 0.3-0.4 1.2-1 1.1-0.5 0.8-0.7 1.8-1.7 2.3l-0.2-0.4c0.1 0.4-0.2-0.1-0.3 0 0.4 0.2 0.1 0.5 0.2 0.8-0.6 0.1-0.8 0.7-0.9 1.3l-0.2-0.3c0 0.7-0.8 0.5-1.3 0.7-0.1-0.1-0.3-0.3-0.4-0.2 0 0.6-0.2 0.6-0.4 1.1-0.3 0.2-0.8 0.2-1.2 0.1-0.9 1-2.1 1-3.3 1.5l-0.1-0.4c-1.1 1-2.6 0.2-3.7 0.4l0.2-0.6c-0.3-0.2-0.7 0.1-0.7 0.6-0.3-0.2-0.9 0.2-1-0.4-0.2-0.2-0.4 0.1-0.7 0.1-0.5-0.4-0.8-0.4-1.3-0.5 0.1-0.1 0.2-0.3 0.1-0.4-0.3 0.2-0.7-0.4-0.8 0.4-0.4-0.7-1.6-0.5-1.9-1.3-0.1 0.2-0.2 0.2-0.4 0.2-0.5-0.2-0.7-1-1.3-1 0-0.2 0.3-0.2 0.2-0.4-0.2 0-0.2 0.2-0.4 0.2-1.1-0.3-1.2-1.6-1.8-2.2-1.4-0.9-2-2.5-2.7-3.8h0.1c-0.7-0.3 0.2-1.3-0.7-1.4 0.1-0.2-0.1-0.5 0.2-0.5-0.4-0.2-0.1-1-0.4-1.4 0.2-0.7-0.3-1.1 0-1.7 0 0 0.1 0.1 0.3 0.1 0.2-0.2-0.7-0.5 0-0.6 0-0.1-0.3-0.1-0.4-0.1 0.2-1.2 0-2.7 0-4.1 0.7-0.8 1.2 0.3 0.9-0.6 0.2 0-0.2-0.1-0.1-0.1-0.1-0.3 0.9-0.2 0.6-0.5-0.4-0.1-0.2-0.2-0.4-0.3 0.4-0.5 0.8-0.4 0.7-1l0.2 0.1c-0.4-0.7 0.2-1.1-0.2-1.9 1.4-2.8 3.4-5.4 6.2-6.9 2.8-1.3 6-2.3 9.1-1.5 0.7 0.7 0.7 0.7 1.6 0.5-0.1 0.1-0.1 0.1-0.1 0.2 0.1-0.5 0.5 0.1 0.7-0.4 1.1 0.5 2.2 0.5 3.3 1.1-0.2 0-0.5 0.3-0.3 0.4l0.4-0.2v0.2c0.1 0 0.4-0.2 0.3-0.4 3.1 1 4.6 4 6.3 6.3 0.1 0.7 0.7 1.5 1.2 2.1 0.2 2.4 0 4.2 0.5 6.4 0 0-1.3-0.3-1.7-1.1-0.4-0.3-0.5-0.6-0.6-0.9q0.1 0.9 0.1 2 0 0.5 0 1l0.5 0.4c-0.1 0.2-0.3-0.1-0.5-0.1q-0.1 0.1-0.1 0.3c0.3 0 0.3 0.2 0.6 0.3 0-0.1 0-0.1 0-0.1 0.2 0.1 0.2 0.2 0.2 0.5-0.1-0.2-0.3 0-0.4-0.1 0.4 0.1 0.5 0.4 0.3 0.6zm-0.8-5.2c-0.1-0.5-0.1-1.1-0.4-1.5q0.3 0.7 0.4 1.5zm-28.5 3.1q0 0 0-0.1 0 0.1 0 0.1zm28.6-2.7q-0.1-0.2-0.1-0.4 0 0.2 0.1 0.4zm-22.3-7.6q0 0 0 0 0 0 0 0 0 0 0 0zm21.5 4.6q0.1 0.3 0.2 0.6c0.1 0 0.3-0.1 0.2-0.2q-0.3-0.2-0.4-0.4zm-3.9-5.3c0-0.1 0.1-0.1 0.2-0.2q-0.5-0.1-0.8-0.2c1.4 1 2.6 2.4 3.6 3.9-0.2-0.5-0.3-1-0.4-1.6h0.2c0-0.3-0.7-0.2-0.8-0.4 0.1-0.1 0.2-0.1 0.3-0.2-0.3 0.2-0.5-0.3-0.7-0.2 0-0.2 0.2-0.4 0.3-0.6l-0.4 0.2c-1 0.4-0.8-0.7-1.5-0.7zm-2.6-1.6q0 0 0.1 0 0-0.1 0-0.2 0 0.1-0.1 0.2zm-3.2-1.1q-0.1 0-0.1 0 0 0 0.1 0 0 0 0 0zm-4.2-0.2q0 0-0.1 0.1 0.1 0 0.1-0.1 0 0 0 0zm-0.9 0.2q0 0 0.1 0-0.1-0.1-0.1 0zm-0.3-0.1q0 0.1-0.1 0.2 0.1 0 0.1-0.1 0 0 0-0.1zm-1.5 0.6q0.1-0.1 0.2-0.1v-0.1c-0.2 0-0.2 0-0.2 0.2zm-2.6 1.1q0.1 0 0.1 0.1 0.1-0.1 0.1-0.2 0 0-0.2 0.1zm-1.9 0.9q0.1 0.2 0.1 0.5 0.4-0.3 0.7-0.6 0 0 0 0l-0.3-0.2c-0.2-0.2 0.2 0-0.1-0.2 0 0.1-0.2 0.5-0.4 0.5zm21.8 13q0 0.1-0.1 0.2 0.1-0.1 0.1-0.2z"/><path class="f" d="m227.8 105c0.3 0.1 0.5-0.1 0.8-0.1-0.3-0.1-0.5 0.1-0.8 0.1z"/></g><g style="opacity:.5"><path class="f" d="m79 104.3c-0.3 0.4 0-0.1 0.1 0.2 0.2-0.1 0-0.2-0.1-0.2z"/><path class="f" d="m49.6 107.2q0 0 0 0 0-0.1-0.1-0.2 0 0.1 0.1 0.2z"/><path class="f" d="m78.7 106q0.1 0 0.1 0.1 0-0.1-0.1-0.1z"/><path class="f" d="m59.4 118.9q0.1 0 0.1-0.1-0.1 0-0.2 0z"/><path fill-rule="evenodd" class="f" d="m78.9 107.1c-0.5 0.1 0.1 0.6-0.1 1-0.4-0.3-0.7-0.5-0.8-0.8-0.1 0.1-0.1 0.2-0.1 0.3q-0.1 0.1-0.1 0.2c0.3 0.1 0.7 0.3 0.7 0.6l-0.3-0.1c0.1 0.3 0.6 0.5 0.4 0.8-0.3 0.5-0.5 1-0.8 1.3l-0.3-0.1c0.5 0.5-0.2 0.8 0 1.3-0.5 0.3-0.4 1.2-1.1 1.1-0.4 0.8-0.7 1.8-1.6 2.3l-0.2-0.4c0.1 0.4-0.3-0.1-0.3 0 0.4 0.2 0.1 0.5 0.2 0.8-0.6 0.1-0.8 0.7-1 1.3l-0.2-0.3c0 0.7-0.7 0.5-1.2 0.7-0.1-0.1-0.4-0.3-0.5-0.2 0 0.6-0.1 0.6-0.4 1.1-0.2 0.2-0.8 0.2-1.1 0.1-0.9 1-2.2 1-3.3 1.5l-0.1-0.4c-1.2 1-2.7 0.2-3.7 0.4l0.2-0.6c-0.3-0.2-0.8 0.1-0.8 0.6-0.2-0.2-0.8 0.2-0.9-0.4-0.3-0.2-0.4 0.1-0.7 0.1-0.6-0.4-0.8-0.4-1.3-0.5 0.1-0.1 0.1-0.3 0-0.4-0.3 0.2-0.7-0.4-0.8 0.4-0.4-0.7-1.6-0.5-1.8-1.3-0.1 0.2-0.3 0.2-0.4 0.2-0.6-0.2-0.7-1-1.3-1 0-0.2 0.3-0.2 0.1-0.4-0.1 0-0.1 0.2-0.4 0.2-1-0.3-1.2-1.6-1.7-2.2-1.4-0.9-2-2.5-2.8-3.8h0.2c-0.7-0.3 0.2-1.3-0.8-1.4 0.1-0.2 0-0.5 0.3-0.5-0.5-0.2-0.1-1-0.5-1.4 0.3-0.7-0.2-1.1 0-1.7 0.1 0 0.2 0.1 0.3 0.1 0.3-0.2-0.7-0.5 0-0.6 0-0.1-0.3-0.1-0.3-0.1 0.2-1.2-0.1-2.7 0-4.1 0.7-0.8 1.2 0.3 0.9-0.6 0.1 0-0.3-0.1-0.1-0.1-0.1-0.3 0.9-0.2 0.6-0.5-0.5-0.1-0.2-0.2-0.5-0.3 0.5-0.5 0.9-0.4 0.7-1l0.3 0.1c-0.4-0.7 0.2-1.1-0.2-1.9 1.4-2.8 3.3-5.4 6.2-6.9 2.8-1.3 5.9-2.3 9.1-1.5 0.7 0.7 0.7 0.7 1.5 0.5 0 0.1-0.1 0.1-0.1 0.2 0.2-0.5 0.6 0.1 0.8-0.4 1.1 0.5 2.2 0.5 3.2 1.1-0.2 0-0.4 0.3-0.2 0.4l0.3-0.2v0.2c0.2 0 0.4-0.2 0.4-0.4 3.1 1 4.6 4 6.2 6.3 0.2 0.7 0.8 1.5 1.3 2.1 0.2 2.4-0.1 4.2 0.5 6.4 0 0-1.3-0.3-1.7-1.1-0.4-0.3-0.6-0.6-0.7-0.9q0.2 0.9 0.2 2 0 0.5-0.1 1l0.6 0.4c-0.2 0.2-0.3-0.1-0.6-0.1q0 0.1 0 0.3c0.3 0 0.3 0.2 0.5 0.3 0-0.1 0.1-0.1 0.1-0.1 0.2 0.1 0.2 0.2 0.2 0.5-0.2-0.2-0.3 0-0.4-0.1 0.3 0.1 0.4 0.4 0.3 0.6zm-0.8-5.2c-0.1-0.5-0.1-1.1-0.4-1.5q0.2 0.7 0.4 1.5zm-28.5 3.1q0 0 0-0.1 0 0.1 0 0.1zm28.5-2.7q0-0.2 0-0.4 0 0.2 0 0.4zm-22.2-7.6q0 0 0 0 0 0 0 0 0 0 0 0zm21.4 4.6q0.1 0.3 0.2 0.6c0.2 0 0.4-0.1 0.3-0.2q-0.3-0.2-0.5-0.4zm-3.9-5.3c0.1-0.1 0.2-0.1 0.2-0.2q-0.4-0.1-0.8-0.2c1.5 1 2.7 2.4 3.6 3.9-0.1-0.5-0.2-1-0.3-1.6h0.2c-0.1-0.3-0.7-0.2-0.8-0.4 0.1-0.1 0.2-0.1 0.2-0.2-0.3 0.2-0.4-0.3-0.7-0.2 0.1-0.2 0.3-0.4 0.3-0.6l-0.4 0.2c-1 0.4-0.7-0.7-1.5-0.7zm-2.5-1.6q0 0 0 0 0.1-0.1 0.1-0.2-0.1 0.1-0.1 0.2zm-3.3-1.1q0 0-0.1 0 0.1 0 0.1 0 0 0 0 0zm-4.2-0.2q0 0 0 0.1 0 0 0-0.1 0 0 0 0zm-0.8 0.2q0 0 0.1 0-0.1-0.1-0.1 0zm-0.4-0.1q0 0.1 0 0.2 0 0 0.1-0.1 0 0-0.1-0.1zm-1.5 0.6q0.1-0.1 0.2-0.1v-0.1c-0.2 0-0.2 0-0.2 0.2zm-2.5 1.1q0 0 0 0.1 0.1-0.1 0.2-0.2-0.1 0-0.2 0.1zm-1.9 0.9q0 0.2 0.1 0.5 0.3-0.3 0.7-0.6 0 0 0 0l-0.4-0.2c-0.1-0.2 0.2 0 0-0.2-0.1 0.1-0.3 0.5-0.4 0.5zm21.7 13q0 0.1 0 0.2 0.1-0.1 0-0.2z"/><path class="f" d="m78.4 105c0.3 0.1 0.5-0.1 0.7-0.1-0.2-0.1-0.5 0.1-0.7 0.1z"/></g></svg>