<svg version="1.2" xmlns="http://www.w3.org/2000/svg" viewBox="0 0 420 416" width="420" height="416"><style>.a{fill:#fff}.b{fill:#6e72ff}.c{fill:#e36352}.d{fill:#f7ede5}.e{fill:#ffc063}.f{fill:#412945}.g{fill:#de8157}.h{fill:#b5e1e8}</style><path class="a" d="m211 410.4c-73.4 0-141.4-39.8-177.3-103.8-16.9-30.2-25.9-64.5-25.9-99.3 0-19.3 2.8-38.5 8.2-57 18.5-63.3 66.8-113.9 129.3-135.2 21.1-7.2 43.2-10.9 65.7-10.9 16.4 0 32.7 2 48.5 5.9 32.1 7.9 62.1 23.7 86.8 45.8 24.5 21.9 43.6 49.8 55 80.5 8.5 22.6 12.8 46.5 12.8 70.9 0 26.9-5.2 53-15.4 77.7-15.2 36.7-40.6 67.9-73.6 90.3-33.7 23-73.2 35.1-114.1 35.1z"/><path class="b" d="m341.8 214.7c0 28.8 58.2 48.8 47 73.4-6.5 14.4-14.7 27.8-24.4 40-4.4 5.6-19.5-6-24.4-0.9-23.6 24-99.3 73.2-99.9 73.3q-14.3 2.1-29.1 2.1c-22.8 0-44.7-3.9-65-11-75.9-26.8-91.4-104.4-91.4-189.5 0-18-36.5-30.2-31.9-46.8 3.4-12.3 8-24.2 13.6-35.4 32.1-64 90.4-39.2 166.8-39.2 11.6 0 30.8-67.6 41.9-65.7 54.8 9.6 101.8 42.2 130.7 87.4 19.3 30.3-33.9 73.6-33.9 112.3z"/><path class="c" d="m159.8 342c0 11.5-1.4 23.1-5.5 33.9-2.1 5.6-4.9 10.8-8.3 15.7-75.9-26.8-130.3-99.2-130.3-184.3 0-18 2.4-35.4 7-52 13.4 2.4 26.1 9.1 35.3 19.2 14.9 16.4 19.9 40.9 12.8 61.8 25.6-0.5 50.5 13.2 66.3 33.5 15.7 20.3 22.8 46.5 22.7 72.2z"/><path class="c" d="m240.7 60.9c-5.5 10.8-14.5 19.4-25 25.2-5.7 3.2-11.6 5.2-17.8 6.9-7.5 2-15.1 3.9-22.8 4.8-12.2 1.5-24.6-0.3-36.1-4.5-4.6 9-5 10-9.5 19-2.9 5.6-5.8 11.3-10.3 15.5-4.5 4.2-10.3 6.8-16.3 8.4-14.6 4.1-30.5 2.5-44.5-3.5-7.2-3.1-15.2-7.4-22.1-12.8 32.1-64 98.3-107.8 174.7-107.8 11.6 0 22.9 1 34 2.9 4.5 15 2.8 31.8-4.3 45.9z"/><path class="c" d="m406.2 207.3c0 28.9-6.2 56.2-17.4 80.8q-2.4 1.1-4.9 1.9c-14.7 4.8-31.1 2.6-44.9-4.3-18.2-9-32.6-26.8-34.7-47-2.1-20.2 9.8-41.8 29-48.4-9.3-21.4-7.6-48 6.5-66.6 8.7-11.4 21.9-18.5 35.9-21.3 19.3 30.3 30.5 66.3 30.5 104.9z"/><path class="d" d="m364.2 184l27.5-13-16 25.8 17.6 18.9-23.3-3.2-10.9 22.2-1.3-30.1-25-5.1 19.6-8.5-7.1-28z"/><path class="d" d="m61.9 215l14.4-26.7 2.4 30.3 25.3 4.9-20.7 11.1 4.3 24.4-18.8-23.5-27.6 13.3 15.2-21.2-22.2-18.3z"/><path class="d" d="m201.1 44.7l14.4-26.7 2.4 30.2 25.4 4.9-20.8 11.2 4.3 24.4-18.8-23.5-27.6 13.3 15.2-21.2-22.2-18.4z"/><path fill-rule="evenodd" class="e" d="m343.9 223.1c-1.6 13.1-10.8 25.4-23.6 31.3-5.9 2.7-12.5 4.1-19.2 4.1-6.7 0-13.5-1.4-19.9-4-4.8-2.1-9.3-4.8-13.6-7.4-2.9-1.8-5.9-3.6-8.9-5.1q-5.6-2.9-10.5-3.9c-18.4 11.5-39.1 16.8-59.3 5.9l-47.2 77.3 22.5 46.9-92-59.7 55.9 5.4 53-74.8c-21.7-15.7-25.8-38.4-22.1-60.9q-2.8-5.9-9.2-11.8c-2.5-2.3-5.3-4.5-7.9-6.6-4-3.1-8.1-6.3-11.7-10.2-9.5-10-14.6-23.7-13.6-36.7 1-13.9 9.3-26.9 21.1-33 12.7-6.5 28.7-4.7 38.9 4.5 6.3 5.7 9.8 13.3 13.2 20.7q0.4 0.8 0.8 1.6c3.2-4.8 5.3-7.5 5.3-7.5 0 0 23.1-7.3 53.1 4.5-2.1-4.9-3.2-10.3-3.2-16 0-22.7 18.4-41.2 41.2-41.2 22.8 0 41.3 18.5 41.3 41.2 0 22.8-18.5 41.3-41.3 41.3q-0.3 0-0.7 0c19.3 21 22.6 43.9 22.6 43.9 0 0-2.4 4-6.7 10.1 8.1 0.6 16.4 1.3 23.9 5.2 12.2 6.3 19.5 20.7 17.8 34.9zm-157.8-109.6q-1.4-2.8-2.7-5.5c-3.2-7-6.3-13.7-11.5-18.4-8-7.2-21-8.6-31-3.4-9.7 5-16.5 15.7-17.3 27.3-0.9 10.9 3.5 22.7 11.7 31.3 3.2 3.5 7 6.4 10.9 9.5 2.8 2.2 5.6 4.4 8.3 6.9q3.8 3.5 6.6 7c5.5-21.4 16.7-41.7 25-54.7zm136.8 80.9c-6.3-3.3-13.6-3.8-21.3-4.4q-2.1-0.1-4.2-0.3c-9.6 12.8-24.4 30.4-41.8 43.3q3.1 1.1 6.3 2.7c3.2 1.7 6.3 3.6 9.3 5.4 4.3 2.6 8.4 5.1 12.7 6.9 11 4.6 23.5 4.6 33.5 0 10.6-4.8 18.2-15 19.5-25.8 1.3-11.2-4.6-22.9-14-27.8z"/><path class="d" d="m283.3 176.4c-2.8 3.1-5.3 6.5-7.6 10.1-0.9 1.5-1.8 3.1-1.7 4.9 0.1 1.6 1.1 3 2.2 4.3 1.4 1.5 3.2 2.9 5.2 2.5 1-0.2 1.8-0.8 2.5-1.4 5.4-4.2 13.4-10.5 13.7-18 0.1-3-1.7-5.1-4.5-6-4-1.4-7.1 0.7-9.8 3.6z"/><path class="d" d="m271.3 208.8c-2.3 1.9-5.6 1.5-7.5-0.8-1.8-2.3-1.4-5.7 0.9-7.5 2.3-1.8 5.7-1.4 7.5 0.9 1.8 2.3 1.4 5.6-0.9 7.4z"/><path class="d" d="m316.4 79.2q0.1 0.4 0.2 0.7c0 0.4-0.1-0.2 0 0.2q0.1 0.6 0.1 1.2 0 1.1-0.1 2.2 0 0.2 0 0.5 0 0.3 0 0 0 0.2-0.1 0.3 0 0.5-0.2 1.1-0.2 1.1-0.7 2.2c-0.3 0.9 0.4 2 1.2 2.2 1.1 0.2 1.9-0.3 2.2-1.2 1.3-3.3 1.5-6.9 0.8-10.3-0.2-0.9-1.3-1.5-2.1-1.2-1 0.3-1.5 1.2-1.3 2.1z"/><path class="d" d="m313.3 95c-0.2 2.4-1.7 4.6-2.8 6.7-1.2 2.1-2.5 4.1-4.4 5.8-0.7 0.6-0.6 1.8 0 2.4 0.7 0.7 1.8 0.7 2.5 0 2.1-1.8 3.6-4.2 5-6.7 1.5-2.5 3-5.1 3.2-8.2 0-0.9-0.9-1.7-1.8-1.7-1 0-1.7 0.8-1.7 1.7z"/><path fill-rule="evenodd" class="f" d="m309.8 173.5c-0.2 0.3-0.6 0.5-0.9 0.5q-0.3 0-0.6-0.2l-30.5-19.9c-1.2 3.4-8.1 22.7-21.2 42.5-12.9 19.5-34.6 43.5-65.1 48.3 0.1 0.3 0.1 0.6-0.1 0.8-0.2 0.4-0.5 0.6-0.9 0.6q-0.2 0-0.5-0.2l-11.3-6.4c-0.5-0.3-0.7-0.9-0.4-1.5 0.3-0.5 0.9-0.6 1.5-0.3-1.3-7.8-6.1-41.8 4.4-67.5 10.7-26.5 30.9-50.8 34.4-54.9l-23.3-15.2c-0.5-0.3-0.6-1-0.3-1.5 0.3-0.4 1-0.6 1.5-0.3l113 73.7c0.5 0.4 0.6 1 0.3 1.5zm-33.8-20.8l-55.6-36.3c-2.9 3.4-23.4 27.9-34.3 54.6-11.6 28.4-4 67.5-4 67.9q0.1 0.1 0.1 0.1l6.8 3.9c30.9-3.8 52.9-28 65.9-47.7 14.1-21.4 21-42.1 21.1-42.5z"/><path fill-rule="evenodd" class="f" d="m287 125.4c-20.7 0-37.6-16.9-37.6-37.7 0-20.7 16.9-37.6 37.6-37.6 20.8 0 37.7 16.9 37.7 37.6 0 20.8-16.9 37.7-37.7 37.7zm0-73.9c-20 0-36.2 16.2-36.2 36.2 0 20 16.2 36.3 36.2 36.3 20 0 36.3-16.3 36.3-36.3 0-20-16.3-36.2-36.3-36.2z"/><path class="f" d="m273.4 103.1l17.9-27.7-6-3.8 2.6-4.1q3.6 2.3 5.8 2.4 2.3 0.1 5-1.9l3.8 2.5-23.3 36.3z"/><path class="g" d="m295.1 325.5c0 0-61.4-41.4-78.8-50.3-17.3-8.9-57.3-51.8-62.8-48.5-5.6 3.4-2.6 18.2-2.6 18.2 0 0-12.6 1.8-10.4 12.5 0 0-11.6-0.6-11.5 11.1 0 0-15.1 3-9.9 16.7 0 0-7.8 3.3-2.3 15.5 5.6 12.2 20.4 22.6 27.8 17 0 0 15.5 20.4 27 20.4 11.4 0 15.5-2.6 15.5-2.6l63.6 45.1z"/><path fill-rule="evenodd" class="f" d="m172.4 271.7c-0.1 0.1-7.7 10.6-7.5 26.1 0.3 15.6 1.9 21.9 1.9 22 0.1 0.5-0.2 1.1-0.7 1.3q-0.2 0-0.3 0c-0.5 0-0.9-0.3-1-0.8-0.1-0.2-1.7-6.5-2-22.5q0 0 0-0.1c-1 0.5-2.2 0.8-3.6 0.8-1.1 0-2.2-0.2-3.5-0.4 2.3 3.6 1.2 7-0.1 9.9-0.6 1.3-1.9 2.2-4 2.7q-0.3 0.1-0.7 0.1 0 0.1-0.1 0.1c-0.8 3.7-2.5 6.3-5.1 7.7-1.5 0.8-3.2 1.2-5 1.2-3.1 0-6.4-1-9.2-2-6.5-2.4-14.9-10.6-17.3-19.8-2.5-9.7 3.5-12.6 3.8-12.7q0.1 0 0.3-0.1c-0.8-3.2-0.9-6.2-0.4-8.7 1.6-7.7 9.3-8.7 9.4-8.7q0.4-0.1 0.7 0.1c0-3.6 1-6.5 3-8.6 3.3-3.3 7.9-3.2 8.1-3.2q0.2 0.1 0.3 0.1c0.1-11.2 9.4-12.1 9.5-12.1q0.4 0 0.7 0.2c-3.2-10.2 2.8-17.9 3-18.2 0.4-0.5 1.1-0.6 1.5-0.2 0.5 0.4 0.5 1 0.2 1.5-0.1 0.1-5.8 7.7-2.4 17.1 3.5 9.8 20.2 25.6 20.3 25.8l0.7 0.6zm-23.7 39.4q-0.2 0-0.5 0c-5.3 0-12.6-2.2-18.3-7-5.7-4.8-9.3-11-11.1-16.8-0.6 0.4-4.5 2.8-2.5 10.2 2.3 9 10.8 16.4 16 18.3 4 1.5 9 2.9 12.5 1 1.8-1 3.1-3 3.9-5.7zm4.1-13.8c-3.6-1.1-7.2-2.9-9.5-4.5-9.2-6.5-14.4-14.5-15.2-23.1q-0.2 0.2-0.5 0.2c-0.2 0-6.3 0.9-7.6 7.1-1.3 6.6 2.1 17.8 11.3 25.5 6.5 5.5 15.1 7.3 19.9 6.2 1.3-0.3 2.2-0.9 2.5-1.5 1.6-3.6 2-6.2-0.6-9.2q-0.3-0.3-0.3-0.7zm9.6-1.8q0.2-0.2 0.5-0.2c0.1-3.6 0.6-6.9 1.3-9.8-7.4-1.8-23.4-16-24.6-27.3q-0.3 0.1-0.5 0.1c-0.1 0-4-0.1-6.6 2.6-1.7 1.7-2.5 4.3-2.4 7.6 0.4 8.5 5.2 16.1 14.4 22.5 5.6 4 15.5 6.9 17.9 4.5zm7.8-24.3c-3.2-3-16.6-16.4-20.1-25.6-0.2 0.4-0.5 0.6-0.9 0.7-0.4 0-8.2 0.8-7.6 11.1 0.6 10.8 17.1 24.6 23.2 26.1 1.8-6.3 4.3-10.6 5.4-12.3z"/><path class="h" d="m364.4 328.1q-6.5 8.4-14 15.9c-23.5 24.1-53.2 42-86.5 51.4q-0.1 0-0.2 0c-7.7 2.1-14.9 3.7-21.6 4.8q-1 0.1-2 0.3c-6.8-6-17.2-16.9-14.6-25.8l-20.4-13.5 49.5-70.4 19.3 12.3c0 0 17.8-3.7 25.9 0.6z"/></svg>