<svg version="1.2" xmlns="http://www.w3.org/2000/svg" viewBox="0 0 576 607" width="576" height="607"><style>.a{fill:#6fd8ad;stroke:#000;stroke-linecap:round;stroke-miterlimit:10;stroke-width:1.2}.b{stroke:#000;stroke-miterlimit:10;stroke-width:1.2}.c{fill:#fff}.d{fill:none;stroke:#000;stroke-miterlimit:10;stroke-width:1.2}.e{fill:#fff;stroke:#000;stroke-miterlimit:10;stroke-width:1.2}.f{fill:#ff88b6;stroke:#000;stroke-miterlimit:10;stroke-width:1.2}.g{fill:#6e5afb;stroke:#000;stroke-miterlimit:10;stroke-width:1.2}.h{fill:#ff0d5e;stroke:#000;stroke-miterlimit:10;stroke-width:1.2}.i{fill:#6fd8ad;stroke:#000;stroke-miterlimit:10;stroke-width:1.2}.j{fill:#ffff6e;stroke:#000;stroke-miterlimit:10;stroke-width:1.2}.k{fill:#ecd037;stroke:#000;stroke-miterlimit:10;stroke-width:1.2}.l{opacity:.5;fill:#ff88b6}</style><path class="a" d="m227.3 483.8c0 0 14.1-15.4 13.2 17-0.9 34.7-14.2 12-14.2 12l-3.2 5.1c0 0 27.4 38.9-2.5 51.3-30 12.4-32.9-28.1-32-52.8 0.8-24.7-3.4-51.5 38.7-32.6z"/><path class="b" d="m227.3 483.8c0 0-3.1 5.3-2.8 14"/><path class="b" d="m224.9 507.1c0 0-0.3 1.9 1.4 5.7"/><path  d="m223.1 517.9l-9.9-11.9"/><path  d="m223 517.9c-4.2-2.9-7.7-7.1-9.9-11.8 3.1 3.2 7.3 8.2 9.9 11.8z"/><path  d="m223.1 517.9l-12.7-1.7"/><path  d="m223.1 517.9c-3.7 0.8-7.7 0.3-11.2-0.9-0.3-0.2-1.5-0.5-1.5-0.8 4.1 0.6 8.8 0.8 12.7 1.7z"/><path class="c" d="m229.3 551.6c-1.9 9.3-11.8 15.4-21 13.1-1-0.3-3.1-0.7-3.6-1.3 1.2 0.3 2.5 0.6 3.7 0.7 9.3 1.4 17.4-4.3 20.9-12.5z"/><path class="b" d="m245.8 488.6c22 6 45.3 5.6 68 5.4 19.2-0.3 45.7-2.5 48.3-26.7 1.7-15.2-7.7-32.2-19.1-45.3l25.2-4.7c14 18.7 22.6 41.9 14.3 64.4-8.9 24.3-32.1 33.6-56.3 35.1-29.1 1.7-59.8 1.5-88.1-6.1-14.5-3.9-6.8-25.9 7.7-22.1z"/><path class="b" d="m278.4 434c36.5 29.4 68.2 65 94.2 104.4 8.3 12.5-11.8 24.3-20 11.8-28.6-43.1-63.1-80.4-105.2-110.3z"/><path class="a" d="m360.3 569.2c6 12.4 11.6 19.7 16.8 23.4 14.4 10 26.6-8.2 40.3-23.4 14-15.4 32.5-40.1 26.4-56.1-2.1-5.4-6.9-9.9-15.7-12.6-34.8-11-43.5 48.1-43.5 48.1l-2-2.7c0.6-0.6 2-3.6 2-6.3 0.1-3.3-2.3-6.3-4.7-7.3-5.9-2.2-14.2 7.5-18.7 12.7-4.1 4.8-13.7 16.1-10.2 21.4 0.7 1.1 2.6 3.1 9.3 2.8z"/><path class="d" d="m360.3 569.2c0 0 4.7-2.6 11.8-10.7"/><path class="d" d="m378.9 550.2c0 0 2.2-1.6 4-4.9"/><path class="c" d="m408 510c5.1-7.8 16.8-7.9 22.6-0.9-0.4 0.2-1.9-1.3-2.7-1.6-6.6-4.2-14.5-2.5-19.9 2.5z"/><path class="e" d="m377.3 592.4q0.4 0.7 1.1 1.2c3.1 2.7 8.7 2.1 12.3 0.8 11.2-4.2 19-16.7 26.7-25.2 14-15.4 32-41 26.4-56.1-5.1-13.9-28.4 14.7-33.1 20.5-11.1 13.9-21.9 28.8-30.4 44.4-2.2 4-6.2 9.9-3 14.4z"/><path class="d" d="m441.2 534l-21.2-11.4"/><path class="d" d="m432.4 550.6l-24.7-12.4"/><path class="d" d="m419.8 567.8l-23.6-13.8"/><path class="d" d="m404.6 583.5l-20.6-11.5"/><path class="f" d="m316.7 82.7c19 5.1 35.3 16 49.4 30.9 12.8 4.9 27.7 16.8 44.8 39.8 0 0 97.7 142.9 36.9 193.9 2.7 23.1 3.4 38 3.4 38q-0.6 0.6-1.2 1.2c126.7-47.3-21.6-265.7-21.6-265.7-49.1-70.3-88.4-58.3-111.7-38.1z"/><path class="f" d="m160.5 406.1c-211.5 34.9-91.2-259.8-91.2-259.8 57.2-126.2 144.4-30.4 144.4-30.4l-18.5 30.1c0 0-54.5-69.5-102.5 28.5 0 0-96.9 227.5 67.1 199.8z"/><path class="g" d="m112.8 407l52.2 37.2c-33.9-319.2 84.9-356.5 84.9-356.5 62-22.6 105.1 4.4 135 49.9l0.3-0.4c-73-122.9-198.5-99.6-243.1 2.6-44.5 102.2-29.3 267.2-29.3 267.2z"/><path class="d" d="m170.5 184.6l11.6 15.8q-1.3 1.8-3.2 3.1c-6.2 4.3-14.8 2.7-19.1-3.5-2.2-3.2-2.9-7-2.2-10.5 0.7-3.4 2.6-6.5 5.7-8.6q1.6-1.1 3.3-1.7"/><path class="d" d="m170.5 184.6q-1.2 1.5-2.8 2.6c-3.1 2.2-6.7 2.9-10.1 2.3-3.5-0.6-6.8-2.5-9-5.7-2.3-3.4-3-7.3-2.1-11 0.7-3.2 2.6-6.1 5.5-8.2q1.4-0.9 2.8-1.4"/><path class="d" d="m142.8 146.6h-0.1q-1.1 0.5-2.2 1.3c-3.1 2.1-5.1 5.3-5.7 8.7-0.7 3.5 0 7.3 2.2 10.4 2.3 3.4 5.8 5.4 9.5 5.8 3.2 0.5 6.7-0.3 9.6-2.3q1.4-1 2.5-2.2"/><path class="d" d="m131.1 130.7q-1 0.5-1.9 1.1c-3 2.1-5 5.3-5.6 8.6-0.7 3.5 0 7.3 2.2 10.5 2.2 3.2 5.5 5.1 9 5.7 3.4 0.6 7-0.1 10.1-2.2q1.2-0.8 2.2-1.9"/><path class="d" d="m135.5 136.7q-0.9 0.8-1.8 1.5c-3.1 2.1-6.7 2.8-10.1 2.2-3.6-0.6-6.9-2.5-9.1-5.7-2.3-3.3-2.9-7.3-2.1-10.9 0.8-3.2 2.7-6.2 5.6-8.2q0.7-0.5 1.4-0.9"/><path class="d" d="m107.3 98.3q-0.4 0.2-0.9 0.5c-3 2.1-4.9 5.1-5.6 8.4-0.8 3.6-0.1 7.5 2.1 10.8 2.4 3.3 5.8 5.3 9.5 5.8 3.3 0.4 6.8-0.3 9.7-2.4q0.7-0.5 1.4-1.1"/><path class="d" d="m94.8 81.1q-0.9 0.5-1.8 1.1c-6.2 4.3-7.8 12.9-3.5 19.1 2.7 3.8 7 5.9 11.3 5.9 2.7 0 5.5-0.8 7.9-2.4q1.2-0.8 2.1-1.8l-3.5-4.7z"/><path class="h" d="m187.6 10.9l-95.5 66.5 92.2 126.1 94.8-67.1c2.7-1.9 3.3-5.6 1.4-8.2l-84.7-115.9c-1.9-2.6-5.5-3.2-8.2-1.4z"/><path class="e" d="m211.9 85.5l-47.9 33.9-27.3-38.5 47.9-33.9z"/><path class="c" d="m196.1 24.8c-1.9-2.4-4.5-4.5-7.7-4.6-2.1 0-4.1 0.8-5.9 2-1.1 0.7 0 2.4 1.1 1.7 1.6-1.1 3.5-1.9 5.5-1.6 1.7 0.3 3.1 1.3 4.3 2.5 2.8 2.8 4.5 6.4 6.5 9.7 0.7 1.2 2.4 0.1 1.8-1-1.8-3-3.4-6-5.6-8.7z"/><path class="d" d="m99.1 73.1l93.1 124.5"/><path class="i" d="m39.4 96.1l16.8-24.2 187.5 130.1-16.7 24.2z"/><path class="d" d="m211.5 195.3l-8.7 13.2"/><path class="d" d="m169.5 167.9l-8.7 13.2"/><path class="d" d="m131.5 141.9l-8.7 13.2"/><path class="d" d="m84.3 109.1l-8.8 13.2"/><path class="d" d="m230 153.3l2.5 19.4q-1.9 0.9-4.2 1.2c-7.6 0.8-14.3-4.7-15.1-12.2-0.4-3.9 0.8-7.5 3.1-10.3 2.2-2.6 5.4-4.4 9.1-4.8q1.9-0.2 3.7 0.1"/><path class="d" d="m230 153.3q-1.8 0.8-3.8 1c-3.7 0.4-7.2-0.7-9.9-2.9-2.9-2.2-4.8-5.5-5.2-9.3-0.4-4.1 0.9-7.8 3.4-10.6 2.2-2.5 5.3-4.2 8.8-4.6q1.6-0.1 3.2 0.1"/><path class="d" d="m223.8 106.7q-1.3-0.1-2.6 0c-3.8 0.4-7 2.3-9.2 4.9-2.3 2.8-3.5 6.4-3.1 10.2 0.5 4 2.6 7.5 5.6 9.7 2.7 1.9 6 2.9 9.6 2.5q1.7-0.1 3.2-0.7"/><path class="d" d="m221.2 87.1q-1.1 0-2.2 0.1c-3.7 0.4-6.9 2.2-9.1 4.9-2.3 2.7-3.5 6.4-3.1 10.2 0.4 3.8 2.4 7.1 5.2 9.3 2.7 2.2 6.2 3.3 9.9 2.9q1.5-0.1 2.9-0.6"/><path class="d" d="m222.2 94.5q-1.2 0.3-2.3 0.4c-3.7 0.4-7.2-0.7-10-2.8-2.8-2.3-4.7-5.6-5.2-9.4-0.4-4 1-7.8 3.5-10.6 2.1-2.5 5.2-4.2 8.8-4.5q0.8-0.1 1.6-0.1"/><path class="d" d="m215.9 47.3q-0.5 0-1.1 0c-3.6 0.4-6.7 2.1-8.9 4.7-2.4 2.8-3.7 6.5-3.3 10.4 0.4 4.1 2.5 7.5 5.6 9.7 2.6 1.9 6 2.9 9.5 2.6q0.9-0.1 1.8-0.4"/><path class="d" d="m213.1 26.2q-1 0-2 0.1c-7.6 0.8-13.1 7.6-12.3 15.1 0.5 4.6 3.3 8.5 7.1 10.6 2.4 1.3 5.1 1.9 8 1.6q1.5-0.1 2.8-0.6l-0.8-5.7z"/><path class="j" d="m328.3 9.1l-115.8 12.6 20.5 154.8 115.3-13.4c3.3-0.4 5.6-3.3 5.2-6.6l-18.8-142.3c-0.4-3.2-3.3-5.4-6.4-5.1z"/><path class="e" d="m313.7 86.2l-58.2 6.8-5.5-46.9 58.3-6.8z"/><path class="c" d="m329 25.4c-0.5-3.1-1.8-6.2-4.6-7.8-1.8-1-4-1.2-6-1.1-1.3 0.1-1.2 2.2 0.1 2.1 1.9-0.2 3.9 0 5.5 1.2 1.4 1 2.2 2.6 2.7 4.3 1.1 3.7 0.9 7.8 1 11.6 0.1 1.3 2.1 1.3 2-0.1-0.1-3.4 0-6.8-0.7-10.2z"/><path class="d" d="m220.7 21.2l22 153.9"/><path class="b" d="m149.7 231.7l16.6 6.2 0.1-0.1c21.7-130.7 83.5-150.1 83.5-150.1 34.1-12.4 62.4-9.8 86 2.5-146.9-77.4-186.2 141.5-186.2 141.5z"/><path class="d" d="m166.5 238.3l-47-17.5"/><path class="h" d="m166.5 236.6c-6 3.5-11.9 7.7-16.9 12.5-2.7 2.8-6.1 6.9-6.4 11-0.4 5.6 5.8 9 10.3 5.5 3.2-2.6 5.1-6.8 6.8-10.4 2.6-6 4.7-12.3 6.2-18.6z"/><path class="g" d="m451.2 385.3c0 0-18.6-364.2-201.3-297.6 0 0-118.8 37.3-84.9 356.5 0 0 204.3 23.3 286.2-58.9z"/><path  d="m27.6 396.4c16.3 14.9 46 14.1 72.9 13.2q1.1 0.1 2.3 0 1.8 0 3.8-0.4c11.5-1.9 16.9-8.2 17-14.2 1.1-6.2-3.3-12-14.4-12.1-0.8-0.1-1.7-0.1-2.5 0q-1.3 0-2.6 0.1c-14.4 0.8-39.7 3.3-44.9-6-5.4-9.6 12.7-22.7 22.8-29.2 22.9-14.8 47.8-24.8 77.1-31l0.9-26.6c-49.9 8.3-92.8 25.7-123.8 55.5-16.3 15.7-24.4 36-8.6 50.7z"/><path class="e" d="m98.5 378.5c0 0-12.1-11.3-15.8-0.8-2.9 8-3.7 26.2-3.9 34.4-0.1 3.7 1.8 7.4 5.1 9.2 2.2 1.1 8.3 0.4 11.4-1.4 5.2 4.7 11.9 13.4 26.3 16.5 10.7 2.3 22.6 2.1 33.1-0.9 5.5-1.6 10.5-4.1 14.1-8.7 1.9-2.5 3.5-5.6 3.7-8.8 0.2-1.6-0.1-3.2-0.7-4.7-0.2-0.5-1.6-3.5-1.6-3.5 0 0 11.1-12.8-3.7-21 0 0 15.7-21.3-19.2-19.7-2.1 0.1-3.1-9.3-10.7-14.2-1.1-0.8-9-5.7-18-3.9-10.7 2.2-19.3 13.4-20.1 27.5z"/><path class="d" d="m166.2 389l-13.4 1.8"/><path class="d" d="m170.2 409.8l-14 0.8"/><path class="d" d="m147.3 369.1l-19.4 1.6"/><path class="d" d="m98.5 378.5l-1.2 13.6"/><path class="d" d="m96.4 410l-1.1 9.9"/><path  d="m149.6 380.9c0.2 3.5-5.3 3.9-5.5 0.3-0.3-3.5 5.2-3.9 5.5-0.3z"/><path  d="m150.4 403c0.3 3.5-5.2 3.9-5.5 0.4-0.2-3.6 5.3-4 5.5-0.4z"/><path  d="m151.1 425.1c0.2 3.6-5.3 4-5.6 0.4-0.2-3.5 5.3-3.9 5.6-0.4z"/><path  d="m495.3 171.3c-2.6-0.7-5.4-0.6-8 0.3-1.8 0.7-3.5 1.7-4.9 3.2q-1.2 1.2-2.1 2.8-0.1 0.2-0.2 0.5c-3.9 8-6.7 15.7-8.4 23.5-3.8 16.4-3.1 32.9 0.7 51.1 2.4 11.8 12.2 48.5-11.1 44.1-8.1-1.6-16-6.5-23.1-12.4 2.1 9.7 4.7 22.4 5.9 31.8 5.6 2.5 11.4 4.3 17.4 4.9 24.5 2.2 39.6-19.3 39.3-42-0.2-13.8-4.4-27-6.6-40.4q-1-5.8-1.2-11.1c-0.6-14.7 2.9-27.5 9.8-41.8 3.6-7.4-1.2-12.9-7.5-14.5z"/><path class="e" d="m483.7 141.5c0 0 4.7-26 20.2-28.8 13-2.3 13.1 12.5 13.1 12.5 19.9-10.1 21.8 13.6 21.8 13.6q0.2 0 0.4 0c8.1-1.3 16 4.4 17 12.6 2.4 19.6-18.8 31.1-18.8 31.1 3.9 28.7-22 26.2-22 26.2-1.7 17.4-18.9 15.6-43.3-2.1-24.4-17.8 0.1-26.2 0.1-26.2-23-27 5.6-44.8 11.5-38.9z"/><path class="d" d="m515.1 209.6c-4.9 0-10.7-2.2-16.9-5.8"/><path class="d" d="m487.7 194c-8.3-3.9-11.9-8.4-16.2-13.8"/><path class="k" d="m528.7 213l28.4-27.7-22.2-25.4-9.3-10.6-6.5-7.5-51-58.3-22.2-7.8-15.5-5.4q1.8 8.3 3.5 16.6 0 0 0 0l4.8 23.1 51.8 59.3 6.5 7.4 9.3 10.6z"/><path class="e" d="m468.1 83.5l2.1 12.5-12.7-3.6 3.8 14.1-13.4-5.2 2.3 12.1-11.5-3.4-8.3-39.7z"/><path class="b" d="m446 75.7c0.1 0.7 0.9 5.7-2.3 9-3.7 3.8-9.3 2.3-9.8 2.2q-1.7-8.3-3.5-16.6z"/><path class="d" d="m470 95.9l82 94.1"/><path class="d" d="m461 106l82 92.6"/><path class="d" d="m449.9 113.2l84.2 94.7"/><path class="h" d="m561 189.9c0 0 16.7 16.5 1.9 31.3-14.8 14.8-30.3-3.6-30.3-3.6z"/><path class="c" d="m561.6 210.7c2.8-3.5 2.7-9.8-1.2-14.4-0.9-0.9 0.3-1.9 1.1-0.9 4.5 5.2 4.8 12.5 1.6 16.6-0.6 0.8-2.1-0.5-1.5-1.3z"/><path class="c" d="m559.8 212.6c0.8-0.6 2 1 1.2 1.6-0.7 0.6-1.9-1-1.2-1.6z"/><path class="b" d="m557.1 185.3l-28.5 27.7 4 4.5 28.4-27.5z"/><path class="e" d="m544.7 164.2c0 0-24.5 21.1-29 6.6-4.6-14.5 23.1-32 23.1-32"/><path class="e" d="m499.2 114.1c0 0-27.5 28.8 1.9 35.3 0 0 6.6-16.5 15.9-24.2 0 0-38.5 40.5-1.3 45.6 0 0-2.5-12.6 16.8-27.2"/><path class="e" d="m487.8 165.3c0 0 38.6-12.3 30.1-26.5-2.6-4.4-7.7-6.5-12.7-5.9-7.7 0.9-22.3 4.6-36 11.9-6.3 3.4-9.7 10.8-7.6 17.7 1.1 3.4 3.5 8.4 7.1 13.1"/><path class="l" d="m288.3 332.4c2.3 12.4-11.2 25.3-30.2 28.9-19 3.6-36.3-3.5-38.6-15.8-2.3-12.3 11.2-25.3 30.2-28.9 19-3.6 36.3 3.5 38.6 15.8z"/><path class="l" d="m402.2 325.5c0 12.6-15.7 22.7-35.1 22.7-19.3 0-35-10.2-34.9-22.8 0-12.5 15.8-22.7 35.1-22.7 19.4 0.1 35 10.3 34.9 22.8z"/><path class="e" d="m269 282.5c1.3 5.1 5.3 10.1 6.1 15.3 0.9 6.7-3.7 12.2-4.4 18.7q-0.1 0.7-0.1 1.5c-6-1.6-12.8-2-19.8-1-7.1 1.1-13.6 3.4-18.8 6.6q-2.7 1.6-4.8 3.5c-0.3-1.4-0.6-2.8-1.2-4.1-2.6-6-8.5-10-9.5-16.6-0.8-5.3 1.6-11.2 1.5-16.5-0.2-5.5-2-9.2-4.4-14.1-5.3-11.3-3.7-17.7 0-29.1 2.3-7.3 0.2-12-2.3-19-5.2-14.4-1-34.6 16.2-36.7 12.1-1.4 22.3 6.3 27.2 16.2 2.1 4.4 3.1 9.1 2.9 13.8-0.4 7.4-1.1 12.5 3.2 18.8 6.8 9.9 10.2 15.6 8.2 27.9-0.8 5.4-1.5 9.4 0 14.8z"/><path class="d" d="m227.2 327.1c-3.8 0.9-9.7 1.9-13.3 3.7-8.2 4.1-13.5 12.4-17.4 20.3"/><path class="d" d="m227.2 327.1c-9 7.1-18 18.5-16.3 30.5"/><path class="b" d="m268.6 266.7c1.3-12.3-2.9-17.4-8.9-27.5-3.8-6.5-3.4-11.7-3.2-19.1 0.1-4.7-0.9-9.5-2.8-13.9-3.2-1.8-6.8-2.6-10.5-2.1-14.4 1.6-17.5 21.9-12.7 36.5 2.2 7.1 4.1 11.9 2.3 19.2-0.7 2.9-1.3 5.5-1.7 8l25.7 3.8-25.2 11.7c0.5 1.8 1.1 3.7 2 5.8 2.1 5 3.7 8.7 4 14.3 0.2 5.3 2.2 9.6 3 14.9 5.2-0.8 6.6-0.8 12.5-1.7 5.9-0.9 11.7-1 16.8 0.7v-0.7c0.4-6.5 5.6-11.6 4.7-18.4-0.8-5.3-5.4-10.7-6.6-15.9-1.4-5.4 0-10.2 0.6-15.6z"/><path class="e" d="m387.1 271.6c1 5.1 4.6 10.4 5.1 15.7 0.5 6.7-4.4 11.9-5.6 18.3q-0.1 0.7-0.1 1.5c-5.9-2-12.7-2.8-19.8-2.2-7.1 0.6-13.7 2.5-19.2 5.4q-2.7 1.4-5 3.1c-0.1-1.4-0.4-2.8-0.9-4.1-2.2-6.1-7.8-10.5-8.4-17.2-0.5-5.3 2.3-11.1 2.5-16.3 0.2-5.6-1.4-9.3-3.4-14.4-4.6-11.6-2.7-17.9 1.7-29 2.9-7.2 1-12-1-19.2-4.3-14.7 1.2-34.6 18.5-35.6 12.1-0.6 21.9 7.7 26 17.9 1.9 4.5 2.6 9.3 2.1 13.9-0.9 7.4-1.9 12.5 2 19.1 6.2 10.3 9.2 16.2 6.5 28.4-1.2 5.3-2.2 9.2-1 14.7z"/><path class="d" d="m386 305.5c3.8 0.1 9.9-0.3 13.7 0.7 8.9 2.2 15.9 9 21.6 15.9"/><path class="d" d="m386 305.5c10.3 5 21.6 14.1 22.7 26.1"/><path class="b" d="m387.7 256.6c2.1-12.2-1.2-18.4-7.2-28.9-3.7-6.5-2.6-11.8-1.9-19.2 0.4-4.7-0.3-9.5-1.9-14.1-3.1-1.9-6.6-2.9-10.4-2.7-14.5 0.7-18.8 20.7-15 35.6 1.8 7.3 3.4 12.2 1.1 19.4-0.9 2.8-1.6 5.4-2.2 7.8l25.5 5.4-26 10.1c0.4 1.9 0.9 3.8 1.6 5.9 1.8 5.2 3.2 9 3.1 14.6-0.1 5.3 1.7 9.7 2.1 15.1 5.2-0.6 6.6-0.5 12.6-1 6-0.5 11.7-0.3 16.7 1.8v-0.8c0.9-6.4 6.3-11.7 5.8-18.5-0.4-5.3-4.2-10.5-5.2-15.7-1-5.5 0.4-9.4 1.3-14.8z"/><path class="h" d="m349 335.7c-6.6 7.4-17.2 13.6-33.1 15.4-16.1 1.9-28.8-2.8-37.5-10-14.4-12.2-17.2-31.4-4.4-38.3 20.5-11 36.8 9 36.8 9 0 0 23.1-27.1 41.9-11.1 6.7 5.7 7.5 22.3-3.7 35z"/><path class="h" d="m285.5 316.6c4.1 4.2 15.1 14.3 29 12.9 14.2-1.4 22.9-14.1 26-19"/><path class="f" d="m298.7 265l1.1 14c0 0 22.1-11.1 23.1-0.3 1 10.8-22.3 16-22.3 16"/><path  d="m204.4 190c7.4-15.6 26.6-24.1 43.1-19.2 0 0-0.1 0.2-0.1 0.2-16.7-3.5-34.2 4.8-43 19z"/><path  d="m322.1 158.4c14-9.9 34.9-8.1 46.9 4.3 0 0-0.1 0.1-0.1 0.1-12.8-11.2-32.3-12.5-46.8-4.4z"/><path class="j" d="m348.9 366.9c3.2-0.3 6.2 1 8.1 3.5 2.6 3.4 4.5 9.9-4 18.4 11.3 4.2 12.3 10.7 11.4 14.9-0.7 3.1-2.9 5.5-5.9 6.5-15.3 5.4-35.6-14.7-35.7-14.8 0 0 10-26.8 26.1-28.5z"/><path class="j" d="m288.2 377.5c-3 0.8-5.5 3-6.4 6-1.3 4.1-0.9 10.8 9.8 16-9.2 7.7-8 14.2-5.7 17.9 1.7 2.6 4.6 4.2 7.7 4.2 16.2-0.1 28.7-25.8 28.8-25.9-0.1 0-18.4-22-34.2-18.2z"/><path class="i" d="m314.6 395c-0.2 4.2 3.1 7.7 7.4 8 4.3 0.2 8-3 8.2-7.2 0.2-4.2-3.1-7.8-7.4-8-4.3-0.2-7.9 3-8.2 7.2z"/></svg>