<svg version="1.2" xmlns="http://www.w3.org/2000/svg" viewBox="0 0 1465 500" width="1465" height="500"><style>tspan{white-space:pre}.a{fill:#26a2f4}.b{font-size: 226px;fill: #ffc84f;font-weight: 800;font-family: "Nunito-ExtraBold", "Nunito"}.c{font-size: 226px;fill: #000000;font-weight: 800;font-family: "Nunito-ExtraBold", "Nunito"}.d{font-size: 226px;fill: #ff46b3;font-weight: 800;font-family: "Nunito-ExtraBold", "Nunito"}.e{fill:#fff;stroke:#000;stroke-miterlimit:10}.f{fill:none;stroke:#000;stroke-miterlimit:10}.g{stroke:#000;stroke-miterlimit:10}.h{fill:#8e64f3;stroke:#000;stroke-miterlimit:10}.i{fill:#ffc94f;stroke:#000;stroke-miterlimit:10}.j{fill:#ff47b3;stroke:#000;stroke-miterlimit:10}.k{fill:#ff6534;stroke:#000;stroke-miterlimit:10}</style><path class="a" d="m177.3 16l-6.7 2.4 12.6 34.3 6.6-2.5z"/><text style="transform:matrix(1,0,0,1,521,330)" ><tspan x="0" y="0" class="b">D</tspan><tspan  y="0" class="c">u</tspan><tspan  y="0" class="c">o</tspan><tspan  y="0" class="d">D</tspan><tspan  y="0" class="c">e</tspan><tspan  y="0" class="c">v
</tspan></text><path class="a" d="m126.7 91.9l-28.7-17.4-3.7 6.1 28.7 17.4z"/><path class="a" d="m155.3 68.7l-22.1-32.3-5.8 4 22.1 32.3z"/><path class="a" d="m327.2 16l6.7 2.4-12.5 34.3-6.7-2.5z"/><path class="a" d="m377.8 91.9l28.7-17.4 3.7 6.1-28.7 17.4z"/><path class="a" d="m349.2 68.7l22.1-32.3 5.8 4-22 32.3z"/><path  d="m460.7 158.2c1-26-0.8-51.7-5.8-77.3-0.9-4.8-4.8-8.7-10-8.1-4.6 0.5-9.1 5.2-8.2 10.1 4 20.4 6.1 41.1 6.1 61.9 0.1 19.4-0.7 39.5-4.5 58.6-3.1 15.1-9.6 32.4-21.3 43-10 9-23.9 7.3-35.8 1-16.3-8.6-29.2-23.8-39.5-38.8-6.6-9.7-21.5 1-14.9 10.7 18.7 27.4 57 66.5 93.5 46.9 15.3-8.3 25.3-25.8 31-41.7 7.6-21.3 8.6-43.9 9.4-66.3z"/><path class="e" d="m432.7 93.4l2-0.3c-19.9 2.2-28.1-30.5-23.1-39.6 7.4-11.5 17.9 8.7 17.9 8.7 0 0 0.8-15.3 9.7-32.1 10.6-20 14.8-4.2 14.8-4.2 0 0 3.3-9.5 12.1-9.3 7.1 1.1 3.8 10.1 3.8 10.1 2.5-3.1 8.2-8.8 11.9-4.6 3.5 3.9 1.2 10.1 0 14-1.6 5.5-3.6 10.9-5.7 16.2-0.6 1.6-2.1 4.1-1.8 5.9 4.7 25.6-12.7 33.2-12.7 33.2 1.7 2 3.5 5.7 3 7.3-0.9 2.6-3.3 4.4-5.9 4.7-5.9 0.8-18.8 2.4-24.7 1.2-7.9-1.4-1.3-11.2-1.3-11.2z"/><path class="f" d="m454 25.9l-9.6 26.4"/><path class="f" d="m469.9 26.7l-10.2 27.7"/><path class="f" d="m465.7 55.2l-23.9-3.2"/><path class="f" d="m429.5 62.2l1.2 3.9c0 0 14.3-8.6 19.6 5.4"/><path class="f" d="m455.1 91.5l7-0.1"/><path  d="m39 158.2c-1-26 0.9-51.7 5.8-77.3 0.9-4.8 4.8-8.7 10-8.1 4.6 0.5 9.1 5.2 8.2 10.1-3.9 20.4-6.1 41.1-6.1 61.9 0 19.4 0.7 39.5 4.6 58.6 3 15.1 9.5 32.4 21.2 43 10 9 23.9 7.3 35.8 1 16.3-8.6 29.2-23.8 39.5-38.8 6.6-9.7 21.5 1 14.9 10.7-18.7 27.4-57 66.5-93.5 46.9-15.3-8.3-25.3-25.8-31-41.7-7.6-21.3-8.6-43.9-9.4-66.3z"/><path class="e" d="m67 93.4l-2-0.3c19.9 2.2 28.2-30.5 23.1-39.6-7.4-11.5-17.8 8.7-17.8 8.7 0 0-0.9-15.3-9.8-32.1-10.6-20-14.8-4.2-14.8-4.2 0 0-3.3-9.5-12.1-9.3-7.1 1.1-3.8 10.1-3.8 10.1-2.5-3.1-8.2-8.8-11.9-4.6-3.5 3.9-1.2 10.1 0 14 1.6 5.5 3.6 10.9 5.7 16.2 0.6 1.6 2.1 4.1 1.8 5.9-4.7 25.6 12.7 33.2 12.7 33.2-1.7 2-3.5 5.7-2.9 7.3 0.8 2.6 3.2 4.4 5.8 4.7 5.9 0.8 18.8 2.4 24.7 1.2 7.9-1.4 1.3-11.2 1.3-11.2z"/><path class="f" d="m45.7 25.9l9.6 26.4"/><path class="f" d="m29.8 26.7l10.2 27.7"/><path class="f" d="m34 55.2l23.9-3.2"/><path class="f" d="m70.3 62.2l-1.3 3.9c0 0-14.3-8.6-19.6 5.4"/><path class="f" d="m44.6 91.5l-7-0.1"/><path class="g" d="m311.3 398.8c0 0 145.3-0.6 140.5-28.2-4.7-27.7-107.2-9.4-107.2-9.4 0 0 0.7-25.9 0.7-25.9 0.1-1.2 20.1-3.4 21.4-3.6 15.9-2 32-2.9 47.9-1.9 14.7 1 29.8 3.7 43.1 10.3 18.5 9.2 35.2 29.2 20.2 48.7-9.1 11.8-24.1 18.1-37.8 22.4-33 10.4-68.8 12.4-103.2 12.6q-12 0.1-24-0.3c-0.9-6.9-0.7-17.9-1.6-24.7z"/><path class="h" d="m328.9 390.9c-0.7-1-6.3-8.2-15.8-8.4-6.4-0.1-10.9 3-12.4 4.1q-6.1 33-12.1 66l-5.5 29.9c0 0 31.4 9.1 41.1-23.1q1.5-4.8 2.2-10.8c1 0.7 4.4 3 9.2 2.8 0.9 0 5.7-0.3 8.7-3.5 3.9-4.2 4.8-16.9-0.3-23.8z"/><path class="e" d="m283.1 482.5c-0.4 0.3-2.3 1.7-5 1.5-3.3-0.3-5-2.7-5.3-3q7.2-48.4 14.4-96.8c0.7-0.5 3.3-2 6.9-1.6 3.9 0.5 6.1 3 6.6 3.6q-8.8 48.1-17.6 96.3z"/><path class="e" d="m288.6 452.6l-5.5 29.9c0 0 31.4 9.1 41.1-23.1-5.4-4.3-16.1-9.1-35.6-6.8z"/><path class="f" d="m326.4 448.6l-2.6-21.1"/><path class="f" d="m325.5 453.7l-12.3-21.5"/><path class="e" d="m323.6 427.8c-1.3 0-2.2-1-2.2-2.2 0-1.3 0.9-2.3 2.2-2.3 1.2 0 2.2 1 2.2 2.3 0 1.2-1 2.2-2.2 2.2z"/><path class="e" d="m312.2 432.7c-1.3 0-2.3-1-2.3-2.3 0-1.2 1-2.2 2.3-2.2 1.2 0 2.2 1 2.2 2.2 0 1.3-1 2.3-2.2 2.3z"/><path class="g" d="m187.2 396.7c0 0-145.1-6.5-139.2-33.9 5.9-27.4 107.5-5 107.5-5 0 0 0.3-25.9 0.3-25.9 0-1.2-19.8-4.3-21.2-4.5-15.7-2.7-31.8-4.2-47.8-3.8-14.7 0.4-29.9 2.4-43.4 8.4-18.9 8.5-36.4 27.8-22.2 47.9 8.6 12.1 23.3 19 36.8 23.9 32.5 11.8 68.3 15.2 102.6 16.9q12 0.6 24 0.7c1.2-6.8 1.4-17.9 2.6-24.7z"/><path class="h" d="m166.8 390.9c0.7-1 6.3-8.2 15.8-8.4 6.4-0.1 10.9 3 12.4 4.1q6 33 12.1 66l5.4 29.9c0 0-31.3 9.1-41-23.1q-1.5-4.8-2.2-10.8c-1 0.7-4.4 3-9.2 2.8-0.9 0-5.7-0.3-8.7-3.5-3.9-4.2-4.8-16.9 0.2-23.8z"/><path class="e" d="m212.5 482.5c0.5 0.3 2.4 1.7 5.1 1.5 3.2-0.3 5-2.7 5.3-3q-7.2-48.4-14.4-96.8c-0.7-0.5-3.3-2-6.9-1.6-3.9 0.5-6.1 3-6.6 3.6q8.7 48.1 17.5 96.3z"/><path class="e" d="m207.1 452.6l5.4 29.9c0 0-31.3 9.1-41-23.1 5.4-4.3 16.1-9.1 35.6-6.8z"/><path class="f" d="m169.3 448.6l2.6-21.1"/><path class="f" d="m170.1 453.7l12.4-21.5"/><path class="e" d="m172.1 427.8c-1.2 0-2.2-1-2.2-2.2 0-1.3 1-2.3 2.2-2.3 1.2 0 2.2 1 2.2 2.3 0 1.2-1 2.2-2.2 2.2z"/><path class="e" d="m183.5 432.7c-1.2 0-2.2-1-2.2-2.3 0-1.2 1-2.2 2.2-2.2 1.2 0 2.2 1 2.2 2.2 0 1.3-1 2.3-2.2 2.3z"/><path class="i" d="m248.1 21.3l76.8 87.3 103.3 50.1-56.5 102.6-14.3 117.2-114.5-42.4-109.3 40.7-12.6-117.3-55-103.4 104-48.7z"/><path class="j" d="m206.9 291.6c8.1 7.5 20.5 13.1 38.3 13.3 18 0.3 31.6-6.4 40.3-15.4 14.5-15.1 15.4-36.6 0.5-42.8-24-9.8-39.6 14.2-39.6 14.2 0 0-28.7-27.3-47.7-7.4-6.7 7-5.6 25.4 8.2 38.1z"/><path class="f" d="m274.8 263.3c-4 5.1-15 17.5-30.5 17.6-15.9 0-27-13-30.9-18.1"/><path class="e" d="m224.9 174.6c0.3 0.8 1.4 5.6 1.7 7.2 3.5 22.8-8.3 45.1-28.4 55.2q-5.1 2.6-10.9 4.1c-28.3 7.1-57-10-64.1-38.3-7.2-28.3 10-57 38.3-64.1q3.3-0.9 6.6-1.3c16.5-2 32.4 3.9 43.6 15.1q0 0.1 0 0.1 0.6 0.5 1.1 1c5.5 5.8 9.7 12.9 12.1 21z"/><path class="g" d="m225.1 206.2c-5.6 16.7-19.7 30.2-37.1 34.6q-2.7 0.6-5.5 1c-4.9 0.7-9.8 0.7-14.7 0-2.8-6.1 5-9.8 3.5-15.9-1.2-5-5.3-8.1-3.3-13.4 1.5-4.2 6.8-6.1 10.2-9.2 6.7-6 1.4-9.3 0-17.8-0.9-5.3 1.2-8 5.6-11.3 5.1-3.8 6.4-3.2 4.4-9.4-1.2-3.7-4.4-7.8-4.1-11.6 0.4-5.4 5.6-9.4 12.4-9.4q1.5 0 3.1 0.1c14.6 7.7 24.4 21.6 27.2 37 0 0.5 0.1 0.9 0.3 1.5 1 2.4 0.7 6.1 0.6 8.7-0.1 5.2-1 10.3-2.6 15.1z"/><path class="f" d="m122.1 194l-21.4-1.7"/><path class="f" d="m124 172.3l-21.4-7.8"/><path class="f" d="m134.2 154.3l-17.4-13.7"/><path class="e" d="m367.1 166.4c0.4 0.7 2.3 5.3 2.8 6.8 7 22-1.2 45.8-19.5 58.9q-4.7 3.4-10.1 5.8c-26.9 11.4-57.9-1.1-69.3-27.9-11.5-26.8 1-57.9 27.9-69.3q3.1-1.4 6.4-2.3c15.9-4.5 32.6-1.1 45.4 8.2q0 0 0 0 0.6 0.5 1.2 0.9c6.3 4.9 11.6 11.2 15.2 18.9z"/><path class="g" d="m372.2 197.6c-3 17.3-14.7 32.8-31.3 39.8q-2.6 1.1-5.3 1.9c-4.7 1.5-9.6 2.2-14.5 2.3-3.7-5.6 3.5-10.4 1.1-16.2-2.1-4.8-6.5-7.3-5.4-12.7 0.8-4.4 5.8-7.1 8.7-10.7 5.6-7-0.1-9.5-2.8-17.6-1.7-5.2-0.1-8.1 3.7-12.1 4.5-4.5 5.8-4.1 2.9-9.9-1.7-3.5-5.6-7.1-5.9-10.8-0.3-5.4 4.1-10.2 10.8-11.2q1.6-0.3 3.1-0.4c15.6 5.3 27.5 17.5 32.7 32.3 0 0.4 0.2 0.9 0.5 1.4 1.3 2.3 1.6 5.9 1.9 8.5 0.8 5.2 0.7 10.3-0.2 15.4z"/><path class="f" d="m346.4 145.6l14.7-15.6"/><path class="f" d="m362.1 160.6l19.5-11.7"/><path class="f" d="m369.7 179.9l21.6-5"/><path class="k" d="m246.6 240.6c-6.4 0-11.5-5.2-11.5-11.5 0-6.4 5.1-11.5 11.5-11.5 6.3 0 11.4 5.1 11.4 11.5 0 6.3-5.1 11.5-11.4 11.5z"/></svg>