<svg version="1.2" xmlns="http://www.w3.org/2000/svg" viewBox="0 0 426 437" width="426" height="437"><style>.a{fill:#bb9fff}.b{fill:#ffbe32}.c{fill:#fff}.d{fill:#00a45c}.e{fill:#ff7300}.f{fill:#fc79ff}.g{fill:#4b3bc5}.h{fill:#8ed4b5}</style><path class="a" d="m389.6 358.2c0 37.2-77.8 67.4-173.8 67.4-95.9 0-173.7-30.2-173.7-67.4 0-37.3 77.8-67.5 173.7-67.5 96 0 173.8 30.2 173.8 67.5z"/><path fill-rule="evenodd" d="m215.8 426.1c-46.4 0-90.1-7.1-123-19.8-32.9-12.8-51.1-29.9-51.1-48.1 0-18.2 18.2-35.3 51.1-48.1 32.9-12.7 76.6-19.8 123-19.8 46.5 0 90.2 7.1 123 19.8 33 12.8 51.2 29.9 51.2 48.1 0 18.2-18.2 35.3-51.2 48.1-32.8 12.7-76.5 19.8-123 19.8zm0-135c-95.5 0-173.3 30.1-173.3 67.1 0 37 77.8 67 173.3 67 95.6 0 173.3-30 173.3-67 0-37-77.7-67.1-173.3-67.1z"/><path class="b" d="m360.4 195.4q-0.2 3.6-0.6 7.2c-2.5 24.2-11 46.5-23.9 65.4-27 39.5-73.2 64.3-124.4 61.7-39.6-2.1-74.5-20.1-98.9-47.7-17.7-19.9-29.7-44.9-34-72.2-1.4-9.4-1.9-19.2-1.4-29 3.6-69.8 57-125.2 124-133.5q4-0.5 8.1-0.7 8.3-0.6 16.8-0.2c30 1.6 57.4 12.4 79.5 29.5 15.5 12.1 28.4 27.2 37.8 44.5 12.1 22.2 18.4 47.9 17 75z"/><path fill-rule="evenodd" d="m218.8 330.3q-3.7 0-7.3-0.2c-38.5-2-73.7-19-99.2-47.8-18.1-20.5-29.9-45.6-34.1-72.5-1.4-9.5-1.9-19.3-1.4-29.1 1.7-33.6 15.3-65.5 38.3-90 22.8-24.2 53.3-39.7 86.1-43.8 2.7-0.3 5.4-0.6 8.1-0.8 5.5-0.3 11.2-0.4 16.8-0.1 29.2 1.5 56.7 11.8 79.7 29.6 15.7 12.2 28.5 27.2 38 44.6 12.5 23 18.3 49 17 75.2-0.1 2.4-0.3 4.9-0.6 7.3-2.4 23.4-10.7 46.1-24 65.5-13.5 19.8-31.9 36-53.2 46.8-19.9 10.1-41.9 15.3-64.2 15.3zm-0.1-283.7q-4.7 0-9.4 0.4c-2.6 0.1-5.3 0.4-8 0.7-32.6 4-63 19.5-85.6 43.6-22.8 24.3-36.4 56.1-38.1 89.5-0.5 9.7 0 19.4 1.4 28.9 4.2 26.8 15.9 51.7 33.9 72.1 25.4 28.6 60.4 45.5 98.6 47.5 24.6 1.3 49.2-3.9 71.1-15 21.2-10.8 39.5-26.9 53-46.5 13.2-19.3 21.4-41.9 23.8-65.2 0.3-2.4 0.4-4.8 0.6-7.3 1.3-26-4.5-51.9-16.9-74.7-9.4-17.3-22.1-32.2-37.8-44.4-22.8-17.7-50.2-27.9-79.2-29.4q-3.7-0.2-7.4-0.2zm141.7 148.8z"/><path class="c" d="m94.9 183.5q-0.2-0.7-0.8-1.3l-1.1-1q-0.4-0.4-1-0.6-0.5-0.2-1.1-0.2-0.7 0-1.2 0.3-0.5 0.2-0.9 0.7-0.3 0.3-0.5 0.6-0.4 0.7-0.4 1.5 0.1 0.4 0.2 0.8 0.2 0.8 0.8 1.3 0.5 0.5 1.1 1 0.4 0.5 0.9 0.6 0.6 0.3 1.2 0.3 0.6 0 1.2-0.3 0.5-0.2 0.9-0.7l0.5-0.6q0.4-0.7 0.4-1.6-0.1-0.4-0.2-0.8z"/><path class="c" d="m277.9 301.3q-0.2-0.7-0.8-1.3-0.5-0.5-1-1-0.5-0.4-1-0.6-0.6-0.2-1.2-0.2-0.6 0-1.2 0.3-0.5 0.2-0.9 0.7l-0.5 0.6q-0.4 0.7-0.3 1.5 0 0.4 0.1 0.8 0.2 0.8 0.8 1.3l1.1 1q0.4 0.5 1 0.6 0.5 0.3 1.1 0.3 0.7 0 1.2-0.3 0.6-0.2 1-0.7l0.4-0.6q0.4-0.7 0.4-1.6-0.1-0.4-0.2-0.8z"/><path class="c" d="m257.6 294.2q-0.2-0.7-0.8-1.3-0.5-0.5-1-1-0.5-0.4-1-0.6-0.6-0.3-1.2-0.2-0.6 0-1.2 0.3-0.5 0.2-0.9 0.6l-0.5 0.7q-0.4 0.7-0.3 1.5 0 0.4 0.1 0.8 0.2 0.8 0.8 1.3l1.1 1q0.4 0.4 1 0.6 0.5 0.3 1.1 0.2 0.7 0 1.2-0.3 0.5-0.2 0.9-0.6l0.5-0.6q0.4-0.8 0.4-1.6-0.1-0.4-0.2-0.8z"/><path class="c" d="m332.8 254.2c-0.3-0.9-0.6-1.7-1-2.5q-0.4-1-1-1.8c-0.4-0.6-1.1-1.1-1.8-1.3q-0.7-0.2-1.3 0-0.6 0-1.1 0.3c-0.6 0.5-1.2 1.1-1.3 1.9-0.2 0.8-0.1 1.6 0.4 2.3q0.4 0.7 0.8 1.5 0.3 0.7 0.5 1.4 0.2 0.6 0.6 1 0.3 0.5 0.8 0.7 0.6 0.4 1.2 0.4 0.6 0.1 1.2-0.1c0.7-0.3 1.4-0.8 1.8-1.5 0.3-0.7 0.4-1.5 0.2-2.3z"/><path class="c" d="m209.5 82.7q-0.1-0.2-0.3-0.5c-0.2-0.3-0.5-0.7-0.8-1q-0.1-0.1-0.2-0.1-0.4-0.4-0.9-0.6-0.2-0.2-0.5-0.3-0.5-0.3-1.1-0.4-0.6-0.1-1.2 0.1-0.6 0.2-1 0.6-0.5 0.3-0.8 0.9-0.1 0.3-0.3 0.7-0.2 0.8 0.1 1.6 0.1 0.4 0.3 0.7 0.4 0.7 1.1 1.1 0.1 0.1 0.2 0.1 0.1 0.1 0.2 0.1 0 0.1 0.1 0.2 0.3 0.6 0.8 0.9 0.5 0.4 1 0.5 0.7 0.1 1.3 0 0.6-0.1 1.1-0.4l0.6-0.5q0.5-0.6 0.7-1.4 0.1-0.4 0.1-0.8 0-0.8-0.5-1.5z"/><path  d="m203.4 65.5c0.2 1.2 2.8 1.9 5.9 1.5 3.1-0.3 5.5-1.6 5.3-2.8-0.1-1.2-2.8-1.9-5.9-1.5-3 0.3-5.4 1.6-5.3 2.8z"/><path fill-rule="evenodd" d="m207.6 67.5c-0.9 0-1.7-0.1-2.5-0.2-1.2-0.4-2-1-2.1-1.7-0.1-0.8 0.5-1.6 1.7-2.2 1-0.5 2.5-1 4-1.1 1.5-0.2 3-0.2 4.2 0.1 1.3 0.4 2 1 2.1 1.7 0.2 1.7-2.8 3-5.7 3.3q-0.9 0.1-1.7 0.1zm2.8-4.5q-0.8 0-1.6 0.1c-1.4 0.1-2.8 0.5-3.7 1-0.9 0.5-1.3 1-1.3 1.4 0.1 0.4 0.6 0.7 1.5 1 1.1 0.2 2.5 0.3 3.9 0.1 3-0.3 5.1-1.5 5-2.4 0-0.4-0.6-0.7-1.5-1q-1-0.2-2.3-0.2z"/><path class="d" d="m195.1 31.5c-2.1-1.9-4.2-5.1-6.3-7.1q-3.4-3.4-7.1-6c-4.9-3.4-10.2-5.8-15.6-6.6-5.2-0.8-9.5 1.2-14.4 2.9-12.7 4.6-29.7-2.9-31.9-3.4 1.5 3.4 3 6.5 4.3 9.4 4.4 9.3 10 17.8 17.3 23.2 5.5 4.1 11.8 5.7 17.8 2.7 5.2-2.7 28.7-15.4 35.9-15.1z"/><path fill-rule="evenodd" d="m152.8 48.5c-3.8 0-7.8-1.4-11.7-4.3-6.5-4.8-12.4-12.7-17.4-23.3-1.2-2.8-2.7-5.9-4.2-9.5l-0.3-0.7 0.7 0.2q0.5 0.1 1.7 0.5c5.3 1.9 19.2 6.9 30 3q0.8-0.3 1.6-0.6c4.2-1.6 8.2-3.1 12.9-2.4 5.3 0.8 10.6 3 15.8 6.6 2.5 1.8 4.9 3.8 7.2 6.1 1 0.9 1.9 2.1 2.8 3.2 1.1 1.4 2.3 2.8 3.4 3.9l0.9 0.7h-1.1c-6.3-0.2-26 10-33.5 13.9q-1.4 0.7-2.3 1.2c-2 1-4.2 1.5-6.5 1.5zm-32.2-36.6c1.4 3.2 2.7 6.1 3.9 8.6 4.9 10.5 10.7 18.3 17.1 23.1 5.9 4.4 12.1 5.3 17.4 2.6q0.8-0.4 2.3-1.2c7.8-4 25.5-13.3 32.8-13.9-1-1-1.9-2.1-2.8-3.3-0.9-1.1-1.9-2.2-2.8-3.2-2.2-2.2-4.6-4.2-7-5.9-5.1-3.5-10.3-5.7-15.5-6.5-4.5-0.7-8.4 0.8-12.5 2.3q-0.8 0.3-1.6 0.6c-11.1 4-25.2-1-30.5-2.9q-0.5-0.1-0.8-0.3z"/><path  d="m195 31.9q-0.1 0-0.2-0.1c-0.1-0.1-16.1-8.8-56.7-7.5-0.2 0-0.4-0.2-0.4-0.4 0-0.2 0.2-0.4 0.4-0.4 21.3-0.7 35.7 1.4 44 3.3 9 2 13 4.2 13.1 4.3 0.2 0.1 0.3 0.4 0.2 0.6q-0.1 0.2-0.4 0.2z"/><path class="d" d="m194.3 12.7l19.1 51.9-7.8 1-16-51.9z"/><path fill-rule="evenodd" d="m205.3 66l-0.1-0.3-16.1-52.4 5.5-1 19.4 52.6zm-15.2-52l15.8 51.1 7-0.9-18.9-51z"/><path class="e" d="m209.4 175.8c0.1 6.1 5.2 10.8 11.3 10.6 6.1-0.2 10.8-5.3 10.6-11.3-0.2-6.1-5.2-10.9-11.3-10.7-6.1 0.2-10.8 5.3-10.6 11.4z"/><path fill-rule="evenodd" d="m220.3 186.8c-6.1 0-11.2-4.8-11.4-11-0.2-6.3 4.8-11.6 11.1-11.8 6.3-0.2 11.5 4.8 11.7 11.1 0.2 6.2-4.7 11.5-11 11.7q-0.2 0-0.4 0zm-10.5-11c0.1 5.8 5.1 10.4 10.9 10.2 5.8-0.2 10.4-5.1 10.2-10.9-0.2-5.9-5.1-10.4-10.9-10.3-2.8 0.1-5.4 1.3-7.4 3.4-1.9 2-2.9 4.7-2.8 7.6z"/><path  d="m299.5 109.1c-0.2 0-0.3-0.1-0.4-0.3-0.1-0.2 0.1-0.4 0.3-0.5 11.9-3.7 11.4-16 11.4-16.2 0-0.2 0.2-0.4 0.4-0.4 0.2 0 0.4 0.2 0.4 0.4 0 0.1 0.6 13.1-12 17q0 0-0.1 0z"/><path  d="m305.7 122.2c-0.2 0-0.4-0.1-0.4-0.4 0-0.2 0.2-0.4 0.4-0.4 14.2-0.3 17.6-13.4 17.6-13.5 0.1-0.2 0.3-0.4 0.5-0.3 0.2 0 0.4 0.3 0.3 0.5 0 0.1-3.6 13.8-18.4 14.1q0 0 0 0z"/><path  d="m308.3 139.7c-0.2 0-0.4-0.2-0.4-0.4 0-0.2 0.2-0.4 0.4-0.4 7.5-0.3 12-3.6 14.5-6.2 2.7-2.9 3.6-5.8 3.6-5.8 0.1-0.2 0.3-0.4 0.5-0.3 0.2 0.1 0.4 0.3 0.3 0.5-0.1 0.1-4 12-18.9 12.6q0 0 0 0z"/><path class="c" d="m239.7 176.3q1.7-0.7 3.5-1.2c9.2-2.7 20.4-4.1 32.3-3.6q3.1 0.1 6.1 0.5c8.3 0.7 16 2.3 22.6 4.6q2.2 0.8 4.3 1.6c3.1-9.5 4.8-20.3 4.9-31.8q0.1-6.7-0.6-13c-1.3-11.3-4.2-21.4-8.3-29.8-7.1-14.4-17.6-23.5-29.5-23.5-15.2 0-28.4 14.7-34.9 36.2q-0.1 0.1-0.1 0.1c-2.7 9-4.3 19.1-4.3 29.9-0.1 10.8 1.4 21 4 30z"/><path fill-rule="evenodd" d="m308.7 178.7l-0.4-0.1q-2-0.9-4.2-1.6c-6.8-2.3-14.4-3.9-22.6-4.6q-2.7-0.3-6-0.4c-11.5-0.5-22.7 0.7-32.2 3.5-1.3 0.4-2.4 0.8-3.5 1.1l-0.4 0.2-0.1-0.4c-2.7-9.2-4.1-19.6-4-30.1 0-10.4 1.5-20.5 4.3-29.9q0-0.2 0.1-0.3c6.9-22.4 20.4-36.4 35.3-36.4 11.6 0 22.5 8.7 29.9 23.7 4.2 8.6 7 19 8.3 29.9 0.4 4.3 0.7 8.7 0.6 13.1-0.1 11.2-1.8 22.3-5 31.9zm-38.1-7.7q2.5 0 5 0.1 3.3 0.1 6 0.5c8.3 0.7 16 2.3 22.8 4.6q2 0.7 3.8 1.4c3.1-9.4 4.8-20.2 4.9-31.3 0-4.3-0.2-8.7-0.7-12.9-1.2-10.9-4.1-21.1-8.2-29.6-7.3-14.8-17.9-23.3-29.2-23.3-14.5 0-27.8 13.8-34.5 35.9l-0.1 0.2c-2.8 9.4-4.2 19.4-4.3 29.7 0 10.2 1.3 20.4 3.9 29.4q1.4-0.5 3.1-1c8.2-2.4 17.7-3.7 27.5-3.7z"/><path  d="m243.2 175.1c9.2-2.7 20.4-4.1 32.3-3.6q3.1 0.1 6.1 0.5c8.3 0.7 16 2.3 22.6 4.6 1.2-4.3 1.9-8.9 2.1-13.8 0.8-24.3-13-44.2-30.7-44.5-17.7-0.3-32.7 19.1-33.5 43.4-0.1 4.7 0.3 9.2 1.1 13.4z"/><path fill-rule="evenodd" d="m304.5 177.2l-0.4-0.2c-6.8-2.3-14.4-3.9-22.6-4.6q-2.7-0.3-6-0.4c-11.5-0.5-22.7 0.7-32.2 3.5l-0.4 0.2-0.1-0.5c-0.9-4.4-1.2-8.9-1.1-13.5 0.8-24.3 15.8-43.8 33.5-43.8q0.2 0 0.4 0c7 0.1 13.5 3.2 18.9 8.9 8.1 8.5 12.7 22 12.2 36.1-0.1 4.7-0.8 9.4-2.1 13.8zm-33.9-6.1q2.5 0 5 0.1 3.2 0.1 6 0.4c8.1 0.8 15.6 2.3 22.4 4.6 1.1-4.3 1.8-8.7 1.9-13.3 0.5-13.9-4-27.1-11.9-35.5-5.3-5.5-11.6-8.5-18.4-8.6-17.5-0.3-32.3 19-33.1 43-0.1 4.4 0.2 8.7 1 12.9 8.1-2.4 17.4-3.6 27.1-3.6z"/><path class="c" d="m259.8 148.2c11.9 1.6 13.3 3.1 15.5 17.1 1.1-14.1 2.4-15.8 14.2-18.2-11.9-1.6-13.3-3.1-15.6-17.1-1.1 14.1-2.4 15.8-14.1 18.2z"/><path  d="m134.1 109.2q-0.1 0-0.2 0c-12.4-4.2-11.6-17.1-11.6-17.3 0-0.2 0.2-0.3 0.4-0.3 0.2 0 0.4 0.2 0.4 0.4 0 0.5-0.8 12.5 11.1 16.4 0.2 0.1 0.3 0.3 0.3 0.5-0.1 0.2-0.3 0.3-0.4 0.3z"/><path  d="m129.7 121.6q0 0 0 0c-14.8-0.7-19.6-14.7-19.6-14.9-0.1-0.2 0-0.4 0.2-0.5 0.2-0.1 0.5 0.1 0.5 0.3 0.1 0.1 4.7 13.7 18.9 14.3 0.3 0 0.4 0.2 0.4 0.4 0 0.2-0.2 0.4-0.4 0.4z"/><path  d="m125.8 139.3q0 0 0 0c-14.8-0.9-19.7-12.5-19.8-12.6 0-0.2 0.1-0.4 0.3-0.5 0.2-0.1 0.4 0 0.5 0.2 0 0.1 4.8 11.2 19.1 12.1 0.2 0 0.3 0.2 0.3 0.4 0 0.2-0.2 0.4-0.4 0.4z"/><path class="c" d="m123.5 148.7c0.3 11 2.2 21.2 5.2 30.2 0.1 0.2 0.1 0.3 0.1 0.3q0.1 0.2 0.1 0.3 0.2 0.4 0.3 0.9c1.4-0.6 2.7-1.2 4.2-1.7q0.1 0 0.2-0.1 1.2-0.4 2.5-0.9h0.1c7.6-2.5 16.3-4.2 25.7-4.9 3.7-0.3 7.4-0.3 11-0.2q0.7 0 1.4 0c7.5 0.3 14.5 1.3 20.5 3q1.6 0.4 3.1 0.9c2.4-9.1 3.6-19.3 3.2-30.1-1.1-36.5-19.4-65.6-40.9-65-11.8 0.3-22.2 9.8-28.9 24.3q0 0 0 0-1.5 3.4-2.7 7c-0.1 0.3-0.2 0.5-0.2 0.8q-0.2 0.5-0.4 1c-0.2 0.4-0.3 0.9-0.4 1.4q-0.4 1-0.7 2.2-0.4 1.4-0.8 2.9c-0.2 1-0.5 2-0.6 3.1-0.6 2.7-1.1 5.6-1.4 8.5q-0.2 1.5-0.3 2.9 0 0.1 0 0.2-0.2 2-0.3 4.2 0 1.4-0.1 2.9c0 0.7 0 1.4 0 2.2 0 0.2 0 0.3 0 0.5 0 1.1 0 2.2 0.1 3.2z"/><path fill-rule="evenodd" d="m129 180.9l-0.2-0.4q-0.1-0.4-0.3-0.9 0-0.1 0-0.2-0.1-0.1-0.1-0.2 0 0 0-0.1c-3.2-9.5-5-19.7-5.3-30.3q-0.1-1.5-0.1-3.3 0-0.1 0-0.2 0-0.2 0-0.4 0-0.5 0-1 0-0.6 0-1.1 0.1-1.6 0.1-2.9c0.1-1.3 0.2-2.6 0.3-4.1q0-0.2 0-0.3 0.1-0.8 0.2-1.6 0-0.7 0.1-1.3c0.3-3 0.8-5.9 1.4-8.6 0.1-0.9 0.3-1.9 0.5-2.8l0.1-0.3q0.4-1.4 0.8-3 0.2-1 0.7-2.2 0.1-0.5 0.3-1l0.1-0.3q0.1-0.2 0.2-0.5 0.1-0.3 0.2-0.6 0-0.2 0.1-0.5l0.1-0.2c0.9-2.6 1.8-4.9 2.7-7l0.2-0.3c7-15.1 17.6-24 29.1-24.3q0.4 0 0.7 0c21.4 0 39.5 29.1 40.7 65.4 0.3 10.3-0.8 20.8-3.3 30.2l-0.1 0.4-0.4-0.1c-1.1-0.4-2.1-0.7-3.1-0.9-6.1-1.7-13-2.7-20.4-3q-0.7 0-1.4 0c-3.7-0.1-7.4-0.1-11 0.2-9 0.6-17.9 2.3-25.6 4.9h-0.1q-1.2 0.5-2.4 0.9-0.1 0-0.2 0.1h-0.1c-1.5 0.5-2.8 1.1-4.1 1.7zm-4.8-45.4v0.1 0.1c-0.1 1.5-0.2 2.8-0.3 4.1q0 1.4-0.1 2.9 0 0.6 0 1.1 0 0.6 0 1.1 0 0.2 0 0.3 0 0.1 0 0.3 0 1.7 0.1 3.1v0.1c0.3 10.5 2 20.7 5.2 30q0 0.1 0.1 0.2v0.2q0.1 0.1 0.1 0.2 0.1 0.2 0.2 0.5c1.1-0.5 2.4-1 3.7-1.5q0.2-0.1 0.3-0.1 1.2-0.5 2.5-0.9h0.1c7.8-2.6 16.7-4.3 25.8-5 3.6-0.2 7.3-0.3 11-0.2q0.7 0 1.4 0c7.5 0.3 14.5 1.3 20.7 3q1.2 0.4 2.6 0.8c2.4-9.2 3.5-19.4 3.1-29.6-1.1-35.8-18.8-64.6-39.8-64.6q-0.3 0-0.6 0c-11.3 0.3-21.7 9.1-28.6 24v0.1l-0.1 0.1c-0.9 2.1-1.8 4.3-2.6 6.9l-0.1 0.2q-0.1 0.3-0.1 0.5-0.2 0.4-0.3 0.6-0.1 0.3-0.1 0.5l-0.1 0.3q-0.2 0.5-0.4 1c-0.2 0.8-0.4 1.5-0.6 2.2-0.3 1-0.6 2-0.8 2.9l-0.1 0.3c-0.2 1-0.4 1.8-0.6 2.8-0.5 2.6-1 5.5-1.3 8.5q-0.1 0.6-0.1 1.3-0.1 0.8-0.2 1.6z"/><path  d="m131.1 167.3c0.4 4 1.2 7.8 2.3 11.4q0.1 0 0.2-0.1 1.2-0.4 2.5-0.9h0.1c7.6-2.5 16.3-4.2 25.7-4.9 3.7-0.3 7.4-0.3 11-0.2q0.7 0 1.4 0c7.5 0.3 14.5 1.3 20.5 3 0.6-4.4 0.7-9.1 0.2-13.8-2.4-24.2-18.7-42.6-36.4-41-17.7 1.5-30 22.4-27.5 46.5z"/><path fill-rule="evenodd" d="m133.2 179.4l-0.2-0.5c-1.1-3.7-1.9-7.6-2.3-11.5-1.4-14.1 2.2-27.8 9.6-36.9 5-6 11.3-9.5 18.3-10.1 17.8-1.6 34.4 17 36.9 41.3 0.4 4.7 0.4 9.4-0.2 13.9l-0.1 0.5-0.5-0.1c-6.1-1.7-13-2.7-20.4-3q-0.7 0-1.4 0c-3.7-0.1-7.4-0.1-11 0.2-9 0.6-17.9 2.3-25.6 4.9h-0.1q-1.2 0.5-2.4 0.9-0.1 0-0.2 0.1zm27.5-58.3q-1 0-2 0.1c-6.7 0.6-12.8 4-17.7 9.9-7.3 8.8-10.9 22.4-9.5 36.2 0.4 3.8 1.1 7.4 2.2 10.9q1.1-0.4 2.4-0.8c7.8-2.6 16.8-4.3 25.8-5 3.6-0.3 7.3-0.3 11-0.2q0.8 0 1.5 0c7.3 0.3 14.1 1.2 20.2 2.9 0.5-4.4 0.6-8.8 0.1-13.3-2.4-23-17.4-40.7-34-40.7z"/><path class="c" d="m147.2 152.4c11.9 1.6 13.3 3.1 15.6 17.1 1.1-14.1 2.4-15.8 14.1-18.2-11.9-1.6-13.3-3.1-15.5-17.1-1.2 14.1-2.4 15.8-14.2 18.2z"/><path class="c" d="m267.9 189.7c-1.2 3.5 4.2 5.4 5.5 1.9 1.2-3.6-4.3-5.5-5.5-1.9z"/><path class="c" d="m292 188.8c-1.2 3.6 4.2 5.5 5.5 2 1.2-3.6-4.3-5.5-5.5-2z"/><path class="c" d="m281.3 201.3c-1.2 3.5 4.2 5.4 5.5 1.9 1.2-3.5-4.3-5.4-5.5-1.9z"/><path class="c" d="m141 189.3c-1.4 3.5 3.9 5.8 5.4 2.4 1.5-3.5-3.9-5.8-5.4-2.4z"/><path class="c" d="m165.1 190.3c-1.4 3.4 3.9 5.8 5.4 2.3 1.5-3.4-3.9-5.7-5.4-2.3z"/><path class="c" d="m153.5 201.9c-1.5 3.5 3.9 5.8 5.4 2.4 1.4-3.5-3.9-5.8-5.4-2.4z"/><path class="f" d="m217.8 222c8.2-2 16.6-2.9 25-2.9 7.3 0 21.4-2.6 15.1-14.2-4.2-7.8-14.8-10.5-22.4-11.1-13.2-1-33.1 2.3-43.3 12.5-4.4 4.5-6.4 12.7 0 16.5 7 4.2 18.4 0.9 25.6-0.8z"/><path fill-rule="evenodd" d="m201 225.2c-3.3 0-6.5-0.5-9-2.1-2.4-1.4-3.9-3.5-4.2-6.2-0.5-3.6 1.2-7.9 4.2-10.9 4.6-4.7 11.8-8.3 20.7-10.5 7.4-1.9 15.7-2.6 22.9-2.1 5.2 0.4 17.8 2.3 22.7 11.4 1.9 3.4 2.1 6.4 0.7 8.8-2.6 4.4-10.3 5.9-16.1 5.9q-0.2 0-0.5 0c-8.2 0-16.4 1-24.5 2.9q-0.9 0.2-1.9 0.4c-4.5 1.1-10 2.4-15 2.4zm29.8-31.1c-13.5 0-29.8 4-38.3 12.5-2.8 2.8-4.3 6.8-3.9 10.2 0.3 2.4 1.6 4.3 3.8 5.6 6.3 3.8 16.2 1.4 23.4-0.4q1-0.2 1.9-0.4c8.3-2 16.7-2.9 25.1-2.9q0.1 0 0.1 0c5.6 0 12.9-1.4 15.4-5.5 1.2-2.1 1-4.8-0.7-8.1-4.7-8.6-17-10.5-22.1-10.8q-2.3-0.2-4.7-0.2zm-13 27.9z"/><path  d="m198.6 215.7q-0.2 0-0.3-0.2c-0.2-0.2-0.1-0.5 0.1-0.6 8.5-5.8 18.2-9.3 28.1-10.1 7.7-0.7 15.5 0.3 23 2.8 0.2 0.1 0.3 0.3 0.2 0.5-0.1 0.2-0.3 0.3-0.5 0.3-7.4-2.5-15-3.4-22.6-2.8-9.8 0.8-19.4 4.3-27.8 10q-0.1 0.1-0.2 0.1z"/><path  d="m288.6 263.5c13.5 7.8 26 16.8 39.1 25q0.6 0.3 1.1 0.7c2 1.2 4.1 2.4 6.2 3.5 9.3 4.8 20.1 8.2 29.7 3.1 14.1-7.4 12.1-25.1 7.4-37.8-4.7-13.2-9.5-26.3-15.1-39.1-0.8 4.2-1.6 7.6-3 12.1-1.5 5.1-3.4 9.5-5.2 13.1 3 5.8 4.8 10.8 6.2 14.3 1.8 4.6 9.6 22.2 0.4 23.7-3.6 0.5-7.7-1.2-10.9-2.8q-0.2-0.1-0.4-0.2c-4.1-2.1-7.9-4.4-11.6-6.9q-1.7-1.1-3.4-2.2c-10.6-7.2-21.2-14.1-32.2-20.5-9.1-5.2-17.3 8.8-8.3 14z"/><path class="c" d="m252.5 259.5c1.7 1.4 3.6 2.7 5.6 3.7 2.9 1.6 5.9 2.8 8.8 4.2q0.6 0.2 1.1 0.4c7.9 3.2 13.3 0.3 14.9-0.7 0.2-0.2 0.6-0.2 0.8 0 2 1.7 3.9 3.5 6.7 2.8 1.9-0.5 3.7-1.7 5.2-2.9 5.2-4.1 15.1-19.6 3.1-22.3-0.1 0-0.2-0.1-0.2-0.2q-0.1-0.3-0.1-0.6c-3.4-21.4-19.4-18-22.1-17.3-0.2 0.1-0.5 0.1-0.6-0.1-2.6-2.3-20.7-18.5-27.5-12.8-8.9 7.5 11.2 18.7 16.1 21.7-3-1.9-6.4-1.8-8.7 0.5-3 3-2.8 7.8 0.5 10.6 0.3 0.2 0.9 0.7 1.1 0.8-1.5-0.4-3.7 0.1-5 0.8-2.3 1.1-3.7 3.6-3.3 6.2 0.4 2.1 1.9 3.9 3.6 5.2z"/><path fill-rule="evenodd" d="m289.2 270.4c-2.2 0-3.9-1.4-5.6-2.8l-0.1-0.2c-0.1-0.1-0.3-0.1-0.4 0-1.5 1-7.2 4.1-15.3 0.8q-0.4-0.2-0.8-0.4l-0.2-0.1q-1.3-0.5-2.6-1.1c-2.1-0.9-4.2-1.9-6.3-3-2.3-1.3-4.2-2.5-5.7-3.8-2.1-1.7-3.4-3.6-3.7-5.5-0.4-2.6 1-5.3 3.5-6.6 1-0.5 2.4-0.9 3.8-0.9-1.6-1.4-2.6-3.3-2.7-5.5-0.2-2.1 0.7-4.2 2.2-5.7 1.5-1.5 3.4-2.1 5.4-1.9-5.6-3.5-14.7-9.7-15.1-15.3q-0.2-2.8 2.4-5c6.3-5.3 21.6 7.1 27.9 12.7v0.1q0.2 0.1 0.3 0.1c1.9-0.5 8.4-1.9 14.1 1.8 4.5 2.9 7.3 8.2 8.5 15.7q0 0.2 0.1 0.3 0 0.1 0 0.2c3.2 0.8 5.1 2.5 5.7 5 1.4 6.1-5 15.1-8.8 18.1-1.3 1.1-3.2 2.4-5.3 2.9q-0.7 0.1-1.3 0.1zm-5.9-3.9q0.4 0 0.7 0.3l0.1 0.1c1.9 1.7 3.7 3.2 6.2 2.6 2-0.5 3.7-1.7 5-2.8 3.8-2.9 9.8-11.7 8.5-17.2-0.5-2.3-2.3-3.7-5.2-4.4-0.2 0-0.4-0.2-0.5-0.5 0-0.2 0-0.3 0-0.4q-0.1-0.1-0.1-0.3c-1.1-7.2-3.9-12.3-8.2-15.1-5.4-3.5-11.6-2.2-13.4-1.8-0.3 0.1-0.7 0-1-0.2l-0.1-0.1c-12.7-11.3-22.8-16.1-26.8-12.7-1.5 1.3-2.2 2.7-2.1 4.3 0.4 6 11.9 13 16.7 15.9q0.8 0.5 1.4 0.8 0 0 0 0l-0.5 0.7c-2.9-1.8-6-1.6-8.1 0.5-1.4 1.4-2.1 3.2-2 5.1 0.1 1.9 1 3.6 2.5 4.9 0.8 0.6 1 0.7 1 0.7l-0.2 0.8c-1.5-0.4-3.6 0.1-4.9 0.8-2.1 1.1-3.4 3.4-3 5.7q0.5 2.5 3.4 5c1.5 1.2 3.3 2.4 5.6 3.7 2 1.1 4.2 2 6.3 3q1.2 0.5 2.5 1.1l0.2 0.1q0.4 0.2 0.8 0.3c7.8 3.2 13.1 0.3 14.5-0.7q0.3-0.2 0.7-0.2z"/><path class="c" d="m283 267c0 0 2.5-1 6.8-5.4"/><path  d="m283 267.4c-0.1 0-0.3-0.1-0.3-0.3-0.1-0.2 0-0.4 0.2-0.5 0 0 2.5-1.1 6.7-5.3 0.1-0.2 0.4-0.2 0.5 0 0.2 0.1 0.2 0.4 0 0.5-4.3 4.4-6.8 5.5-6.9 5.5q-0.1 0.1-0.2 0.1z"/><path class="c" d="m295.8 253.6c0 0 2.5-3.1 2.7-9.1"/><path  d="m295.8 254q-0.1 0-0.2-0.1c-0.2-0.1-0.2-0.4-0.1-0.5 0-0.1 2.4-3.1 2.6-8.9 0-0.3 0.2-0.5 0.4-0.4 0.2 0 0.4 0.2 0.4 0.4-0.2 6.1-2.7 9.2-2.8 9.4q-0.1 0.1-0.3 0.1z"/><path  d="m268.4 238.4q-0.1 0-0.2 0l-5-3.2c-0.2-0.1-0.3-0.4-0.1-0.5 0.1-0.2 0.3-0.3 0.5-0.2l5.1 3.2c0.1 0.1 0.2 0.3 0.1 0.5q-0.1 0.2-0.4 0.2z"/><path  d="m261.7 250q0 0-0.1 0l-5-2.6c-0.2-0.1-0.3-0.4-0.2-0.6 0.1-0.2 0.4-0.2 0.6-0.1l4.9 2.5c0.2 0.1 0.3 0.4 0.2 0.6-0.1 0.1-0.2 0.2-0.4 0.2z"/><path  d="m283.8 232.7q-0.1 0-0.3-0.1l-7.8-5.5c-0.2-0.1-0.2-0.4-0.1-0.6 0.1-0.2 0.4-0.2 0.6-0.1l7.8 5.5c0.2 0.2 0.2 0.4 0.1 0.6q-0.1 0.2-0.3 0.2z"/><path  d="m166 301.6c0 4.7-3.8 7.6-8.1 8.1q-5.1 0.5-10.2 1.1c-12.9 1.3-25.7 2.6-38.6 3.4-7.8 0.5-15.8 1.1-23.6 0.1q-5.3-0.7-10.7-1.4c-4.3-0.6-8.8-3.5-12.4-6-3.4-2.3-5.1-7.3-6-11.2-0.8-3.3 0-7.2 1.2-10.3 2.5-6.9 6.6-13.3 10.4-19.5 5.7-9.3 12.1-18 18.4-26.9q3.4 8.7 7.8 16.8c-2.8 3.9-5.6 7.9-8.2 11.9-3.5 5.4-6.9 10.9-9.9 16.6-1.2 2.1-2.5 4.3-3.3 6.5q-0.3 1.1-0.5 2.3 0.2-1 0.4 0.2 0.2 0.5 0.4 1 2.3 1.4 4.6 2.7c6 0.8 11.9 1.7 18 1.6q10.3-0.2 20.5-1.1 5.6-0.5 11.2-1 15.2-1.4 30.5-3c4.4-0.5 8.1 4 8.1 8.1z"/><path class="g" d="m303.2 357.4l-164.1 1.7-10.4-103.7c-0.5-4.6 3-8.6 7.6-8.6l165.1-1.7c4.5 0 8 3.8 7.8 8.3z"/><path fill-rule="evenodd" d="m138.8 359.5l-10.5-104.1c-0.3-2.3 0.5-4.6 2-6.3 1.5-1.7 3.7-2.7 6-2.7l165.1-1.7c2.3 0.1 4.4 0.9 5.9 2.6 1.6 1.6 2.4 3.8 2.3 6.1l-6.1 104.4h-0.3zm162.6-113.9q0 0 0 0l-165.1 1.7c-2.1 0-4 0.8-5.4 2.4-1.4 1.5-2 3.6-1.8 5.7l10.4 103.3 163.3-1.6 6-103.7c0.1-2.1-0.7-4-2.1-5.5-1.4-1.5-3.2-2.3-5.3-2.3zm1.7 111.9z"/><path class="g" d="m303.5 368.7l-164.7 1.4-0.1-11.2 164.5-1.3z"/><path fill-rule="evenodd" d="m138.4 370.5l-0.1-12 165.3-1.3 0.3 11.9h-0.4zm0.7-11.2l0.1 10.3 163.8-1.4-0.3-10.2z"/><path class="c" d="m231 307.8c0 5.4-4.4 9.8-9.8 9.8-5.4 0-9.9-4.4-9.9-9.8 0-5.5 4.5-9.9 9.9-9.9 5.4 0 9.8 4.4 9.8 9.9z"/><path fill-rule="evenodd" d="m221.2 318c-5.7 0-10.3-4.6-10.3-10.2 0-5.7 4.6-10.3 10.3-10.3 5.6 0 10.2 4.6 10.2 10.3 0 5.6-4.6 10.2-10.2 10.2zm0-19.7c-5.2 0-9.4 4.2-9.4 9.5 0 5.2 4.2 9.4 9.4 9.4 5.2 0 9.4-4.2 9.4-9.4 0-5.3-4.2-9.5-9.4-9.5z"/><path class="h" d="m188 361.8q0 2.8-0.1 5.4c-1.6-26.5-13.5-47.2-27.8-47.1-14.3 0.1-25.8 21-27 47.6q-0.2-2.6-0.2-5.4c-0.2-29.1 11.9-52.9 27.1-53 15.2-0.1 27.8 23.4 28 52.5z"/><path fill-rule="evenodd" d="m132.7 367.7c-0.1-1.6-0.2-3.3-0.2-5.4-0.1-14.2 2.7-27.5 7.8-37.6 5.2-10.1 12.2-15.7 19.7-15.8q0.1 0 0.1 0c7.5 0 14.5 5.5 19.9 15.5 5.3 10 8.3 23.3 8.4 37.4 0 2.1 0 3.9-0.1 5.5h-0.8c-1.6-26.7-13.4-46.8-27.3-46.8q0 0-0.1 0c-14 0.1-25.4 20.4-26.6 47.2zm27.4-58q0 0-0.1 0c-7.2 0.1-13.9 5.5-19 15.4-4.8 9.4-7.5 21.8-7.7 35 2.9-23.4 13.8-40.3 26.8-40.4q0.1 0 0.1 0c13 0 24.1 16.7 27.4 39.9-0.4-13.2-3.4-25.5-8.3-34.8-5.2-9.7-12-15.1-19.2-15.1z"/><path class="c" d="m188.1 372.6c0.2 29.2-11.9 52.9-27.1 53-15.2 0.2-27.8-23.4-28-52.5-0.2-29.1 11.9-52.9 27.1-53 15.2-0.1 27.7 23.4 28 52.5z"/><path fill-rule="evenodd" d="m160.9 426c-15.4 0-28.1-23.7-28.3-52.9-0.1-14.2 2.6-27.5 7.8-37.6 5.2-10.1 12.2-15.7 19.7-15.8q0.1 0 0.1 0c7.5 0 14.5 5.5 19.9 15.5 5.3 10 8.3 23.3 8.4 37.4 0.1 14.2-2.7 27.5-7.8 37.6-5.2 10.1-12.2 15.8-19.7 15.8q-0.1 0-0.1 0zm-0.7-105.5q0 0-0.1 0c-7.2 0.1-13.9 5.5-19 15.4-5.1 10-7.8 23.2-7.7 37.2 0.2 28.8 12.6 52.1 27.5 52.1q0 0 0.1 0c7.2 0 13.9-5.5 19-15.4 5.1-9.9 7.8-23.1 7.7-37.2-0.1-14-3.1-27.1-8.4-37-5.1-9.7-11.9-15.1-19.1-15.1z"/><path  d="m136.9 345.6c-0.2 0-0.4-0.2-0.4-0.4 0-0.2 0.2-0.4 0.4-0.4l46.8-0.4q0 0 0 0c0.2 0 0.4 0.2 0.4 0.4 0 0.2-0.2 0.4-0.4 0.4l-46.8 0.4q0 0 0 0z"/><path  d="m133.1 369c-0.3 0-0.4-0.2-0.4-0.4 0-0.3 0.1-0.5 0.4-0.5l54.7-0.4c0.3 0 0.4 0.2 0.4 0.4 0.1 0.2-0.1 0.4-0.4 0.4l-54.7 0.5q0 0 0 0z"/><path  d="m134.4 389.5c-0.2 0-0.4-0.1-0.4-0.4 0-0.2 0.2-0.4 0.4-0.4l52.5-0.4c0.3 0 0.4 0.2 0.4 0.4 0 0.2-0.1 0.4-0.4 0.4l-52.5 0.4q0 0 0 0z"/><path  d="m141.3 410.6c-0.2 0-0.4-0.1-0.4-0.4 0-0.2 0.2-0.4 0.4-0.4l39.1-0.3c0.2 0 0.4 0.2 0.4 0.4 0 0.2-0.2 0.4-0.4 0.4l-39 0.3q-0.1 0-0.1 0z"/><path class="h" d="m310.5 361.8q0 2.8-0.1 5.4c-1.6-26.5-13.6-47.2-27.8-47.1-14.3 0.1-25.8 21-27 47.6q-0.2-2.6-0.2-5.4c-0.2-29.1 11.9-52.9 27.1-53 15.2-0.1 27.7 23.4 28 52.5z"/><path fill-rule="evenodd" d="m255.2 367.7c-0.1-1.6-0.2-3.3-0.2-5.4-0.1-14.2 2.6-27.5 7.8-37.6 5.2-10.1 12.2-15.7 19.7-15.8q0 0 0.1 0c7.5 0 14.5 5.5 19.8 15.5 5.4 10 8.4 23.3 8.5 37.4 0 2.1 0 3.9-0.1 5.5h-0.8c-1.7-26.7-13.4-46.8-27.3-46.8q-0.1 0-0.1 0c-14 0.1-25.4 20.4-26.6 47.2zm27.4-58q-0.1 0-0.1 0c-7.2 0.1-14 5.5-19 15.4-4.8 9.4-7.5 21.8-7.7 35 2.9-23.4 13.7-40.3 26.8-40.4q0 0 0.1 0c13 0 24.1 16.7 27.3 39.9-0.4-13.2-3.3-25.5-8.3-34.8-5.1-9.7-11.9-15.1-19.1-15.1z"/><path class="c" d="m310.6 372.6c0.2 29.2-11.9 52.9-27.1 53-15.3 0.2-27.8-23.4-28-52.5-0.3-29.1 11.9-52.9 27.1-53 15.2-0.1 27.7 23.4 28 52.5z"/><path fill-rule="evenodd" d="m283.3 426c-15.3 0-28-23.7-28.2-52.9-0.2-14.2 2.6-27.5 7.8-37.6 5.2-10.1 12.2-15.7 19.7-15.8q0 0 0.1 0c7.5 0 14.5 5.5 19.8 15.5 5.4 10 8.3 23.3 8.5 37.4 0.1 14.2-2.7 27.5-7.8 37.6-5.2 10.1-12.2 15.8-19.7 15.8q-0.1 0-0.2 0zm-0.6-105.5q-0.1 0-0.1 0c-7.2 0.1-14 5.5-19 15.4-5.1 10-7.8 23.2-7.7 37.2 0.2 28.8 12.5 52.1 27.4 52.1q0.1 0 0.2 0c7.2 0 13.9-5.5 18.9-15.4 5.1-9.9 7.9-23.1 7.8-37.2-0.2-14-3.1-27.1-8.4-37-5.2-9.7-11.9-15.1-19.1-15.1z"/><path  d="m259.4 345.6c-0.2 0-0.4-0.2-0.4-0.4 0-0.2 0.2-0.4 0.4-0.4l46.8-0.4q0 0 0 0c0.2 0 0.4 0.2 0.4 0.4 0 0.2-0.2 0.4-0.4 0.4l-46.8 0.4q0 0 0 0z"/><path  d="m255.3 369c-0.2 0-0.4-0.2-0.4-0.4 0-0.3 0.1-0.5 0.4-0.5l55-0.4c0.2 0 0.4 0.2 0.4 0.4 0 0.2-0.2 0.4-0.4 0.4l-55 0.5q0 0 0 0z"/><path  d="m256.9 389.5c-0.2 0-0.4-0.1-0.4-0.4 0-0.2 0.2-0.4 0.4-0.4l52.5-0.4c0.2 0 0.4 0.2 0.4 0.4 0 0.2-0.2 0.4-0.4 0.4l-52.5 0.4q0 0 0 0z"/><path  d="m263.8 410.6c-0.2 0-0.4-0.1-0.4-0.4 0-0.2 0.2-0.4 0.4-0.4l39.1-0.3c0.2 0 0.4 0.2 0.4 0.4 0 0.2-0.2 0.4-0.4 0.4l-39.1 0.3q0 0 0 0z"/><path class="c" d="m11.2 37.6c8.4-21.6 32.8-32.3 54.4-23.9 21.6 8.4 32.3 32.8 23.9 54.4-2.2 5.8-5.7 10.8-9.9 14.8l6.3 16.7-17.1-9.1c-10.2 5-22.3 5.9-33.6 1.5-21.7-8.4-32.4-32.7-24-54.4z"/><path fill-rule="evenodd" d="m86.6 100.4l-17.8-9.4c-10.6 5.1-22.9 5.6-33.8 1.4-10.5-4.1-18.9-12.1-23.4-22.5-4.6-10.3-4.8-21.9-0.7-32.4 4.1-10.6 12-18.9 22.4-23.5 10.4-4.5 21.9-4.8 32.4-0.7 10.6 4.1 18.9 12.1 23.5 22.5 4.6 10.3 4.8 21.9 0.7 32.4-2.2 5.6-5.5 10.6-9.8 14.9zm-17.8-10.4l0.2 0.1 16.1 8.5-6-15.8 0.2-0.2c4.3-4.2 7.6-9.2 9.8-14.8 4-10.3 3.8-21.6-0.7-31.8-4.5-10.2-12.6-18-23-22-10.3-4-21.6-3.8-31.8 0.7-10.2 4.5-18 12.6-22 23-4 10.3-3.8 21.7 0.7 31.8 4.4 10.2 12.6 18 23 22 10.7 4.2 22.9 3.7 33.3-1.4z"/><path class="f" d="m33.6 27q6.5-1.8 13.6-1.8 17.6 0 21.6 9.7 0.9 2.3 0.9 5 0 7.2-4 10.9-1.5 1.4-3.9 3-2.5 1.7-3.6 2.8-2.8 2.6-3.9 6.3h-12.7q-1-3.1-1-5.7 0-2.6 0.7-4.3 0.7-1.6 1.8-2.7 1.1-1.2 2.3-2 1.3-0.8 2.4-1.6 1-0.7 1.8-1.4 0.7-0.7 0.7-1.7 0-4-5.6-4-3.9 0-9.3 1.8-1.2 0.4-1.8 0.7zm21.7 46c0 4.2-3.4 7.5-7.6 7.5-4.1 0-7.5-3.3-7.5-7.5 0-4.1 3.4-7.5 7.5-7.5 4.2 0 7.6 3.4 7.6 7.5z"/><path fill-rule="evenodd" d="m47.7 81c-4.3 0-7.9-3.6-7.9-7.9 0-4.4 3.6-7.9 7.9-7.9 4.4 0 8 3.5 8 7.9 0 4.3-3.6 7.9-8 7.9zm0-15c-3.9 0-7.1 3.2-7.1 7.1 0 3.9 3.2 7.1 7.1 7.1 4 0 7.2-3.2 7.2-7.1 0-3.9-3.2-7.1-7.2-7.1zm6.9-2.7h-13.3l-0.1-0.3q-1.1-3.2-1.1-5.8 0-2.7 0.8-4.4 0.7-1.7 1.9-2.9 1.1-1.2 2.4-2.1l2.3-1.5q1.1-0.7 1.8-1.4 0.6-0.6 0.6-1.4c0-2.4-1.7-3.6-5.2-3.6-2.5 0-5.6 0.6-9.2 1.8q-1.2 0.4-1.7 0.6l-0.6 0.3v-15.9h0.3c4.4-1.3 9-1.9 13.7-1.9 11.9 0 19.3 3.4 21.9 10q1 2.3 1 5.1c0 4.9-1.4 8.7-4.1 11.2q-1.5 1.4-4 3.1-2.4 1.6-3.6 2.7c-1.8 1.7-3 3.7-3.7 6.1zm-12.7-0.8h12.1q1.1-3.6 3.9-6.2 1.2-1.1 3.6-2.8 2.5-1.7 3.9-3c2.6-2.4 3.9-5.9 3.9-10.6q0-2.7-0.9-4.8c-2.6-6.3-9.7-9.5-21.2-9.5-4.6 0-9 0.6-13.2 1.8v14q0.5-0.2 1.3-0.5c3.6-1.2 6.8-1.8 9.4-1.8 4 0 6 1.5 6 4.5q0 1.1-0.9 1.9-0.7 0.8-1.8 1.5l-2.4 1.5q-1.2 0.8-2.3 1.9-1 1.2-1.7 2.7-0.7 1.6-0.7 4.1 0 2.4 1 5.3z"/><path class="c" d="m420.2 38.6c-8.7-22.4-33.9-33.5-56.3-24.8-22.4 8.8-33.5 34-24.8 56.4 2.3 6 5.9 11.2 10.2 15.4l-6.4 17.3 17.7-9.4c10.5 5.1 23 6.1 34.8 1.5 22.4-8.7 33.5-33.9 24.8-56.4z"/><path fill-rule="evenodd" d="m342.1 103.7l6.8-18c-4.5-4.4-7.9-9.6-10.2-15.3-4.2-11-4-22.9 0.7-33.7 4.8-10.7 13.4-19 24.3-23.2 22.6-8.8 48.1 2.4 56.9 25 8.8 22.6-2.4 48.1-25 56.9-11.3 4.4-24.1 3.8-35-1.5zm37.5-92.4c-5.2 0-10.5 1-15.6 3-10.7 4.1-19.2 12.2-23.8 22.8-4.7 10.5-4.9 22.2-0.8 33 2.3 5.8 5.7 10.9 10.2 15.3l0.2 0.1-6.2 16.5 16.9-8.9 0.2 0.1c10.8 5.2 23.4 5.8 34.6 1.5 22.1-8.7 33.1-33.7 24.5-55.9-6.6-17-22.9-27.5-40.2-27.5z"/><path class="h" d="m363.9 27.7q6.8-1.9 14.1-1.9 18.2 0 22.4 10 0.9 2.4 0.9 5.2 0 7.5-4.1 11.3-1.6 1.4-4.1 3.1-2.5 1.8-3.8 2.9-2.8 2.7-4 6.5h-13.1q-1.1-3.2-1.1-5.9 0-2.7 0.7-4.4 0.8-1.7 1.9-2.9 1.1-1.2 2.4-2 1.3-0.9 2.5-1.6 1.1-0.7 1.8-1.5 0.8-0.7 0.8-1.7 0-4.2-5.8-4.2-4.1 0-9.6 1.9-1.3 0.4-1.9 0.7zm22.4 47.7c0 4.3-3.4 7.8-7.7 7.8-4.3 0-7.8-3.5-7.8-7.8 0-4.3 3.5-7.8 7.8-7.8 4.3 0 7.7 3.5 7.7 7.8z"/><path fill-rule="evenodd" d="m378.6 83.6c-4.6 0-8.2-3.7-8.2-8.2 0-4.5 3.6-8.2 8.2-8.2 4.5 0 8.1 3.7 8.1 8.2 0 4.5-3.6 8.2-8.1 8.2zm0-15.6c-4.1 0-7.4 3.3-7.4 7.4 0 4.1 3.3 7.4 7.4 7.4 4 0 7.3-3.3 7.3-7.4 0-4.1-3.3-7.4-7.3-7.4zm7-2.8h-13.7l-0.1-0.3q-1.1-3.3-1.1-6 0-2.8 0.8-4.5 0.7-1.8 1.9-3 1.2-1.3 2.5-2.2l2.4-1.5q1.1-0.8 1.8-1.5 0.7-0.6 0.7-1.4c0-2.6-1.8-3.8-5.4-3.8-2.6 0-5.8 0.6-9.5 1.9q-1.2 0.4-1.8 0.6l-0.6 0.3v-16.4l0.3-0.1c4.5-1.3 9.3-1.9 14.2-1.9 12.3 0 19.9 3.4 22.7 10.3q1 2.4 1 5.3c0 5.1-1.4 9-4.2 11.6q-1.6 1.4-4.2 3.2-2.5 1.7-3.7 2.8c-1.8 1.7-3.2 3.9-3.9 6.3zm-13.1-0.8h12.5c0.8-2.5 2.2-4.6 4.1-6.4q1.2-1.2 3.8-2.9 2.5-1.7 4-3.1c2.6-2.5 4-6.1 4-11q0-2.8-0.9-5c-2.7-6.5-10.1-9.8-22-9.8-4.7 0-9.3 0.6-13.7 1.8v14.6q0.6-0.2 1.3-0.5c3.8-1.3 7.1-1.9 9.8-1.9 4.1 0 6.2 1.5 6.2 4.6q0 1.2-0.9 2-0.8 0.8-1.9 1.5l-2.5 1.6q-1.2 0.9-2.3 2-1.1 1.2-1.8 2.8-0.7 1.6-0.7 4.2 0 2.5 1 5.5z"/></svg>