<svg version="1.2" xmlns="http://www.w3.org/2000/svg" viewBox="0 0 456 522" width="456" height="522"><style>.a{fill:#ff4a00}.b{fill:#fff}.c{fill:#fc0}.d{fill:#ff8717}.e{fill:#b9a4e9}.f{fill:#5a0ce1}.g{fill:#79cc9e}</style><path  d="m112.1 478.6q9.5-6.3 19.1-12.6c-4.7-9.1-9.2-18.3-13.2-27.7-5.7-13.4-11.4-28.6-11.9-43.4-0.2-5.1 0.4-9 2.1-13.1 1.4-3.6 4.5-7.9 6.9-10.6 7.3-8 15.2-12.8 25.2-18.2 11.1-5.9 22.7-10.7 34.1-16.1 5.5-2.7 7-10.7 4-15.6-3.3-5.7-10-6.8-15.6-4.1-21.8 10.3-46 19.1-63.1 37-9.1 9.6-14.9 21.3-16.2 34.5-1.7 16.3 4.1 33.9 9.8 48.9 5.4 14.1 12 27.6 18.8 41z"/><path class="a" d="m136.9 465.7l0.1 30.3-71.2 2.4-32.3 1.1c0 0-4.7-34.4 30.7-39.6q5.2-0.7 11.7-0.6c-0.7-1.1-2.5-5-1.6-10 0.2-1 1.3-6 5.1-8.7 5-3.4 18.5-2.4 24.9 4l12.2-0.1c0 0 18.5-8.4 25 2.2 5.6 10.2-4.6 19-4.6 19z"/><path fill-rule="evenodd" d="m33.1 500l-0.1-0.5c0-0.3-4.3-34.9 31.2-40.1 3.3-0.5 7-0.7 10.8-0.6-0.9-2-2-5.5-1.2-9.6 0.3-1.5 1.5-6.3 5.3-9 5.4-3.7 18.8-2.4 25.4 3.9l11.9-0.1c0.7-0.3 5-2.2 10.1-2.9 7.3-1 12.7 0.8 15.5 5.3 5.2 9.7-3.3 18.2-4.6 19.5l0.1 30.6zm40.5-40.2q-5 0-9.4 0.6c-32.7 4.8-30.7 34.3-30.3 38.5l102.5-3.4-0.1-30.1 0.2-0.1c0-0.1 2.5-2.2 4.3-5.6 2.4-4.4 2.5-8.7 0.3-12.8-6.3-10.1-24.3-2.1-24.5-2l-0.2 0.1-12.3 0.1-0.2-0.2c-6.1-6-19.3-7.3-24.3-3.9-3.5 2.5-4.6 7-4.8 8.3-0.9 4.5 0.5 8 1.4 9.8l0.4 0.7h-0.8q-1.1 0-2.2 0z"/><path class="b" d="m33.5 499.5c-0.4 0.4-2.2 2.2-2.3 5-0.2 3.5 2 5.7 2.3 6q52 0 103.9 0c0.6-0.6 2.6-3.2 2.7-7 0.1-4.1-2.2-6.9-2.7-7.5q-51.9 1.7-103.9 3.5z"/><path fill-rule="evenodd" d="m137.6 511h-104.3l-0.1-0.1c-0.5-0.5-2.8-2.8-2.5-6.4 0.1-2.9 1.8-4.7 2.5-5.4l0.1-0.1 104.3-3.5 0.2 0.1c0.9 1.1 2.9 3.9 2.8 7.9-0.1 3.8-2 6.4-2.8 7.4zm-103.9-1h103.4c0.8-1 2.4-3.3 2.5-6.6 0.1-3.4-1.6-5.9-2.5-7l-103.4 3.5c-0.7 0.7-1.9 2.3-2.1 4.6-0.2 2.8 1.5 4.8 2.1 5.5z"/><path class="b" d="m65.8 498.4l-32.3 1.1c0 0-4.7-34.4 30.7-39.6 3.7 6.4 7 18.4 1.6 38.5z"/><path fill-rule="evenodd" d="m33.1 500l-0.1-0.5c0-0.3-4.3-34.9 31.2-40.1h0.3l0.2 0.3c3.7 6.6 7 18.6 1.6 38.8l-0.1 0.4zm30.8-39.5c-14.3 2.1-23.7 9.3-27.9 21.3-2.7 7.8-2.2 15.3-2.1 17.1l31.4-1c5.2-19.3 2.2-31-1.4-37.4z"/><path  d="m129.7 469.8l-0.3-0.9q2-0.6 3.9-1.5 1.7-0.9 3.3-2.1l0.6 0.7q-1.6 1.3-3.5 2.3-1.9 1-4 1.5z"/><path  d="m97.4 465.8l-21.7-6 0.3-1 21.7 6.1z"/><path  d="m90.7 476.1l-20.7-16.3 0.7-0.8 20.6 16.4z"/><path class="b" d="m102 465.9c0 1.3-1.1 2.3-2.4 2.3-1.3 0-2.4-1-2.4-2.3 0-1.3 1.1-2.4 2.4-2.4 1.3 0 2.4 1.1 2.4 2.4z"/><path fill-rule="evenodd" d="m99.6 468.7c-1.6 0-2.9-1.3-2.9-2.8 0-1.6 1.3-2.9 2.9-2.9 1.6 0 2.9 1.3 2.9 2.9 0 1.5-1.3 2.8-2.9 2.8zm0-4.7c-1 0-1.9 0.8-1.9 1.9 0 1 0.9 1.8 1.9 1.8 1 0 1.9-0.8 1.9-1.8 0-1.1-0.9-1.9-1.9-1.9z"/><path class="b" d="m95.1 477.1c0 1.3-1.1 2.3-2.4 2.3-1.3 0-2.3-1-2.3-2.3 0-1.3 1-2.4 2.3-2.4 1.3 0 2.4 1.1 2.4 2.4z"/><path fill-rule="evenodd" d="m92.7 479.9c-1.6 0-2.8-1.2-2.8-2.8 0-1.6 1.2-2.9 2.8-2.9 1.6 0 2.9 1.3 2.9 2.9 0 1.6-1.3 2.8-2.9 2.8zm0-4.7c-1 0-1.8 0.9-1.8 1.9 0 1 0.8 1.8 1.8 1.8 1 0 1.9-0.8 1.9-1.8 0-1-0.9-1.9-1.9-1.9z"/><path  d="m112.1 478.6q9.5-6.3 19.1-12.6c-4.7-9.1-9.2-18.3-13.2-27.7-5.7-13.4-11.4-28.6-11.9-43.4-0.2-5.1 0.4-9 2.1-13.1 1.4-3.6 4.5-7.9 6.9-10.6 7.3-8 15.2-12.8 25.2-18.2 11.1-5.9 22.7-10.7 34.1-16.1 5.5-2.7 7-10.7 4-15.6-3.3-5.7-10-6.8-15.6-4.1-21.8 10.3-46 19.1-63.1 37-9.1 9.6-14.9 21.3-16.2 34.5-1.7 16.3 4.1 33.9 9.8 48.9 5.4 14.1 12 27.6 18.8 41z"/><path class="c" d="m136.9 465.7l0.1 30.3-71.2 2.4-32.3 1.1c0 0-4.7-34.4 30.7-39.6q5.2-0.7 11.7-0.6c-0.7-1.1-2.5-5-1.6-10 0.2-1 1.3-6 5.1-8.7 5-3.4 18.5-2.4 24.9 4l12.2-0.1c0 0 18.5-8.4 25 2.2 5.6 10.2-4.6 19-4.6 19z"/><path fill-rule="evenodd" d="m33.1 500l-0.1-0.5c0-0.3-4.3-34.9 31.2-40.1 3.3-0.5 7-0.7 10.8-0.6-0.9-2-2-5.5-1.2-9.6 0.3-1.5 1.5-6.3 5.3-9 5.4-3.7 18.8-2.4 25.4 3.9l11.9-0.1c0.7-0.3 5-2.2 10.1-2.9 7.3-1 12.7 0.8 15.5 5.3 5.2 9.7-3.3 18.2-4.6 19.5l0.1 30.6zm40.5-40.2q-5 0-9.4 0.6c-32.7 4.8-30.7 34.3-30.3 38.5l102.5-3.4-0.1-30.1 0.2-0.1c0-0.1 2.5-2.2 4.3-5.6 2.4-4.4 2.5-8.7 0.3-12.8-6.3-10.1-24.3-2.1-24.5-2l-0.2 0.1-12.3 0.1-0.2-0.2c-6.1-6-19.3-7.3-24.3-3.9-3.5 2.5-4.6 7-4.8 8.3-0.9 4.5 0.5 8 1.4 9.8l0.4 0.7h-0.8q-1.1 0-2.2 0z"/><path class="b" d="m33.5 499.5c-0.4 0.4-2.2 2.2-2.3 5-0.2 3.5 2 5.7 2.3 6q52 0 103.9 0c0.6-0.6 2.6-3.2 2.7-7 0.1-4.1-2.2-6.9-2.7-7.5q-51.9 1.7-103.9 3.5z"/><path fill-rule="evenodd" d="m137.6 511h-104.3l-0.1-0.1c-0.5-0.5-2.8-2.8-2.5-6.4 0.1-2.9 1.8-4.7 2.5-5.4l0.1-0.1 104.3-3.5 0.2 0.1c0.9 1.1 2.9 3.9 2.8 7.9-0.1 3.8-2 6.4-2.8 7.4zm-103.9-1h103.4c0.8-1 2.4-3.3 2.5-6.6 0.1-3.4-1.6-5.9-2.5-7l-103.4 3.5c-0.7 0.7-1.9 2.3-2.1 4.6-0.2 2.8 1.5 4.8 2.1 5.5z"/><path class="b" d="m65.8 498.4l-32.3 1.1c0 0-4.7-34.4 30.7-39.6 3.7 6.4 7 18.4 1.6 38.5z"/><path fill-rule="evenodd" d="m33.1 500l-0.1-0.5c0-0.3-4.3-34.9 31.2-40.1h0.3l0.2 0.3c3.7 6.6 7 18.6 1.6 38.8l-0.1 0.4zm30.8-39.5c-14.3 2.1-23.7 9.3-27.9 21.3-2.7 7.8-2.2 15.3-2.1 17.1l31.4-1c5.2-19.3 2.2-31-1.4-37.4z"/><path  d="m129.7 469.8l-0.3-0.9q2-0.6 3.9-1.5 1.7-0.9 3.3-2.1l0.6 0.7q-1.6 1.3-3.5 2.3-1.9 1-4 1.5z"/><path  d="m97.4 465.8l-21.7-6 0.3-1 21.7 6.1z"/><path  d="m90.7 476.1l-20.7-16.3 0.7-0.8 20.6 16.4z"/><path class="b" d="m102 465.9c0 1.3-1.1 2.3-2.4 2.3-1.3 0-2.4-1-2.4-2.3 0-1.3 1.1-2.4 2.4-2.4 1.3 0 2.4 1.1 2.4 2.4z"/><path fill-rule="evenodd" d="m99.6 468.7c-1.6 0-2.9-1.3-2.9-2.8 0-1.6 1.3-2.9 2.9-2.9 1.6 0 2.9 1.3 2.9 2.9 0 1.5-1.3 2.8-2.9 2.8zm0-4.7c-1 0-1.9 0.8-1.9 1.9 0 1 0.9 1.8 1.9 1.8 1 0 1.9-0.8 1.9-1.8 0-1.1-0.9-1.9-1.9-1.9z"/><path class="b" d="m95.1 477.1c0 1.3-1.1 2.3-2.4 2.3-1.3 0-2.3-1-2.3-2.3 0-1.3 1-2.4 2.3-2.4 1.3 0 2.4 1.1 2.4 2.4z"/><path fill-rule="evenodd" d="m92.7 479.9c-1.6 0-2.8-1.2-2.8-2.8 0-1.6 1.2-2.9 2.8-2.9 1.6 0 2.9 1.3 2.9 2.9 0 1.6-1.3 2.8-2.9 2.8zm0-4.7c-1 0-1.8 0.9-1.8 1.9 0 1 0.8 1.8 1.8 1.8 1 0 1.9-0.8 1.9-1.8 0-1-0.9-1.9-1.9-1.9z"/><path  d="m318.2 478.6q-9.6-6.3-19.1-12.6c4.6-9.1 9.1-18.3 13.1-27.7 5.7-13.4 11.5-28.6 11.9-43.4 0.2-5.1-0.4-9-2-13.1-1.5-3.6-4.5-7.9-6.9-10.6-7.3-8-15.2-12.8-25.3-18.2-11.1-5.9-22.7-10.7-34-16.1-5.6-2.7-7-10.7-4.1-15.6 3.3-5.7 10-6.8 15.6-4.1 21.9 10.3 46.1 19.1 63.1 37 9.2 9.6 14.9 21.3 16.3 34.5 1.6 16.3-4.1 33.9-9.9 48.9-5.3 14.1-11.9 27.6-18.7 41z"/><path class="a" d="m293.4 465.7l-0.1 30.3 71.2 2.4 32.2 1.1c0 0 4.7-34.4-30.7-39.6q-5.2-0.7-11.6-0.6c0.6-1.1 2.5-5 1.5-10-0.2-1-1.2-6-5.1-8.7-4.9-3.4-18.4-2.4-24.9 4l-12.1-0.1c0 0-18.5-8.4-25.1 2.2-5.5 10.2 4.7 19 4.7 19z"/><path fill-rule="evenodd" d="m397.1 500l-32.6-1.1-71.7-2.4 0.1-30.6c-1.4-1.3-9.9-9.8-4.6-19.5 2.8-4.5 8.1-6.3 15.5-5.3 5.1 0.7 9.4 2.6 10.1 2.9l11.8 0.1c6.6-6.3 20.1-7.6 25.4-3.9 3.8 2.7 5 7.5 5.3 9 0.8 4.1-0.3 7.6-1.2 9.6 3.9-0.1 7.6 0.1 10.9 0.6 35.5 5.2 31.1 39.8 31.1 40.1zm-103.3-4.5l102.4 3.5c0.5-4.2 2.4-33.7-30.3-38.5-3.5-0.5-7.4-0.7-11.5-0.6h-0.9l0.4-0.8c0.9-1.7 2.3-5.3 1.5-9.7-0.3-1.3-1.4-5.9-4.9-8.3-5-3.5-18.1-2.1-24.3 3.9l-0.1 0.1-12.6-0.1c-0.1-0.1-18.2-8.1-24.4 2-5.3 9.7 4.5 18.2 4.6 18.3l0.1 0.2z"/><path class="b" d="m396.7 499.5c0.4 0.4 2.2 2.2 2.4 5 0.2 3.5-2.1 5.7-2.4 6q-51.9 0-103.8 0c-0.6-0.6-2.7-3.2-2.8-7-0.1-4.1 2.2-6.9 2.8-7.5q51.9 1.7 103.8 3.5z"/><path fill-rule="evenodd" d="m396.9 511h-104.3l-0.1-0.1c-0.9-1-2.8-3.6-2.9-7.4-0.1-4 2-6.8 2.9-7.9l0.1-0.1h0.3l104 3.5 0.2 0.1c0.7 0.7 2.3 2.5 2.5 5.4 0.2 3.5-1.9 5.8-2.5 6.4zm-103.9-1h103.5c0.5-0.6 2.2-2.6 2-5.5-0.1-2.3-1.4-3.9-2.1-4.6l-103.4-3.5c-0.9 1.1-2.5 3.6-2.4 7.1 0 3.2 1.6 5.5 2.4 6.5z"/><path class="b" d="m364.5 498.4l32.2 1.1c0 0 4.7-34.4-30.7-39.6-3.6 6.4-7 18.4-1.5 38.5z"/><path fill-rule="evenodd" d="m397.1 500l-33-1.1-0.1-0.4c-5.5-20.1-2.2-32.2 1.6-38.8l0.2-0.3h0.3c35.5 5.2 31.1 39.8 31.1 40.1zm-32.3-2.1l31.4 1.1c0.4-4 2-33.6-29.9-38.5-3.6 6.5-6.6 18.1-1.5 37.4z"/><path  d="m300.6 469.8q-2.1-0.5-4.1-1.5-1.8-1-3.4-2.3l0.6-0.7q1.5 1.2 3.3 2.1 1.8 0.9 3.8 1.5z"/><path  d="m332.8 465.8l-0.2-0.9 21.7-6.1 0.2 1z"/><path  d="m339.5 476.1l-0.6-0.7 20.7-16.4 0.6 0.8z"/><path class="b" d="m328.3 465.9c0 1.3 1 2.3 2.4 2.3 1.3 0 2.3-1 2.3-2.3 0-1.3-1-2.4-2.3-2.4-1.4 0-2.4 1.1-2.4 2.4z"/><path fill-rule="evenodd" d="m330.7 468.7c-1.6 0-2.9-1.3-2.9-2.8 0-1.6 1.3-2.9 2.9-2.9 1.5 0 2.8 1.3 2.8 2.9 0 1.5-1.3 2.8-2.8 2.8zm0-4.7c-1.1 0-1.9 0.8-1.9 1.9 0 1 0.8 1.8 1.9 1.8 1 0 1.8-0.8 1.8-1.8 0-1.1-0.8-1.9-1.8-1.9z"/><path class="b" d="m335.2 477.1c0 1.3 1 2.3 2.3 2.3 1.3 0 2.4-1 2.4-2.3 0-1.3-1.1-2.4-2.4-2.4-1.3 0-2.3 1.1-2.3 2.4z"/><path fill-rule="evenodd" d="m337.5 479.9c-1.5 0-2.8-1.2-2.8-2.8 0-1.6 1.3-2.9 2.8-2.9 1.6 0 2.9 1.3 2.9 2.9 0 1.6-1.3 2.8-2.9 2.8zm0-4.7c-1 0-1.8 0.9-1.8 1.9 0 1 0.8 1.8 1.8 1.8 1.1 0 1.9-0.8 1.9-1.8 0-1-0.8-1.9-1.9-1.9z"/><path  d="m318.2 478.6q-9.6-6.3-19.1-12.6c4.6-9.1 9.1-18.3 13.1-27.7 5.7-13.4 11.5-28.6 11.9-43.4 0.2-5.1-0.4-9-2-13.1-1.5-3.6-4.5-7.9-6.9-10.6-7.3-8-15.2-12.8-25.3-18.2-11.1-5.9-22.7-10.7-34-16.1-5.6-2.7-7-10.7-4.1-15.6 3.3-5.7 10-6.8 15.6-4.1 21.9 10.3 46.1 19.1 63.1 37 9.2 9.6 14.9 21.3 16.3 34.5 1.6 16.3-4.1 33.9-9.9 48.9-5.3 14.1-11.9 27.6-18.7 41z"/><path class="c" d="m293.4 465.7l-0.1 30.3 71.2 2.4 32.2 1.1c0 0 4.7-34.4-30.7-39.6q-5.2-0.7-11.6-0.6c0.6-1.1 2.5-5 1.5-10-0.2-1-1.2-6-5.1-8.7-4.9-3.4-18.4-2.4-24.9 4l-12.1-0.1c0 0-18.5-8.4-25.1 2.2-5.5 10.2 4.7 19 4.7 19z"/><path fill-rule="evenodd" d="m397.1 500l-32.6-1.1-71.7-2.4 0.1-30.6c-1.4-1.3-9.9-9.8-4.6-19.5 2.8-4.5 8.1-6.3 15.5-5.3 5.1 0.7 9.4 2.6 10.1 2.9l11.8 0.1c6.6-6.3 20.1-7.6 25.4-3.9 3.8 2.7 5 7.5 5.3 9 0.8 4.1-0.3 7.6-1.2 9.6 3.9-0.1 7.6 0.1 10.9 0.6 35.5 5.2 31.1 39.8 31.1 40.1zm-103.3-4.5l102.4 3.5c0.5-4.2 2.4-33.7-30.3-38.5-3.5-0.5-7.4-0.7-11.5-0.6h-0.9l0.4-0.8c0.9-1.7 2.3-5.3 1.5-9.7-0.3-1.3-1.4-5.9-4.9-8.3-5-3.5-18.1-2.1-24.3 3.9l-0.1 0.1-12.6-0.1c-0.1-0.1-18.2-8.1-24.4 2-5.3 9.7 4.5 18.2 4.6 18.3l0.1 0.2z"/><path class="b" d="m396.7 499.5c0.4 0.4 2.2 2.2 2.4 5 0.2 3.5-2.1 5.7-2.4 6q-51.9 0-103.8 0c-0.6-0.6-2.7-3.2-2.8-7-0.1-4.1 2.2-6.9 2.8-7.5q51.9 1.7 103.8 3.5z"/><path fill-rule="evenodd" d="m396.9 511h-104.3l-0.1-0.1c-0.9-1-2.8-3.6-2.9-7.4-0.1-4 2-6.8 2.9-7.9l0.1-0.1h0.3l104 3.5 0.2 0.1c0.7 0.7 2.3 2.5 2.5 5.4 0.2 3.5-1.9 5.8-2.5 6.4zm-103.9-1h103.5c0.5-0.6 2.2-2.6 2-5.5-0.1-2.3-1.4-3.9-2.1-4.6l-103.4-3.5c-0.9 1.1-2.5 3.6-2.4 7.1 0 3.2 1.6 5.5 2.4 6.5z"/><path class="b" d="m364.5 498.4l32.2 1.1c0 0 4.7-34.4-30.7-39.6-3.6 6.4-7 18.4-1.5 38.5z"/><path fill-rule="evenodd" d="m397.1 500l-33-1.1-0.1-0.4c-5.5-20.1-2.2-32.2 1.6-38.8l0.2-0.3h0.3c35.5 5.2 31.1 39.8 31.1 40.1zm-32.3-2.1l31.4 1.1c0.4-4 2-33.6-29.9-38.5-3.6 6.5-6.6 18.1-1.5 37.4z"/><path  d="m300.6 469.8q-2.1-0.5-4.1-1.5-1.8-1-3.4-2.3l0.6-0.7q1.5 1.2 3.3 2.1 1.8 0.9 3.8 1.5z"/><path  d="m332.8 465.8l-0.2-0.9 21.7-6.1 0.2 1z"/><path  d="m339.5 476.1l-0.6-0.7 20.7-16.4 0.6 0.8z"/><path class="b" d="m328.3 465.9c0 1.3 1 2.3 2.4 2.3 1.3 0 2.3-1 2.3-2.3 0-1.3-1-2.4-2.3-2.4-1.4 0-2.4 1.1-2.4 2.4z"/><path fill-rule="evenodd" d="m330.7 468.7c-1.6 0-2.9-1.3-2.9-2.8 0-1.6 1.3-2.9 2.9-2.9 1.5 0 2.8 1.3 2.8 2.9 0 1.5-1.3 2.8-2.8 2.8zm0-4.7c-1.1 0-1.9 0.8-1.9 1.9 0 1 0.8 1.8 1.9 1.8 1 0 1.8-0.8 1.8-1.8 0-1.1-0.8-1.9-1.8-1.9z"/><path class="b" d="m335.2 477.1c0 1.3 1 2.3 2.3 2.3 1.3 0 2.4-1 2.4-2.3 0-1.3-1.1-2.4-2.4-2.4-1.3 0-2.3 1.1-2.3 2.4z"/><path fill-rule="evenodd" d="m337.5 479.9c-1.5 0-2.8-1.2-2.8-2.8 0-1.6 1.3-2.9 2.8-2.9 1.6 0 2.9 1.3 2.9 2.9 0 1.6-1.3 2.8-2.9 2.8zm0-4.7c-1 0-1.8 0.9-1.8 1.9 0 1 0.8 1.8 1.8 1.8 1.1 0 1.9-0.8 1.9-1.8 0-1-0.8-1.9-1.9-1.9z"/><path class="d" d="m271.6 70.4c-14-16.2-27.5-32.5-40.9-49.2-5.7-7.3-16.5 2.3-10.8 9.5 13.4 16.8 26.9 33.1 40.9 49.2 6.1 7.1 16.9-2.5 10.8-9.5z"/><path fill-rule="evenodd" d="m265.8 82.9c-1.8 0-3.7-0.7-5.4-2.6-14.1-16.3-27.4-32.4-40.8-49.3-3.2-4-1.6-8.7 1.5-11.2 2.7-2.2 7-2.8 10 1 13.4 16.9 26.8 33 40.9 49.2 3.2 3.8 2 8.3-1 10.9-1.4 1.2-3.2 2-5.2 2zm-40-63.8c-1.5 0-3 0.6-4.1 1.5-2.8 2.2-4.2 6.3-1.4 9.8 13.4 16.9 26.8 33 40.9 49.2 2.9 3.3 6.8 2.6 9.2 0.5 2.5-2.1 3.8-6 0.8-9.4-14.1-16.2-27.4-32.3-40.9-49.2-1.3-1.7-2.9-2.4-4.5-2.4z"/><path class="d" d="m236.1 17.4c-0.6 9-8.3 15.9-17.3 15.3-9-0.5-15.9-8.3-15.4-17.3 0.6-9 8.3-15.9 17.3-15.3 9 0.5 15.9 8.3 15.4 17.3z"/><path fill-rule="evenodd" d="m219.8 33.3q-0.5 0-1.1-0.1c-9.2-0.5-16.3-8.5-15.8-17.8 0.6-9.3 8.6-16.4 17.9-15.8 9.2 0.5 16.3 8.5 15.8 17.8-0.6 8.9-8 15.9-16.8 15.9zm-0.1-32.7c-8.3 0-15.3 6.5-15.8 14.9-0.5 8.7 6.2 16.2 14.9 16.7 8.7 0.6 16.3-6.1 16.8-14.8 0.5-8.8-6.2-16.3-14.9-16.8q-0.5 0-1 0z"/><path class="b" d="m216.4 3.6c-7.2-0.5-7.8 10.7-0.6 11.1 7.1 0.5 7.8-10.7 0.6-11.1z"/><path class="d" d="m195.2 65.8c15.9-14.4 31.2-28.9 46.5-44 6.6-6.5 16.1 4.3 9.5 10.8-15.2 15.1-30.6 29.6-46.4 44-6.9 6.2-16.5-4.6-9.6-10.8z"/><path fill-rule="evenodd" d="m200.2 79q-1 0-2.1-0.4c-2.7-0.8-5-3.3-5.6-6.2-0.6-2.6 0.3-5.1 2.4-7 15.9-14.4 31.1-28.8 46.4-43.9 1.9-1.9 4.3-2.6 6.6-2 2.7 0.8 5 3.2 5.8 6 0.7 2.8-0.1 5.4-2.1 7.5-15.4 15.1-30.6 29.5-46.5 44-1.5 1.3-3.1 2-4.9 2zm46-58.7c-1.3 0-2.7 0.4-4.2 1.9-15.3 15.2-30.5 29.5-46.5 44-1.8 1.6-2.5 3.8-2 6 0.5 2.5 2.5 4.7 4.9 5.5 2.1 0.7 4.3 0.1 6-1.5 15.9-14.4 31.1-28.8 46.5-44 1.8-1.7 2.4-4 1.8-6.4-0.7-2.5-2.7-4.7-5-5.3q-0.7-0.2-1.5-0.2z"/><path class="d" d="m236.8 17.4c-0.5 9 6.3 16.8 15.3 17.3 9.1 0.6 16.8-6.3 17.3-15.3 0.6-9-6.3-16.8-15.3-17.3-9-0.6-16.8 6.3-17.3 15.3z"/><path fill-rule="evenodd" d="m253.1 35.3q-0.5 0-1-0.1c-9.3-0.5-16.4-8.5-15.8-17.8 0.6-9.3 8.6-16.4 17.8-15.8 9.3 0.5 16.4 8.5 15.8 17.8-0.5 8.9-7.9 15.9-16.8 15.9zm0-32.8c-8.3 0-15.3 6.5-15.8 15-0.5 8.7 6.1 16.2 14.9 16.7 8.7 0.5 16.2-6.1 16.7-14.9 0.6-8.7-6.1-16.2-14.8-16.7q-0.5-0.1-1-0.1z"/><path class="b" d="m258.4 6.1c-7.1-0.5-7.8 10.7-0.6 11.1 7.2 0.5 7.8-10.7 0.6-11.1z"/><path class="d" d="m391.4 94.6l-1-4.2c-3.4-13.9-13.3-25.4-26.6-30.9-4.5-1.8-9.3-2.9-14.2-3.2l-230.3-13.8c-4.9-0.3-9.8 0.2-14.5 1.5-13.9 3.9-25.1 14.1-30.1 27.5l-1.5 4.1c-1.4 3.8-2.3 7.9-2.6 12l-7.2 88.6 325.7 19.4 3.5-88.8c0.1-4.1-0.3-8.2-1.2-12.2z"/><path fill-rule="evenodd" d="m389.6 196.2l-0.5-0.1-326.2-19.5 7.2-89.1c0.3-4.1 1.2-8.2 2.7-12.1l1.5-4c5-13.6 16.4-24 30.3-27.8 4.8-1.4 9.8-1.9 14.7-1.6l230.3 13.8c5 0.3 9.8 1.4 14.4 3.3 13.4 5.5 23.4 17.1 26.8 31.2l1.1 4.2c0.9 4 1.3 8.2 1.2 12.4zm-325.6-20.5l324.6 19.4 3.5-88.3c0.1-4.1-0.3-8.2-1.2-12.1l-1-4.2c-3.4-13.7-13.2-25.2-26.3-30.5-4.5-1.9-9.2-2.9-14.1-3.2l-230.2-13.8c-4.9-0.3-9.7 0.2-14.4 1.5-13.7 3.8-24.8 13.9-29.7 27.2l-1.5 4c-1.4 3.8-2.3 7.8-2.6 11.9z"/><path class="e" d="m374.8 128.2l-4.1-28.5c-1.7-12.2-11.8-21.6-24.2-22.3l-226.7-13.6c-12.4-0.7-23.5 7.4-26.7 19.3l-7.4 27.8-58 156.4c-5.9 15.9-4.3 33.6 4.2 48.3l5.6 9.5c6.6 11.4 18.5 18.7 31.7 19.5l294.1 17.6c13.2 0.8 25.8-5.1 33.8-15.6l5.8-7.6c10.8-14.3 14.6-32.6 10.4-50z"/><path fill-rule="evenodd" d="m365.7 362.8q-1.2 0-2.4-0.1l-294.2-17.6c-13.3-0.8-25.3-8.2-32-19.7l-5.6-9.5c-8.7-14.9-10.2-32.6-4.2-48.8l57.9-156.4 7.4-27.7c3.2-12.1 14.7-20.4 27.2-19.7l226.7 13.6c12.6 0.8 23 10.3 24.7 22.8l4.1 28.4 38.5 160.8c4.2 17.6 0.4 36-10.5 50.4l-5.8 7.6c-7.6 10.1-19.3 15.9-31.8 15.9zm-247.5-298.5c-11.4 0-21.7 7.8-24.6 19l-7.5 27.8-57.9 156.4c-5.9 15.8-4.3 33.3 4.2 47.9l5.5 9.5c6.6 11.2 18.3 18.4 31.3 19.2l294.1 17.6c13.1 0.8 25.5-5 33.4-15.4l5.8-7.6c10.7-14.2 14.5-32.3 10.3-49.6l-38.5-160.8-4.1-28.5c-1.7-12-11.7-21.2-23.7-21.9l-226.7-13.6q-0.8 0-1.6 0z"/><path  d="m90.1 320.6c-0.1-13.3-3-26.7-8.4-38.9-5.2-12-12.7-22.6-22.2-31.7l0.7-0.7c9.6 9.2 17.1 19.9 22.5 32 5.4 12.3 8.3 25.9 8.4 39.3z"/><path  d="m356.5 336.5l-1-0.1c1.7-13.5 6.2-26.3 13.1-38 6.7-11.4 15.5-21.1 26-29.1l0.6 0.8c-10.4 7.9-19.1 17.6-25.8 28.8-6.8 11.6-11.2 24.2-12.9 37.6z"/><path  d="m421.6 303.9q-3.3 0.8-6.7 1.3c-14.8 2.1-30.5-0.1-45.1-1.9q-27.2-3.5-54.5-7c-6.1-0.7-11.4-4.6-11.4-11.4 0-5.6 5.3-12.2 11.4-11.4 21.1 2.7 42.1 5.7 63.2 8 9.1 1 18.2 1.7 27.2 1.5 2-0.1 4.1 0.2 6.2 0.2 3.4 0 6.5-0.6 8.4-3.8 2.4-4.4 0.3-10.9-1.7-14.6-3.5-6.3-7.7-12.4-11.9-18.3q-2.6-3.5-5.2-6.9l-13.4-55.9q0.4 0.5 0.8 1c6.2 8.6 12.1 17.4 18.6 25.8 6 8 12.5 15.6 18.3 23.7 7.7 10.6 16.5 22.6 19.1 35.6 3.4 17-6.9 30.1-23.3 34.1z"/><path class="c" d="m295.1 255.5q1.4 0 2.7-0.9c-0.9 0.7-1.8 1-2.7 0.9z"/><path  d="m295.5 256q-0.3 0-0.5 0l0.1-1q1.2 0 2.5-0.8l0.5 0.8q-1.3 1-2.6 1z"/><path class="c" d="m296 255.7q0.4 0.1 0.9 0c-1.4 0.5-3.4 0.1-6.6-1.4-3.2-1.6-4.7-9.8-3-20.6 1.8-10.9 6-18.7 9.4-18.5 2.9 0.1 4.8 0.8 6.1 1.5q-0.2-0.1-0.4-0.1c-3.4-0.6-7.6 7.7-9.4 18.5-1.8 10.8-0.4 20 3 20.6z"/><path fill-rule="evenodd" d="m295.6 256.4q-2.1 0-5.5-1.7c-3.6-1.7-5-10.6-3.2-21.1 1.7-11 6-19.1 9.9-18.9 2.4 0.1 4.5 0.6 6.2 1.6l-0.4 0.9q-0.1-0.1-0.3-0.1-0.7-0.2-1.6 0.5c-2.9 2-5.8 9.2-7.2 17.6-1.9 11.4-0.2 19.5 2.6 20q0.3 0.1 0.7 0l0.3 0.9q-0.7 0.3-1.5 0.3zm1-40.7c-2.8 0-6.9 6.8-8.8 18-1.8 11.3 0.1 18.8 2.7 20.1q2.2 1.1 3.7 1.4c-2.7-2.9-3.1-11.9-1.7-20.2 1.4-8.7 4.5-16 7.6-18.2q0.3-0.3 0.7-0.4-1.8-0.6-4.1-0.7 0 0-0.1 0z"/><path class="c" d="m303.6 217.2q-0.4-0.3-0.8-0.5 0.4 0.2 0.8 0.5z"/><path  d="m303.3 217.6q-0.4-0.3-0.7-0.5l0.4-0.9q0.5 0.2 0.9 0.6z"/><path class="c" d="m296 255.7c-3.4-0.6-4.8-9.8-3-20.6 1.8-10.8 6-19.1 9.4-18.5 3.4 0.6 4.7 9.8 3 20.6-1.8 10.8-6 19.1-9.4 18.5z"/><path fill-rule="evenodd" d="m296.3 256.2q-0.2 0-0.4 0c-4.2-0.7-5-11.3-3.4-21.2 1.4-8.7 4.5-16 7.6-18.2q1.2-0.9 2.4-0.7c4.2 0.7 5 11.3 3.4 21.2-1.5 8.7-4.5 16-7.6 18.2q-1 0.7-2 0.7zm-0.2-1q0.7 0.1 1.6-0.5c2.9-2 5.8-9.3 7.2-17.6 1.9-11.4 0.2-19.6-2.6-20q-0.8-0.2-1.6 0.5c-2.9 2-5.9 9.2-7.2 17.6-1.9 11.4-0.2 19.5 2.6 20z"/><path class="c" d="m305.6 257q1.4 0 2.7-0.9c-0.9 0.7-1.8 1-2.7 0.9z"/><path  d="m306 257.5q-0.3 0-0.5 0l0.1-1q1.2 0 2.5-0.8l0.5 0.8q-1.3 1-2.6 1z"/><path class="c" d="m306.5 257.2q0.4 0.1 0.9 0c-1.4 0.5-3.4 0.1-6.6-1.4-3.2-1.6-4.7-9.8-3-20.6 1.8-10.8 6-18.7 9.4-18.5 2.9 0.1 4.8 0.8 6.1 1.5q-0.2-0.1-0.4-0.1c-3.4-0.6-7.6 7.7-9.4 18.5-1.8 10.8-0.4 20 3 20.6z"/><path fill-rule="evenodd" d="m306.1 257.9q-2.1 0-5.5-1.7c-3.6-1.7-5-10.6-3.2-21.1 1.7-10.9 5.9-18.9 9.7-18.9q0.1 0 0.2 0c2.4 0.1 4.5 0.6 6.2 1.6l-0.4 0.9q-0.1-0.1-0.3-0.1-0.8-0.1-1.6 0.5c-2.9 2-5.9 9.3-7.2 17.6-1.9 11.4-0.2 19.6 2.6 20q0.3 0.1 0.7 0l0.3 1q-0.7 0.2-1.5 0.2zm1-40.7c-2.8 0-6.9 6.8-8.8 18-1.8 11.3 0.1 18.8 2.7 20.1q2.2 1.1 3.7 1.4c-2.7-2.9-3.1-11.8-1.7-20.2 1.4-8.7 4.5-16 7.6-18.2q0.3-0.3 0.7-0.4-1.8-0.6-4.1-0.7 0 0-0.1 0z"/><path class="c" d="m314.1 218.7q-0.4-0.2-0.8-0.5 0.4 0.2 0.8 0.5z"/><path  d="m313.8 219.1q-0.4-0.2-0.7-0.4l0.4-0.9q0.5 0.1 0.9 0.6z"/><path class="c" d="m306.5 257.2c-3.5-0.6-4.8-9.8-3-20.6 1.8-10.8 6-19.1 9.4-18.5 3.4 0.6 4.7 9.8 3 20.6-1.8 10.8-6 19.1-9.4 18.5z"/><path fill-rule="evenodd" d="m306.8 257.8q-0.2 0-0.4-0.1c-4.2-0.7-5-11.3-3.4-21.2 1.4-8.7 4.5-16 7.6-18.2q1.2-0.9 2.4-0.7c4.2 0.7 5 11.3 3.4 21.2-1.5 8.7-4.5 16-7.6 18.2q-1 0.8-2 0.8zm-0.2-1.1q0.7 0.2 1.6-0.5c2.9-2 5.8-9.2 7.2-17.6 1.8-11.4 0.2-19.5-2.6-20q-0.8-0.1-1.6 0.5c-2.9 2-5.9 9.3-7.2 17.6-1.9 11.4-0.2 19.6 2.6 20z"/><path class="b" d="m321.9 264.5c0 0 9.8-8.6 12.6 2.7 2.1 8.6-1.8 26.5-3.7 34.4-0.9 3.6-4 6.4-7.7 6.7-2.9 0.2-6-1.1-8-6.2-4.2 1.8-10.8 4.2-19.2 4.4-5.4 0.1-24 0.6-30.2-11.1-1-1.8-3.2-6.9-1.1-15.2-3.9-4.3-4.5-10-1.9-13.5 1.7-2.4 4.6-3.1 5.7-3.3 0 0-5.6-22.8 5.4-30.9 6.4-4.5 11.1-0.6 12.3 3 0.8 2.4 0.7 5 0.4 7.8-0.7 6.8-0.7 23.8 9.4 23.3 8.7-0.5 6.9-12.4 8.5-19.3 0.9-3.5 1.5-9.2 5.8-10.1 4.7-1 7.4 4.2 8.5 7.9q0.7 2.1 1 4.4z"/><path fill-rule="evenodd" d="m322.5 308.8c-2.4 0-5.6-1.1-7.7-6-6.1 2.6-12.5 4-18.9 4.2-16.1 0.4-26.4-3.4-30.7-11.3-1.5-2.9-3-8-1.1-15.4-3.8-4.3-4.6-10.2-1.8-13.9 1.6-2.1 3.9-3 5.5-3.4-0.3-1.5-1.3-6.4-1.3-12-0.1-9 2.4-15.5 7-18.9 3.6-2.5 6.4-2.3 8.1-1.8 2.7 0.9 4.3 3.2 5 5 0.9 2.6 0.7 5.4 0.4 8-0.6 5.7-0.5 16.3 3.7 20.8 1.4 1.4 3.1 2.1 5.1 2 6.1-0.4 6.7-6.8 7.3-12.9 0.2-2.2 0.4-4.2 0.8-6q0.2-0.6 0.3-1.4c0.8-3.5 1.8-8.3 5.9-9.1 4.6-1 7.7 3.6 9.1 8.2 0.4 1.4 0.7 2.8 1 4.5l2.1 14.2c1.5-1.1 5.1-3.5 8.3-2.5 2.1 0.7 3.6 2.7 4.4 6 2.1 8.8-1.9 27.1-3.7 34.6-1 4-4.3 6.8-8.2 7.1q-0.3 0-0.6 0zm-7.2-7.3l0.2 0.4c1.7 4.1 4.2 6.1 7.6 5.9 3.4-0.3 6.3-2.9 7.2-6.3 1.8-7.4 5.8-25.6 3.7-34.2q-1.1-4.4-3.7-5.2c-3.5-1.1-8 2.8-8.1 2.8l-0.7 0.6-2.3-15.9c-0.2-1.7-0.6-3.1-0.9-4.4-0.5-1.4-2.9-8.6-8-7.5-3.5 0.7-4.4 4.9-5.1 8.3q-0.1 0.8-0.3 1.5c-0.4 1.7-0.6 3.7-0.8 5.8-0.6 6.2-1.3 13.4-8.2 13.8q-3.5 0.2-5.9-2.4c-4.5-4.7-4.6-15.7-4-21.5 0.3-2.5 0.5-5.1-0.4-7.5-0.5-1.7-2-3.7-4.3-4.4-2.2-0.7-4.7-0.2-7.2 1.6-10.6 7.8-5.3 30.2-5.2 30.4l0.1 0.5-0.5 0.1c-1.4 0.3-3.9 1-5.4 3.1-2.6 3.4-1.8 8.8 1.9 12.9l0.2 0.2-0.1 0.2c-1.9 7.3-0.5 12.1 1 14.9 4.1 7.6 14.1 11.2 29.7 10.8 6.5-0.2 12.9-1.6 19.1-4.3z"/><path  d="m282 273.3c-3.7-0.1-11.6-5.5-14.1-9.7l0.9-0.5c2.3 3.9 9.9 9.2 13.3 9.2z"/><path  d="m277.7 288.6c-2.8 0-10.8-4.5-13.6-8.2l0.8-0.6c2.7 3.6 10.6 7.9 12.9 7.8v1q0 0-0.1 0z"/><path  d="m320.1 275.3l-1-0.2 2.3-10.7 1 0.2z"/><path  d="m315.8 302.1l-0.9-0.2 1.4-6.5 1 0.2z"/><path  d="m147.2 226.1c-21.7 6.5-42.5 15.6-63.9 22.8-15.3 5.2-30.1 12.1-46.1 14.9-2.6 0.4-5.5 0.7-8.4 0.7-13.1 0.2-27.4-4.4-25.9-20.2 0.6-6.5 4.1-12.5 7.6-17.8 4.8-7.2 10.4-13.9 16-20.4 12.4-14.4 25.9-27.8 39.2-41.3l-18 48.5q-2 2.3-4.1 4.6c-3.8 4.5-7.6 9-11.2 13.7-2.9 3.9-11.1 13.6-0.3 13.3 1.4 0 2.8-0.3 4.2-0.7 3.9-1 7.6-3.2 11.4-4.4 30.7-10.1 60.3-23.4 91.3-32.7 5.4-1.6 11.2-0.2 13.6 5.4 2.1 4.7 0 12-5.4 13.6z"/><path class="b" d="m131.1 200.4c1.3-0.5 1.1-4 1.1-5.4 0-9.5 7.2-18.4 12.4-22.4 2.1-1.7 9-7.4 13.7-6.3 10.2 2.3 0.8 18-1.9 23 2.4-0.9 3.1-1.1 3.7-1.3q1.8-0.7 3.7-1.4 3.2-1.2 6.4-2.7c5-2.3 9.7-5.1 14.7-7.3 3.4-1.5 8.5-3.9 12-1.5 2.4 1.5 2.4 4.8 2.3 7.3q0 0.1 0 0.2c0 0 11 2.1 4.3 13.5 1.2 0.5 2.6 0.8 3.2 1.9 2.5 4-1.8 10.9-4 14.1-5.5 8.1-13.7 15.9-22.1 21-7.1 4.2-15 5.9-23.2 4.7q-2.3-0.4-4.6-1c-1.3-0.3-3.7-1.6-5-1.5 0 0-0.4 1.8-0.5 2-0.5 1.5-1.2 2.9-2.3 4.1-2.4 2.7-6.4 3.9-9.8 2.2-5.2-2.5-7.1-8.4-9-13.4-2.2-6-5-11.8-7.5-17.7-7.7-17.7 7-14.9 9.1-13.8 3.1 1.6 2.6 2 3.3 1.7z"/><path fill-rule="evenodd" d="m138.5 245c-1.3 0-2.5-0.3-3.6-0.9-5.1-2.5-7.2-8.1-9-13.1l-0.2-0.6c-1.6-4.2-3.4-8.4-5.2-12.4q-1.2-2.6-2.3-5.3c-2.9-6.6-3-11.2-0.4-13.6 3.1-3 9-1.5 10.3-0.9 1.5 0.8 2.2 1.3 2.6 1.6q0.1 0.1 0.1 0.1 0.1 0 0.1 0c0.8-0.3 0.8-3.4 0.8-4.4v-0.5c-0.1-10.2 7.9-19.2 12.6-22.9l0.4-0.3c2.7-2.1 9-7.2 13.8-6.1q3.3 0.8 4.5 3.4c2.3 5.2-2.7 14.4-5.4 19.2 0.6-0.3 1.1-0.4 1.4-0.5 0.4-0.2 0.6-0.2 0.9-0.3q1.8-0.7 3.7-1.4c2.1-0.8 4.3-1.7 6.4-2.7 2.3-1.1 4.7-2.3 6.9-3.5 2.5-1.3 5.1-2.7 7.8-3.9h0.1c3.5-1.6 8.7-3.9 12.5-1.4 2.4 1.6 2.6 4.7 2.5 7.6 1.2 0.3 4.5 1.5 5.8 4.5 1.2 2.4 0.7 5.5-1.2 9.1 1 0.4 2.2 0.8 2.8 1.9 1.9 3.1 0.6 7.9-4 14.7-5.7 8.3-14.1 16.2-22.4 21.2-7.1 4.3-15.2 6-23.4 4.8q-2.3-0.4-4.8-1c-0.5-0.1-1.1-0.4-1.8-0.7-0.8-0.3-1.8-0.7-2.6-0.8 0 0.2-0.1 0.5-0.1 0.7-0.1 0.4-0.2 0.8-0.2 0.8q-0.9 2.6-2.4 4.4c-1.9 2-4.5 3.2-7 3.2zm-15.3-46.6c-1.6 0-3.4 0.4-4.6 1.5-2.2 2.1-2 6.3 0.6 12.4q1.1 2.6 2.3 5.2c1.8 4.1 3.7 8.3 5.2 12.5l0.3 0.6c1.7 4.8 3.7 10.2 8.4 12.5 3 1.5 6.8 0.6 9.2-2.1q1.4-1.6 2.2-3.9c0-0.1 0.1-0.4 0.2-0.7 0.3-1.6 0.3-1.6 0.7-1.7 1-0.1 2.3 0.5 3.6 1 0.6 0.2 1.2 0.5 1.6 0.6q2.4 0.6 4.6 0.9c8 1.2 15.8-0.4 22.8-4.6 8.1-4.9 16.3-12.7 21.9-20.9 4.3-6.3 5.7-10.8 4.1-13.4-0.5-0.8-1.5-1.1-2.4-1.4q-0.3-0.2-0.6-0.3l-0.6-0.2 0.3-0.6c2.1-3.5 2.6-6.4 1.6-8.6-1.4-3.2-5.4-4-5.5-4l-0.5-0.1 0.1-0.7c0.1-2.6-0.1-5.5-2.1-6.9-3.2-2.1-8.1 0.1-11.3 1.5l-0.1 0.1c-2.7 1.2-5.2 2.5-7.8 3.8-2.2 1.2-4.6 2.4-6.9 3.5-2.1 1-4.3 1.9-6.5 2.8q-1.9 0.7-3.7 1.3c-0.3 0.1-0.5 0.2-0.9 0.4-0.6 0.1-1.4 0.4-2.9 0.9l-1.4 0.5 1.2-2.1c2.3-4.2 7.8-13.8 5.6-18.7-0.6-1.4-1.8-2.2-3.7-2.7-4.2-0.9-10.5 4-12.8 5.9l-0.4 0.3c-4.6 3.6-12.3 12.2-12.2 22v0.4c0 2.5 0 5-1.5 5.5-0.6 0.3-0.8 0.2-1.3-0.2-0.3-0.2-1-0.7-2.5-1.5-0.6-0.3-2.4-0.8-4.3-0.8z"/><path  d="m168.6 202.2l-0.4-1c0.2-0.1 20.9-8.1 30.6-18.9l0.8 0.7c-9.9 11-30.8 19.2-31 19.2z"/><path  d="m177.5 215.9l-0.4-1.1c11.9-5.1 26.3-18.9 26.5-19l0.8 0.8c-0.2 0.1-14.8 14-26.9 19.3z"/><path  d="m134 207.1l-2.9-6.8 1-0.4 3 6.7z"/><path  d="m147.1 235.5l-2.2-6.2 1.1-0.4 2.2 6.2z"/><path class="b" d="m214.1 97.8c-0.4 0.9-2.8 5.9-3.8 7.4-13.2 22.2-39.2 33.1-63.9 27.5q-6.3-1.4-12.3-4.3c-29.5-14-42.1-49.3-28.1-78.8 14-29.6 49.3-42.1 78.9-28.1q3.4 1.6 6.6 3.7c15.6 10 25.2 26.5 26.9 44.1q0 0.1 0 0.1 0.1 0.8 0.2 1.7c0.5 8.9-0.9 18-4.5 26.7z"/><path fill-rule="evenodd" d="m159.7 134.7c-4.4 0-8.9-0.5-13.4-1.6-4.2-0.9-8.4-2.3-12.4-4.2-14.4-6.9-25.3-18.9-30.6-33.9-5.4-15-4.6-31.2 2.3-45.6 6.8-14.4 18.8-25.3 33.9-30.7 15-5.3 31.2-4.5 45.6 2.3 2.3 1.1 4.5 2.4 6.7 3.8 15.5 9.9 25.3 26.1 27.1 44.5v0.1l0.2 1.6c0.6 9.3-1 18.4-4.6 27-0.4 1-2.8 5.9-3.8 7.5-10.9 18.4-30.4 29.2-51 29.2zm-0.2-118.5c-6.6 0-13.3 1.2-19.7 3.5-14.8 5.2-26.6 15.9-33.3 30.1-6.7 14.1-7.5 30.1-2.3 44.8 5.3 14.8 16 26.6 30.1 33.4 4 1.8 8.1 3.2 12.3 4.2 24.8 5.6 50.3-5.3 63.3-27.2 0.9-1.5 3.3-6.5 3.7-7.4 3.6-8.4 5.1-17.3 4.5-26.5l-0.2-1.8c-1.8-18.1-11.5-34-26.6-43.7-2.2-1.4-4.4-2.6-6.7-3.7-7.9-3.8-16.5-5.7-25.1-5.7z"/><path  d="m191.6 125.3c-16.7 10.3-38.5 12-56.6 3.3q-2.9-1.3-5.6-3c-4.6-2.9-8.9-6.4-12.6-10.5 1.9-7.3 11.3-4.8 14.3-11.2 2.6-5.2 1.3-10.8 6.7-13.9 4.3-2.6 10.3-0.4 15.4-0.7 10.1-0.4 7.9-7.1 12.7-15.4 3.1-5.2 6.7-6.1 12.9-5.8 7.2 0.4 7.8 1.8 10.5-4.9 1.6-4.1 1.8-10 4.7-13 4.2-4.3 11.6-4.2 17.4 0.7q1.3 1.1 2.6 2.3c7.2 17.1 5.8 36-2.8 51.4-0.4 0.4-0.6 0.9-0.8 1.5-0.9 2.8-3.8 5.7-5.7 7.9-3.8 4.5-8.2 8.2-13.1 11.3z"/><path fill-rule="evenodd" d="m160 134.7c-8.7 0-17.3-1.9-25.3-5.6q-2.8-1.4-5.5-3.1c-4.7-2.9-9-6.4-12.8-10.5l-0.2-0.2 0.1-0.3c1.1-4.1 4.4-5.3 7.6-6.5 2.8-1 5.4-2 6.8-4.8 0.9-1.8 1.3-3.6 1.7-5.4 0.7-3.4 1.5-6.6 5.2-8.8 3-1.7 6.7-1.3 10.3-1 1.8 0.2 3.6 0.4 5.3 0.3 6.6-0.3 7.6-3.3 9.2-7.9 0.7-2.2 1.6-4.6 3.1-7.2 3.2-5.5 7-6.4 13.3-6.1q1.8 0.1 3.1 0.3c4.2 0.3 4.8 0.4 6.9-4.9 0.6-1.4 1-3.1 1.4-4.8 0.7-3.1 1.5-6.3 3.4-8.4 4.6-4.6 12.2-4.3 18.1 0.7q1.3 1.1 2.7 2.3l0.1 0.2c7.1 17 6 35.9-2.9 51.9v0.1c-0.3 0.3-0.5 0.7-0.7 1.3-0.8 2.4-3.1 4.9-4.9 7q-0.5 0.5-0.9 1.1c-3.8 4.4-8.2 8.2-13.2 11.3-9.7 6-20.8 9-31.9 9zm-42.7-19.7c3.7 3.9 7.8 7.4 12.4 10.2q2.7 1.6 5.5 3c17.7 8.4 39.2 7.1 56.2-3.4 4.9-3 9.2-6.8 12.9-11.1q0.5-0.5 1-1.1c1.7-2 3.9-4.4 4.6-6.7 0.3-0.7 0.5-1.2 0.9-1.6 8.7-15.7 9.7-34.2 2.8-50.8q-1.3-1.2-2.5-2.2c-5.6-4.7-12.6-5-16.7-0.8-1.8 1.9-2.6 5-3.3 8-0.4 1.6-0.8 3.4-1.4 4.9-2.3 5.8-3.2 5.9-7.9 5.5q-1.3-0.2-3-0.3c-6.1-0.3-9.5 0.5-12.5 5.6-1.4 2.5-2.2 4.9-2.9 7-1.7 4.8-2.9 8.3-10.2 8.6-1.7 0.1-3.6-0.1-5.4-0.3-3.6-0.3-7-0.7-9.7 0.9-3.4 1.9-4 4.8-4.8 8.1-0.4 1.9-0.8 3.8-1.7 5.7-1.5 3.1-4.5 4.2-7.4 5.2-3 1.1-5.9 2.2-6.9 5.6z"/><path  d="m103.5 56.8l-21.3-11.1 0.5-0.9 21.3 11.1z"/><path  d="m114.8 35.2l-18.6-17.5 0.7-0.7 18.6 17.5z"/><path  d="m133.2 21l-12-21.8 0.9-0.5 12 21.8z"/><path class="b" d="m368.3 93.8c-0.2 0.9-1.6 6.3-2.2 8-8.5 24.4-31.9 40.2-57.1 39.6q-6.5-0.1-13-1.7c-31.7-7.8-51.1-39.9-43.2-71.6 7.8-31.8 39.9-51.1 71.6-43.3q3.8 1 7.3 2.3c17.3 6.7 30 21 35.1 37.9q0 0 0 0 0.3 0.9 0.5 1.7c2.4 8.6 2.8 17.8 1 27.1z"/><path fill-rule="evenodd" d="m310.4 141.9q-0.7 0-1.4 0c-4.4-0.1-8.8-0.6-13.1-1.7-15.5-3.8-28.5-13.5-36.8-27.1-8.2-13.6-10.6-29.7-6.8-45.1 3.8-15.5 13.4-28.6 27.1-36.8 13.6-8.3 29.7-10.7 45.2-6.9 2.4 0.6 4.9 1.4 7.3 2.3 17.1 6.7 30 20.6 35.4 38.3l0.1 0.1q0.1 0.4 0.2 0.7 0.1 0.4 0.2 0.8c2.5 9.1 2.8 18.3 1 27.4-0.2 1-1.6 6.4-2.2 8.1-8.4 24-30.9 39.9-56.2 39.9zm-0.3-118.3c-10.5 0-20.9 2.8-30.2 8.4-13.4 8.1-22.9 21-26.6 36.2-3.8 15.2-1.4 31 6.7 44.4 8.1 13.4 20.9 22.9 36.2 26.6 4.2 1.1 8.5 1.6 12.8 1.7 25.5 0.6 48.2-15.2 56.6-39.3 0.6-1.6 2-7 2.2-7.9 1.8-9 1.5-18-0.9-26.9q-0.2-0.4-0.3-0.8-0.1-0.4-0.2-0.8l-0.1-0.1v-0.1c-5.3-17.3-18-30.9-34.8-37.4-2.3-0.9-4.8-1.7-7.2-2.3-4.7-1.2-9.5-1.7-14.2-1.7z"/><path  d="m351.8 125.2c-14.3 13.4-35.3 19.4-54.9 14.6q-3-0.8-6-1.9c-5.2-1.9-10.1-4.5-14.5-7.7 0.4-7.6 10.1-7.1 11.8-13.9 1.5-5.6-0.9-10.8 3.8-15 3.7-3.3 10-2.4 15-3.7 9.8-2.4 6.3-8.5 9.3-17.6 2-5.8 5.4-7.3 11.5-8.3 7.1-1 8 0.2 9.3-6.9 0.8-4.3-0.3-10.1 2-13.7 3.3-5.1 10.6-6.3 17.2-2.7q1.6 0.8 3 1.7c10.4 15.3 12.8 34.1 7.5 50.9-0.2 0.5-0.4 1-0.5 1.6-0.3 2.9-2.6 6.4-4 9-2.8 5.1-6.4 9.6-10.5 13.6z"/><path fill-rule="evenodd" d="m310.7 141.9c-4.7 0-9.3-0.5-13.9-1.7q-3.1-0.7-6.1-1.8c-5.2-1.9-10.1-4.6-14.6-7.8l-0.2-0.2v-0.3c0.2-4.2 3.2-6.1 6.1-7.9 2.6-1.5 5-3 5.8-6 0.5-1.9 0.5-3.8 0.5-5.6 0.1-3.5 0.2-6.8 3.4-9.7 2.6-2.3 6.3-2.7 9.9-3 1.8-0.2 3.6-0.4 5.2-0.8 6.5-1.6 6.9-4.8 7.5-9.6 0.3-2.2 0.6-4.8 1.6-7.7 2-6 5.5-7.6 11.8-8.6q1.8-0.2 3.1-0.3c4.2-0.5 4.8-0.6 5.8-6.2 0.3-1.5 0.3-3.2 0.4-4.9 0.1-3.2 0.2-6.5 1.7-9 3.5-5.4 11-6.6 17.9-2.9q1.4 0.8 3 1.8l0.1 0.1c10.4 15.2 13.1 33.9 7.6 51.4v0.1c-0.3 0.4-0.4 0.8-0.5 1.4-0.3 2.5-1.9 5.5-3.3 7.8q-0.4 0.7-0.7 1.3c-2.8 5.1-6.4 9.7-10.7 13.7-11.3 10.6-26.3 16.4-41.4 16.4zm-33.8-12c4.4 3.2 9.1 5.7 14.2 7.5q2.9 1.1 5.9 1.9c19.1 4.7 39.9-0.8 54.4-14.5 4.2-4 7.8-8.5 10.5-13.5q0.4-0.6 0.7-1.3c1.3-2.2 3-5.1 3.2-7.4 0.1-0.8 0.3-1.3 0.6-1.8 5.4-17.1 2.7-35.4-7.4-50.3q-1.5-1-2.9-1.7c-6.4-3.5-13.4-2.4-16.6 2.6-1.4 2.2-1.5 5.3-1.5 8.4-0.1 1.7-0.1 3.5-0.4 5.1-1.1 6.1-2.1 6.4-6.7 7q-1.3 0.1-3 0.3c-6 1-9.2 2.4-11.1 8-0.9 2.7-1.3 5.2-1.5 7.4-0.7 5.1-1.1 8.7-8.2 10.5-1.7 0.4-3.6 0.6-5.4 0.8-3.6 0.3-7 0.7-9.4 2.8-2.9 2.5-2.9 5.5-3 8.9 0 1.9-0.1 3.8-0.6 5.9-0.8 3.4-3.5 5-6.1 6.6-2.8 1.7-5.4 3.3-5.7 6.8z"/><path  d="m357 46.8l-0.5-0.9 20.3-12.8 0.6 0.9z"/><path  d="m368.3 66.7l-0.3-1 24.5-7.3 0.3 1z"/><path  d="m394 91.7l-24.8-0.6v-1l24.8 0.6z"/><path class="f" d="m219.6 135.8c13.8 2.6 27.7 3.5 41.6 2.5 12.1-0.9 35.5 2.4 26.5 23.9-6.2 14.6-23.3 20.6-35.7 22.5-21.7 3.3-54.9-0.4-72.8-17.7-7.9-7.6-12-22.3-1.9-29.8 11.1-8.3 30.3-3.6 42.3-1.4z"/><path fill-rule="evenodd" d="m236.9 186.3c-7.7 0-15.5-0.8-22.8-2.3-14.9-3-27.1-8.7-35.3-16.7-5.2-5.1-8.3-12.6-7.9-19.1 0.3-4.7 2.4-8.7 6.1-11.4 10.4-7.8 27.2-4.5 39.5-2.1q1.7 0.4 3.2 0.6c13.8 2.6 27.8 3.5 41.5 2.5 9.2-0.7 21.7 1.1 26.7 8.1 3 4.2 3.1 9.7 0.2 16.5-7 16.7-27.6 21.5-36.1 22.8-4.8 0.7-9.9 1.1-15.1 1.1zm-42.1-53.4c-6.4 0-12.5 1.2-17.2 4.7-3.5 2.6-5.4 6.2-5.7 10.6-0.4 6.3 2.6 13.5 7.6 18.4 16.8 16.2 49.1 21.1 72.4 17.6 8.3-1.2 28.5-5.9 35.3-22.2 2.7-6.4 2.7-11.6-0.1-15.5-4.8-6.7-16.9-8.4-25.8-7.7-13.9 1-27.9 0.1-41.7-2.5q-1.6-0.3-3.3-0.6c-6.4-1.3-14.2-2.8-21.5-2.8z"/><path  d="m237.9 162.8q-1 0-2 0c-16.4-0.4-32.8-5.7-47.5-15.2l0.6-0.9c14.5 9.5 30.7 14.7 46.9 15.1 12.7 0.3 25.1-2.3 37.1-7.6l0.4 0.9c-11.5 5.1-23.4 7.7-35.5 7.7z"/><path class="g" d="m247.2 118.6c0 7.1-5.8 12.9-13 12.9-7.2 0-13-5.8-13-12.9 0-7.2 5.8-13 13-13 7.2 0 13 5.8 13 13z"/><path fill-rule="evenodd" d="m234.2 132c-7.5 0-13.5-6-13.5-13.4 0-7.5 6-13.5 13.5-13.5 7.4 0 13.5 6 13.5 13.5 0 7.4-6.1 13.4-13.5 13.4zm0-25.9c-6.9 0-12.5 5.6-12.5 12.5 0 6.8 5.6 12.4 12.5 12.4 6.9 0 12.5-5.6 12.5-12.4 0-6.9-5.6-12.5-12.5-12.5z"/></svg>